<svg width="573" height="110" fill="none" xmlns="http://www.w3.org/2000/svg"><path d="M58.5 22.3h12.1c7.6 0 11.9-3.8 11.9-10.5 0-9.7-7.8-10.7-11.1-10.7H55.3v37.6h3.2V22.3Zm0-18.4h12.8c7.6 0 8.1 6 8.1 7.8 0 3.7-2.2 7.7-8.4 7.7H58.5V3.9ZM118.499 31.9c0-1.2 0-2.4-.2-3.6-.3-3.1-1.3-6.7-5.7-7.9 4-1.4 6.5-4.8 6.5-9.4 0-6.5-4.2-9.9-12.1-9.9h-15.8v37.6h3.2V21.9H107c6.5 0 7.8 3 8.2 6 .1 1.3.1 2.6.1 3.9 0 2.5 0 4.8.9 6.5l.1.2h3.7l-.5-.7c-1-1.1-1-3.4-1-5.9Zm-24.1-28H107c2.7 0 8.9.7 8.9 7.2 0 6.9-5.6 8-8.9 8h-12.6V3.9ZM154.902 35.8h-22.6V20.5h21v-2.8h-21V3.9h22.4V1h-25.6v37.6h25.8v-2.8ZM178.101 39.5c6.6 0 13.3-3.3 13.3-10.8 0-8-7.4-9.5-12.9-10.6l-.9-.2c-5.8-1.2-11.3-2.3-11.3-7.6 0-5.4 5.2-7.4 9.6-7.4 7 0 11.1 3.3 11.3 9v.4h3.1v-.5c-.3-7.5-5.6-11.8-14.5-11.8-6.4 0-12.8 3.2-12.8 10.2 0 7.6 7.1 9 12.9 10.2l.5.1c6 1.2 11.6 2.4 11.6 8 0 6.3-6.4 7.9-10.2 7.9-4.6 0-8.4-1.3-10.5-3.5-1.7-1.8-2.4-4.1-2.3-7v-.5h-3.2v.4c0 3.9 1.1 7 3.3 9.3 3.1 2.9 7.5 4.4 13 4.4ZM227.198 35.8h-22.7V20.5h21.1v-2.8h-21.1V3.9h22.4V1h-25.5v37.6h25.8v-2.8ZM238.802 21.9h12.6c6.5 0 7.8 3 8.2 6 .1 1.2.1 2.6.1 3.9 0 2.5 0 4.8.9 6.5l.1.2h3.7l-.5-.7c-.9-1.2-1-3.5-1-6 0-1.2 0-2.4-.2-3.6-.3-3.1-1.2-6.7-5.7-7.9 4-1.4 6.5-4.8 6.5-9.4 0-6.5-4.2-9.9-12.1-9.9h-15.8v37.6h3.1V21.9h.1Zm0-18h12.6c2.7 0 8.9.7 8.9 7.2 0 6.9-5.6 8-8.9 8h-12.6V3.9ZM286.698 38.6l14-37.6h-3.2l-12.4 34.1-12.2-33.8-.1-.3h-3.4l14 37.6h3.3ZM309.5 26.8h17l4.5 11.5.1.3h3.4L319.8 1.3l-.1-.3h-3.1l-14.9 37-.2.6h3.4l4.6-11.8Zm1-2.8 7.6-19.2 7.3 19.2h-14.9ZM344.7 5.5l22.6 32.9.1.2h3.3V1h-3.1v32.9L345.1 1.2 345 1h-3.5v37.6h3.2V5.5ZM411.701 19.8c0-7-2.3-18.7-17.4-18.7h-12.5v37.6h12.4c11-.1 17.5-7.1 17.5-18.9Zm-17.3 16h-9.4V3.9h9c9.8 0 14.6 5.2 14.6 15.9 0 14.4-9.9 16-14.2 16ZM438.002.2c-10.7 0-17.9 7.9-17.9 19.6 0 11.6 7.4 19.7 17.9 19.7 10.5 0 17.9-8.1 17.9-19.7-.1-11.7-7.3-19.6-17.9-19.6Zm0 36.4c-8.7 0-14.8-6.9-14.8-16.8s6.1-16.8 14.8-16.8c8.7 0 14.7 6.9 14.7 16.8s-6.1 16.8-14.7 16.8ZM36.3 88.2c-.4 0-1 .2-1.3.9-2.6 5.1-5.1 8.7-7.5 10.9-2.3 2.1-4.3 3.2-5.9 3.2-1 0-2.4-.3-2.4-3.2 0-.4 0-.9.1-1.3.1-.5.3-1.3.5-2.3L41.5 17l.2-.7-28.5 4.6h-.3l-.7 3.1 7.5-1.2L1.3 89.4c-.4 1.3-.7 2.6-1 3.9-.2 1.1-.3 2.3-.3 3.6 0 2.1.4 3.8 1.1 5.4.8 1.5 1.8 2.8 3 3.8s2.6 1.7 4.2 2.2c1.6.5 3.3.7 4.9.7 3.1 0 5.9-.4 8.2-1.3 2.3-.8 4.4-2 6.3-3.6 1.9-1.5 3.6-3.4 5.1-5.6 1.4-2.1 2.9-4.5 4.4-7.4.3-.5.4-.9.5-1.1 0-.2.1-.4.1-.5-.1-.8-.6-1.3-1.5-1.3ZM116.202 88.9c-.4 0-1 .2-1.4 1-2.1 4.4-4.3 7.7-6.4 9.7-2.1 2-3.9 3-5.3 3-.7 0-2.7 0-2.7-3.9 0-1.2.2-2.4.5-3.6l11.3-43.5.1-.6h-21.3l-2.2 7.8c-1.6-3.3-3.7-5.6-6.3-6.8-2.8-1.3-5.8-2-8.8-2-4.2 0-8.5.8-12.6 2.5-4.1 1.6-7.8 4-10.9 6.9-3.2 2.9-5.8 6.5-7.7 10.6-1.9 4.1-2.9 8.7-2.9 13.6 0 3.9.6 7.5 1.8 10.6 1.2 3.1 2.9 5.7 5 7.9 2.1 2.1 4.4 3.8 6.9 4.9 2.6 1.1 5.2 1.7 7.8 1.7 2.6 0 5-.4 7.1-1.1 2-.7 3.9-1.7 5.5-2.8 1.6-1.1 2.9-2.3 4-3.5.8-.9 1.5-1.7 2.1-2.4.2 1 .6 1.9 1.1 2.9.7 1.3 1.6 2.5 2.9 3.7 1.3 1.1 2.8 2 4.7 2.7 1.9.7 4.2 1.1 7.1 1.1 3.4 0 6.4-.7 8.9-1.9 2.4-1.3 4.6-2.8 6.3-4.7 1.7-1.8 3.1-3.8 4.2-5.9 1-1.9 1.9-3.7 2.7-5.4.1-.2.2-.5.2-.8-.2-1.1-.8-1.7-1.7-1.7Zm-29.2-24.1c0 .1 0 .3-.1.6s-.3 1.1-.4 1.6l-7 25.2c-.2 1-.9 2.2-2 3.6-1.2 1.5-2.6 2.9-4.1 4.2-1.7 1.4-3.4 2.6-5.2 3.5-1.8 1-3.6 1.4-5.3 1.4-2 0-3.6-.6-4.9-1.8-1.3-1.2-2-3.1-2-5.8 0-1.2.1-2.4.3-3.5.2-1.3.5-2.5.8-3.6l6.5-23.5c1.1-3.9 2.7-7.1 4.6-9.5 2-2.4 4.6-3.6 7.9-3.6 1.7 0 3.2.4 4.6 1.3 1.4.9 2.5 1.9 3.5 3.2.9 1.2 1.7 2.5 2.1 3.8.5 1.2.7 2.2.7 2.9ZM198.4 89.3c-.7 0-1.3.4-1.9 1.2-3.2 4.6-7.2 8.3-11.7 10.9-4.5 2.7-9.6 4-15 4-2.2 0-4.3-.6-6.1-1.9-1.8-1.3-2.7-3-2.7-5.4 0-1.4.1-2.7.3-3.7.1-1 .4-2.4.9-4.3l2-8.3c1.6.5 3.5.9 5.6 1.2 2.4.4 4.9.6 7.4.6 3.7 0 7.1-.4 10.2-1.2 3.1-.8 5.8-1.9 8.1-3.4 2.2-1.5 4-3.3 5.3-5.5 1.3-2.2 1.9-4.7 1.9-7.5 0-1.9-.4-3.9-1.3-5.9-.9-2-2.2-3.7-3.9-5.1-1.8-1.5-3.9-2.7-6.5-3.6-2.6-.9-5.7-1.4-9.3-1.4-6 0-11.4 1.1-16.1 3.2-4.7 2.1-8.7 4.9-11.8 8.3-3.2 3.4-5.6 7.2-7.3 11.4-1.7 4.2-2.5 8.4-2.5 12.5 0 3.2.5 6.2 1.5 9 1 2.9 2.6 5.4 4.6 7.5 2.1 2.2 4.7 3.9 7.9 5.2 3.2 1.3 6.9 2 11.2 2 3.4 0 6.6-.4 9.6-1.3s5.7-2.1 8.2-3.5c2.5-1.5 4.7-3.2 6.7-5 2-1.9 3.7-3.9 5.1-5.9.4-.5.6-.9.7-1.3.1-.3.1-.7.1-1 .2-1.6-.8-1.8-1.2-1.8Zm-28.3-27.9c.7-1.6 1.5-3.1 2.5-4.4.9-1.3 2.1-2.3 3.4-3 1.3-.7 2.7-1.1 4.4-1.1 2.1 0 3.6.6 4.4 1.9.9 1.4 1.3 3.1 1.3 5.3 0 6.4-1.5 11.3-4.5 14.5-3 3.2-6.8 4.8-11.4 4.8-1 0-2-.1-2.9-.3-.8-.1-1.6-.3-2.4-.4l3.4-12.2c.5-1.7 1.1-3.5 1.8-5.1ZM251.398 53.4c-1.7-1.1-3.9-2-6.5-2.6-2.6-.6-5.7-1-9.1-1-3.3 0-6.4.4-9.4 1.3-3 .8-5.5 2.1-7.6 3.6-2.1 1.6-3.9 3.5-5.2 5.9-1.3 2.4-1.9 5-1.9 7.9 0 2.8.9 5.4 2.7 8 1.8 2.5 4.6 4.9 8.6 7.1 3.7 2.1 6.4 4.3 7.9 6.5 1.6 2.3 2.3 4.5 2.3 6.7 0 3.3-1 5.7-2.9 7.1-1.9 1.5-4.5 2.2-7.7 2.2-2 0-3.9-.2-5.7-.7-1.7-.5-3.2-1-4.5-1.6-1.2-.6-2.2-1.2-3-1.8-.9-.7-1-1.1-1-1.2 0 0 .1-.1.4-.2 1.9-.3 3.6-1 4.9-2.2 1.4-1.3 2.2-2.9 2.2-4.8 0-2.4-.8-4.2-2.4-5.5-1.6-1.3-3.4-1.9-5.4-1.9-2.4 0-4.3.8-5.6 2.4-1.4 1.6-2.1 3.5-2.1 5.7 0 1.7.5 3.5 1.5 5.3 1 1.8 2.4 3.3 4.3 4.8 1.9 1.4 4.3 2.6 7.1 3.5 2.8.9 6 1.4 9.6 1.4 4.5 0 8.5-.6 11.9-1.6 3.4-1.1 6.3-2.6 8.6-4.5s4-4.1 5.2-6.6c1.1-2.5 1.7-5.2 1.7-8.1 0-8.2-4.3-14.6-12.7-19-3.8-1.9-6.5-3.7-7.9-5.3-1.4-1.6-2.1-3.2-2.1-4.9 0-2.3.9-3.8 2.7-4.8 1.9-1 3.9-1.5 6-1.5 3.7 0 6.5.4 8.6 1.3 2.7 1.1 2.9 1.7 2.9 1.9 0 .1-.2.3-.6.5-1.4.6-2.4 1.3-3 2.3-.6 1-.9 2-.9 3.1 0 2 .7 3.6 2 4.7s2.9 1.6 4.7 1.6c2.1 0 3.8-.7 4.9-2 1.1-1.3 1.7-2.9 1.7-4.6 0-1.5-.4-2.9-1.3-4.3-.9-1.8-2.2-3-3.9-4.1ZM275.701 90.1l1.9-8.3c1.6.5 3.5.9 5.6 1.2 2.4.4 4.9.6 7.4.6 3.7 0 7.1-.4 10.2-1.2 3.1-.8 5.9-1.9 8.1-3.4 2.2-1.5 4-3.4 5.3-5.5 1.3-2.2 1.9-4.7 1.9-7.5 0-1.9-.4-3.9-1.3-5.9-.8-1.9-2.1-3.7-3.9-5.1-1.7-1.5-3.9-2.7-6.5-3.6-2.6-.9-5.7-1.4-9.3-1.4-6 0-11.4 1.1-16.1 3.2-4.7 2.1-8.7 4.9-11.9 8.3-3.2 3.4-5.6 7.2-7.3 11.4-1.7 4.2-2.5 8.4-2.5 12.5 0 3.1.5 6.2 1.5 9 1 2.9 2.6 5.4 4.6 7.5 2.1 2.2 4.7 3.9 7.8 5.2 3.2 1.3 6.9 2 11.2 2 3.4 0 6.6-.4 9.6-1.3s5.7-2.1 8.2-3.5c2.5-1.5 4.7-3.2 6.7-5 2-1.9 3.7-3.9 5.1-5.9.4-.5.6-.9.7-1.3.1-.4.1-.7.1-1 0-1.4-.9-1.6-1.3-1.6-.7 0-1.3.4-1.9 1.2-3.3 4.6-7.2 8.3-11.7 10.9-4.5 2.7-9.6 4-15 4-2.3 0-4.3-.6-6.1-1.9-1.8-1.2-2.7-3-2.7-5.4 0-1.5.1-2.7.2-3.7.7-1.4 1-2.8 1.4-4.5Zm7.9-28.7c.7-1.6 1.5-3.1 2.5-4.4 1-1.3 2.1-2.3 3.4-3 1.2-.7 2.7-1.1 4.4-1.1 2.1 0 3.5.6 4.4 1.9.9 1.4 1.4 3.1 1.4 5.3 0 6.4-1.5 11.3-4.5 14.5-3 3.2-6.8 4.8-11.4 4.8-1 0-2-.1-2.9-.3-.8-.1-1.6-.3-2.4-.4l3.4-12.2c.4-1.7 1-3.5 1.7-5.1ZM387.3 87.1c-.7 0-1.3.4-1.8 1.3-2.4 4-4.4 7-6 8.9-1.9 2.2-3.1 2.6-3.7 2.6-.4 0-1.6 0-1.6-2.9 0-.5.1-1.1.2-1.8.2-.8.5-2 .9-3.7l5.6-20.4c.4-1.5.7-2.8.9-4 .1-1.2.2-2.1.2-2.8 0-4-1.3-7.5-3.8-10.4-2.5-2.9-6.2-4.4-10.9-4.4-4.8 0-8.8.9-11.9 2.8-2.5 1.5-4.8 3.3-6.8 5.3l2.7-9.4-28.4 4.4h-.3l-.9 3.2 7.4-1.4-14 52.6-.1.6h20l10.6-39c.6-2.2 1.5-4.1 2.8-6 1.3-1.8 2.6-3.3 4.1-4.5 1.4-1.2 2.8-2.2 4.2-2.9 1.4-.7 2.5-1 3.4-1 1.2 0 2 .4 2.5 1.2.5.9.7 2.1.7 3.5 0 1.6-.4 4-1.3 7.4l-6.2 23.2c-.7 2.6-1.1 4.9-1.1 7 0 3.5.9 6.4 2.7 8.5 1.8 2.1 4.5 3.2 8 3.2 5.3 0 10-1.8 13.8-5.3 3.8-3.5 6.8-7.9 9.1-13.3.2-.6.3-1 .3-1.3-.1-.7-.5-1.2-1.3-1.2ZM440.699 52.6c-1.7-.8-3.7-1.4-5.7-1.8-2.1-.4-4.2-.5-6.3-.5-6.3 0-12 1-16.9 3.1-4.9 2-9 4.7-12.4 8-3.3 3.3-5.9 7-7.6 11-1.7 4-2.6 8.1-2.6 12.1 0 3.9.7 7.3 2.2 10.3 1.4 2.9 3.4 5.5 5.9 7.6 2.5 2.1 5.3 3.7 8.4 4.8 3.1 1.1 6.3 1.6 9.6 1.6 3.6 0 7-.6 10-1.6 3-1.1 5.6-2.5 7.8-4.1 2.2-1.6 4.1-3.4 5.7-5.4 1.6-2 2.9-3.9 3.9-5.6.4-.7.6-1.3.6-1.8 0-.9-.5-1.5-1.5-1.5-.5 0-1.1.2-1.7 1.1-1.4 2.6-3.1 4.9-5 6.8-1.9 1.9-3.9 3.5-5.9 4.7-2 1.2-4 2.1-6.2 2.7-2 .6-4 .9-5.9.9-2.3 0-4.1-.3-5.4-1-1.3-.6-2.3-1.5-3-2.4-.7-1-1.1-2-1.3-3.1-.2-1.1-.3-2.1-.3-3 0-1.4.2-3.3.6-5.7.5-2.6 1-5.2 1.6-7.9.7-2.9 1.4-5.7 2.1-8.3.8-2.8 1.5-5.1 2.1-7 .8-2.5 1.7-4.7 2.6-6.5.8-1.7 1.8-3.1 2.9-4.1 1.1-1.1 2.4-1.8 3.9-2.2 1.5-.5 3.2-.7 5.3-.7 2.5 0 4.4.2 5.9.5 1.1.2 1.5.5 1.7.6-.1 0-.3.1-.5.1-1.8.2-3.2 1-4.3 2.5-1 1.5-1.6 3.1-1.6 4.9 0 2.5.9 4.4 2.6 5.7 1.7 1.3 3.7 2 6 2 2 0 3.9-.6 5.7-1.9 1.8-1.3 2.8-3.4 2.8-6.3 0-2.2-.6-4-1.7-5.4-.9-1.3-2.3-2.4-4.1-3.2ZM481.198 21.9c-1.9 0-3.6.3-5 1-1.5.7-2.7 1.5-3.8 2.6-1 1.1-1.8 2.3-2.3 3.7-.5 1.4-.7 2.8-.7 4.2 0 2.4.8 4.6 2.4 6.5 1.6 1.9 4.1 2.9 7.4 2.9 1.9 0 3.7-.3 5.2-1s2.8-1.6 3.8-2.6c1-1.1 1.8-2.4 2.3-3.7.6-1.4.8-2.8.8-4.1 0-2.4-.8-4.6-2.4-6.5-1.8-2-4.3-3-7.7-3ZM487.202 88.2c-.5 0-1.3.2-1.8 1.4-2.1 4.2-4.1 7.4-5.9 9.3-1.8 1.8-3.2 2.8-4.3 2.8-.4 0-1.4 0-1.4-2.3 0-.5 0-1 .1-1.6.1-.6.3-1.7.8-3.1l12.8-47.2.2-.7-28.2 4.2h-.3l-.9 3.1 7.4-.9-10.8 39.6c-.5 2.1-.8 4-.8 5.5 0 3.5 1.1 6.2 3.1 8 2 1.8 4.8 2.7 8.3 2.7 5.8 0 10.5-1.6 13.9-4.9 3.4-3.1 6.3-7.4 8.8-12.7.3-.6.4-1.2.4-1.7-.1-1.4-1-1.5-1.4-1.5ZM571.401 88.9c-.4 0-1 .2-1.4 1-2.1 4.4-4.3 7.7-6.4 9.7-2.1 2-3.9 3-5.3 3-1.1 0-2.7-.4-2.7-3.9 0-1.2.2-2.4.5-3.6l11.3-43.5.1-.6h-21.4l-2.2 7.8c-1.5-3.3-3.6-5.6-6.2-6.8-2.8-1.3-5.8-2-8.8-2-4.2 0-8.5.8-12.6 2.5s-7.8 4-10.9 6.9c-3.2 2.9-5.7 6.5-7.7 10.6-1.9 4.1-2.9 8.7-2.9 13.6 0 3.9.6 7.5 1.8 10.6 1.2 3.1 2.9 5.7 4.9 7.9 2.1 2.1 4.4 3.7 6.9 4.9 2.6 1.1 5.2 1.7 7.8 1.7 2.6 0 5-.4 7.1-1.1 2-.7 3.9-1.7 5.5-2.8 1.6-1.1 2.9-2.3 4-3.5.8-.8 1.5-1.7 2.1-2.4.2.9.6 1.9 1.1 2.9.7 1.3 1.6 2.6 2.9 3.7 1.3 1.1 2.9 2 4.7 2.7 1.9.7 4.3 1.1 7.1 1.1 3.4 0 6.4-.7 8.9-1.9 2.5-1.3 4.6-2.9 6.3-4.7 1.7-1.8 3.1-3.8 4.2-5.9 1.1-2.1 2-3.9 2.7-5.4.1-.2.2-.5.2-.8-.1-1.1-.7-1.7-1.6-1.7Zm-29.2-24.1c0 .1 0 .3-.1.6 0 .1-.1.6-.4 1.6l-7 25.2c-.2 1-.9 2.2-2.1 3.6-1.2 1.5-2.6 2.9-4.1 4.2-1.7 1.4-3.4 2.6-5.2 3.5-1.8 1-3.6 1.4-5.3 1.4-2 0-3.6-.6-5-1.8-1.3-1.2-2-3.1-2-5.8 0-1.2.1-2.4.3-3.5.2-1.2.5-2.4.8-3.6l6.5-23.5c1.1-3.9 2.7-7.1 4.6-9.5 1.9-2.4 4.6-3.6 7.9-3.6 1.7 0 3.2.4 4.6 1.3 1.4.9 2.6 2 3.5 3.2 1 1.3 1.7 2.5 2.1 3.8.7 1.2.9 2.2.9 2.9Z" fill="#000"/></svg>