<svg version="1.1" id="Calque_3" xmlns="http://www.w3.org/2000/svg" x="0" y="0" viewBox="0 0 800 800" style="enable-background:new 0 0 800 800" xml:space="preserve"><style>.st0{fill:#c2c2c2}.st1{fill:#fff}</style><path class="st0" d="M419.8 543.6c-1.1.2-2.1-.1-3.2-.1.3 1.3.8 2.5.8 3.9 0 5.5-2.8 10.2-6.9 13.3v6.5c7.3-3.7 12.4-11.1 12.4-19.8 0-1.7-.4-3.2-.8-4.8-.8.3-1.5.8-2.3 1zM390.3 560.7c-4.1-3.1-6.9-7.8-6.9-13.3 0-1.3.4-2.5.7-3.7-1.6.2-3.1.5-4.8.1-.3-.1-.6-.3-.9-.4-.2 1.3-.6 2.6-.6 3.9 0 8.7 5.1 16.1 12.4 19.8v-6.4z"/><path class="st1" d="M393.1 695.8h4.4V694c0-1.6 1.3-2.9 2.9-2.9 1.6 0 2.9 1.3 2.9 2.9v1.8h4.4v-57.6h-14.6v57.6zm7.3-44.5c.9 0 1.7.7 1.7 1.7 0 .9-.7 1.7-1.7 1.7-.9 0-1.7-.7-1.7-1.7s.7-1.7 1.7-1.7zm0 13.6c.9 0 1.7.7 1.7 1.7 0 .9-.7 1.7-1.7 1.7-.9 0-1.7-.7-1.7-1.7s.7-1.7 1.7-1.7zm0 13.6c.9 0 1.7.7 1.7 1.7 0 .9-.7 1.7-1.7 1.7-.9 0-1.7-.7-1.7-1.7 0-.9.7-1.7 1.7-1.7z"/><path class="st1" d="M398.7 694v3.8c0 .9.7 1.6 1.6 1.6s1.6-.7 1.6-1.6V694c0-.9-.7-1.6-1.6-1.6-.8-.1-1.6.7-1.6 1.6zM393.1 558.4v66.4h14.6V558.4h-14.6zm14.5 53.1c-.3-4.7-3.4-6.7-7.2-6.7-3.8 0-6.9 2.3-7.2 6.6-.1-.8-.1-1.6-.1-2.7 0-5 3.3-7.3 7.3-7.3s7.3 2.3 7.3 7.3c0 1.2-.1 2-.1 2.8zM407.7 702h-14.6v19.3h14.6V702zm-7.3 7.1c-.9 0-1.7-.7-1.7-1.7 0-.9.7-1.7 1.7-1.7.9 0 1.7.7 1.7 1.7-.1 1-.8 1.7-1.7 1.7zM393.1 734.7h14.6v25.4h-14.6z"/><path class="st0" d="M407.7 721.3h-14.6v3.4h14.6zM393.1 734.7h14.6v-3.3h-14.6z"/><path class="st1" d="M407.7 724.7h-17.1v6.7h19.5v-6.7h-2.4z"/><path class="st0" d="M393.1 624.7v3.4h14.6v-3.4h-14.6zM393.1 638.2h14.6v-3.4h-14.6z"/><path class="st1" d="M390.6 628.1v6.7h19.5v-6.7h-17zM411.8 683.1c-.3-.2-.6-.4-.9-.4-.2 0-.3.1-.4.2-.8.2-1.4.8-1.4 1.7v12.5h-5.7v.7c0 1.6-1.3 2.9-2.9 2.9-1.6 0-2.9-1.3-2.9-2.9v-.7h-5.7v-12.5c0-.8-.6-1.5-1.4-1.7-.1 0-.3-.2-.4-.2-.3 0-.5.2-.8.3-.6.3-1.1.8-1.1 1.5v14.3c0 1 .8 1.8 1.8 1.8h20.9c1 0 1.8-.8 1.8-1.8v-14.3c0-.1-.1-.2-.2-.4-.1-.4-.3-.7-.7-1z"/><path class="st0" d="M400.4 601.5c-4 0-7.3 2.3-7.3 7.3 0 1.1.1 1.9.1 2.7.3-4.3 3.4-6.6 7.2-6.6 3.9 0 6.9 2 7.2 6.7.1-.8.1-1.6.1-2.7 0-5.2-3.3-7.4-7.3-7.4zM221.6 272.5c1.2.7 2 1.7 2.9 2.6.5-.9.8-2 1.5-2.8.6-.6 1.3-.9 2-1.4-1.2-1.1-2.2-2.3-3.7-3.1-7.6-4.4-16.5-3.6-23.4.9l5.6 3.3c4.9-2.2 10.3-2.3 15.1.5zM196.6 289.3 191 286c-.4 8.2 3.4 16.3 11 20.6 1.2.7 2.4 1 3.7 1.5.1-.3 0-.6.1-1 .5-1.6 1.5-2.8 2.5-4.1-1.2-.4-2.4-.6-3.6-1.2-4.8-2.7-7.5-7.5-8.1-12.5z"/><path class="st1" d="m92.7 206.4-5.8-3.3-1.2 2.1-7.3 12.6-1.3 2.1 5.8 3.4 1.3-2.1 7.3-12.7z"/><path transform="rotate(-60 78.021 209.194)" class="st1" d="M70.7 208h14.6v2.5H70.7z"/><path class="st1" d="m108.5 218.4-17.1-9.8 2.9 1.7L87 223l14.1 8.2 7.4-12.8zm-9.2 5c-.8-.5-1.1-1.5-.6-2.3.5-.8 1.5-1.1 2.3-.6.8.5 1.1 1.5.6 2.3-.4.8-1.5 1.1-2.3.6zM109.4 225.4c-.8-.5-1.8-.2-2.2.6s-.2 1.8.6 2.2l3.3 1.9c.8.5 1.8.2 2.2-.6s.2-1.8-.6-2.2l-1.6-.9-1.1-.6-.6-.4z"/><path class="st1" d="m163.8 250.3 2.9 1.7-52.8-30.5-2.2 3.8 1.6.9c1.4.8 1.9 2.6 1.1 4-.8 1.4-2.6 1.9-4 1.1l-1.6-.9-2.2 3.8 52.8 30.5-2.9-1.7 7.3-12.7zm-38.6-13.9c-.5.8-1.5 1.1-2.3.6-.8-.5-1.1-1.5-.6-2.3.5-.8 1.5-1.1 2.3-.6.8.5 1.1 1.5.6 2.3zm11.8 6.9c-.5.8-1.5 1.1-2.3.6-.8-.5-1.1-1.5-.6-2.3.5-.8 1.5-1.1 2.3-.6.8.4 1.1 1.5.6 2.3zm11.8 6.8c-.5.8-1.5 1.1-2.3.6-.8-.5-1.1-1.5-.6-2.3.5-.8 1.5-1.1 2.3-.6s1.1 1.5.6 2.3zM207.3 275.4 175.5 257l-7.3 12.7-2.9-1.7 7.3-12.7 1.2-2.1-5.8-3.3-1.2 2.1-7.3 12.7-1.2 2.1 5.8 3.3 1.2-2.1 34.7 20 7.3-12.6zM192 275c-2 3.5-5.7 5.2-10 2.7-.9-.5-1.6-1-2.3-1.4 3.9 1.9 7.4.4 9.3-2.9 1.9-3.3 1.7-7-2.2-9.6.7.4 1.5.7 2.4 1.3 4.5 2.4 4.8 6.4 2.8 9.9z"/><path transform="rotate(-60 89.287 215.703)" class="st0" d="M82 214h14.6v3.4H82z"/><path class="st0" d="m82.8 203.5-7.4 12.6 3 1.7 7.3-12.6z"/><path transform="rotate(-60 170.332 262.494)" class="st0" d="M163 260.8h14.6v3.4H163z"/><path transform="rotate(-60 161.61 257.457)" class="st0" d="M154.3 255.8h14.6v3.4h-14.6z"/><path class="st1" d="m104.8 234.7.7-1.2 2.2-3.8-.6-.3c-1.4-.8-1.9-2.6-1.1-4 .8-1.4 2.6-1.9 4-1.1l.6.3 2.2-3.8.7-1.2 10.8 6.2c.7.4 1.6.2 2.1-.4.1-.1.3-.1.4-.3v-.2c.4-.8.1-1.8-.7-2.3l-12.4-7.2c-.9-.5-2-.2-2.5.7l-10.5 18.1c-.5.9-.2 2 .7 2.5l12.4 7.2c.4.3.9.3 1.4.2.5-.1.9-.4 1.1-.9.1-.1 0-.3.1-.4.2-.8 0-1.6-.7-2.1l-10.9-6z"/><path class="st0" d="M189.3 265c-.9-.5-1.7-.9-2.4-1.3 3.9 2.6 4.1 6.2 2.2 9.6-1.9 3.3-5.4 4.8-9.3 2.9.6.5 1.3.9 2.3 1.4 4.3 2.5 8 .8 10-2.7 1.9-3.4 1.6-7.4-2.8-9.9zM595.3 301.5c-1.1.7-2.4.8-3.6 1.2 1 1.3 2 2.5 2.5 4.1.1.3 0 .6.1 1 1.2-.4 2.5-.8 3.7-1.5 7.5-4.4 11.4-12.5 11-20.6l-5.6 3.3c-.6 4.9-3.3 9.7-8.1 12.5zM575.4 274.7c.9-.9 1.8-1.9 2.9-2.6 4.8-2.8 10.3-2.7 15-.7l5.6-3.3c-6.9-4.5-15.8-5.2-23.4-.9-1.5.8-2.5 2.1-3.7 3.2.7.5 1.4.8 2 1.4.9.9 1.1 1.9 1.6 2.9z"/><path class="st1" d="M584.9 302.8c-6.8-1-11-5.3-11.2-5.6l-.1-.1c-2.9-4.6-3.9-8.8-3.4-12.8.1-.6-.1-1.2 0-1.8.4-1.7 1.2-3.2 2-4.5-.4-1.1-.8-2.2-1.7-3.1-1.2-1.3-2.8-2-4.4-2.5L407.2 360v10.2c13.9 3.7 22.4 17.9 19.1 31.9l.8.5 5.7 3.3 1.1.6 22.7-14.6L590.2 311c0-1 0-1.9-.3-2.9-.8-2.5-2.7-4.2-5-5.3z"/><path transform="rotate(-30.006 721.972 208.782)" class="st1" d="M720.7 201.5h2.5v14.6h-2.5z"/><path class="st1" d="m713.1 202.6-5.8 3.4 1.2 2.1 7.3 12.7 1.3 2.1 5.8-3.4-1.3-2.1-7.3-12.6zM691.5 218l7.3 12.7 14.1-8.2-7.3-12.7-14.1 8.2zm9.2 5c-.8.5-1.8.2-2.3-.6-.5-.8-.2-1.8.6-2.3.8-.5 1.8-.2 2.3.6.4.8.2 1.9-.6 2.3zM686.7 229.1c.5.8 1.5 1.1 2.2.6l3.3-1.9c.4-.2.7-.6.8-1 .1-.4.1-.9-.2-1.2-.5-.8-1.5-1.1-2.2-.6l-.6.3-1.1.6-1.6.9c-.8.5-1 1.5-.6 2.3z"/><path class="st1" d="m693.4 233.7-2.2-3.8-1.6.9c-1.4.8-3.2.3-4-1.1-.8-1.4-.3-3.2 1.1-4l1.6-.9-2.2-3.8-49.9 28.8 7.3 12.7 49.9-28.8zm-18 .1c.8-.5 1.8-.2 2.3.6.5.8.2 1.8-.6 2.3-.8.5-1.8.2-2.3-.6-.5-.9-.2-1.9.6-2.3zm-11.8 6.8c.8-.5 1.8-.2 2.3.6.5.8.2 1.8-.6 2.3s-1.8.2-2.3-.6c-.5-.8-.2-1.9.6-2.3zm-11.8 6.8c.8-.5 1.8-.2 2.3.6.5.8.2 1.8-.6 2.3s-1.8.2-2.3-.6c-.5-.8-.2-1.8.6-2.3z"/><path transform="rotate(-30 710.752 215.317)" class="st0" d="M709 208h3.4v14.6H709z"/><path class="st0" d="m717.2 203.1-2.9 1.7 7.3 12.6 1.8-1 1.2-.7z"/><path transform="rotate(-30.006 629.659 262.08)" class="st0" d="M628 254.8h3.4v14.6H628z"/><path class="st0" d="m643.5 262.5-7.3-12.6-1.4.8-1.5.9 7.3 12.6 2.9-1.7z"/><path class="st1" d="m624.5 256.6 2.9-1.7-34.7 20 7.3 12.7 3.6-2.1 5.1-2.9 26.1-15-2.9 1.7-7.4-12.7zm-6.5 20.7c-4.3 2.5-8 .8-10-2.7s-1.7-7.5 2.7-10c.9-.5 1.7-.9 2.4-1.3-3.9 2.6-4.1 6.2-2.2 9.6 1.9 3.3 5.4 4.8 9.3 2.9-.6.5-1.3.9-2.2 1.5z"/><path class="st1" d="m632 249.4-5.8 3.4 1.3 2.1 7.3 12.7 1.2 2.1 5.8-3.4-1.2-2.1-7.3-12.6zM688.8 215.9c-.5-.9-1.6-1.2-2.5-.7l-12.4 7.2c-.8.5-1.1 1.5-.7 2.3v.2c.1.1.2.2.4.3.6.6 1.4.8 2.1.4l10.8-6.2.7 1.2 2.2 3.8.6-.3c1.4-.8 3.2-.3 4 1.1.8 1.4.3 3.2-1.1 4l-.6.3 2.2 3.8.7 1.2-10.8 6.2c-.7.4-.9 1.3-.7 2.1 0 .1 0 .3.1.4.3.4.7.7 1.1.9.5.1.9.1 1.4-.2l12.4-7.2c.9-.5 1.2-1.6.7-2.5l-10.6-18.3z"/><path class="st0" d="M610.9 272.9c-1.9-3.3-1.7-7 2.2-9.6-.7.4-1.5.7-2.4 1.3-4.4 2.5-4.7 6.5-2.7 10s5.7 5.2 10 2.7c.9-.5 1.6-1 2.3-1.4-3.9 1.8-7.5.3-9.4-3z"/><path class="st1" d="M374.6 402c-1-4-1.3-8.1-.3-12.4 1.7-6.9 6.1-12.8 12.2-16.4 2.2-1.3 4.5-2.1 6.8-2.7v-9.9l-159.4-87.7c-1.7.4-3.2 1.2-4.4 2.5-.8.9-1.2 2-1.7 3.1.8 1.3 1.6 2.8 2 4.5.1.6-.1 1.2 0 1.8.5 4-.5 8.2-3.4 12.8l-.1.1c-.3.3-4.5 4.6-11.2 5.6-2.3 1.1-4.2 2.8-5 5.3-.3 1-.3 1.9-.3 2.9L347.9 395l18.5 11.7 1-.6 6-3.5 1.2-.6zM420.2 414.7l-.8-.5c-6.2 6.6-15.4 10-24.9 7.9-.5-.1-.9-.2-1.4-.4-4.8-1.3-8.7-4.1-11.9-7.6l-1 .6-6 3.5-.4.3.6 10 3.2 109.7c.8.5 1.7 1 2.8 1.2 2.6.6 5-.2 7.1-1.6 4.3-5.4 10.2-6.9 10.5-6.9h.1c5.4-.2 9.6 1.1 12.8 3.5.5.3 1.1.5 1.5.9.5.4.6 1 1 1.4.3.4.5.8.8 1.2.3.5.7.9.9 1.4 1.2.2 2.4.4 3.7.1 1.8-.4 3.2-1.4 4.5-2.7l3-99.3.9-18.5-.8-.5-6.2-3.7z"/><path class="st0" d="m422.5 410.7 6 3.5c.8-1.3 1.2-2.9 1.9-4.3l-5.7-3.3c-.6 1.5-1.3 2.8-2.2 4.1zM400.2 369.5c.8 0 1.6 0 2.4.1v-7c-1.6-.1-3.1 0-4.7.1v7c.8-.2 1.5-.2 2.3-.2zM375.7 406.6l-6 3.5c.7 1.4 1.3 2.8 2.2 4.2l6-3.5c-.8-1.4-1.5-2.8-2.2-4.2z"/></svg>