<svg version="1.1" id="Calque_10" xmlns="http://www.w3.org/2000/svg" x="0" y="0" viewBox="0 0 800 800" style="enable-background:new 0 0 800 800" xml:space="preserve"><style>.st0{fill:#fff}.st1{fill:#c2c2c2}</style><path class="st0" d="M542.1 237.7c-1.3 0-2.3-.2-3.4-.4.7 5.7 1.2 11.5 1.2 17.4 0 3.3-.4 6.5-.6 9.7 2.3-.6 5.2-1.1 8.8-1.1 2.2 0 4.4.2 6.3.4 2.8.4 7 1 11.1 2.3.2-3.8.7-7.5.7-11.4 0-7.2-.6-14.2-1.5-21.1-5.2 2.2-11 2.9-12.2 3-.2.1-5.2 1.2-10.4 1.2zM332.8 445.1c-26.6-47.8-53.7-96.7-66.3-142.2-3.2 1.7-7.5 3.1-13.7 4.4l-4.5 1c-2.7.6-5 1.1-7.1 1.4 13.5 48.6 41.3 99 68.7 148.2 28.1 50.6 56.7 102.5 67.5 149.3h26.9c-10.6-52.3-41.4-107.9-71.5-162.1zM547.2 307.2c-5.6-1.2-9.8-2.5-12.9-3.9-10.8 49-35.9 95-60.3 139.9-28.3 51.9-57.1 105.3-65.1 163.9h26.5c8-52.2 34.1-100.6 61.7-151.4 25.3-46.4 51.2-94 62.8-146-2.4-.3-4.9-.8-8.1-1.5l-4.6-1zM251.9 263.4c3.2 0 5.7.4 7.9.9-.2-3.2-.7-6.5-.7-9.6 0-5.9.5-11.6 1.2-17.3-1.1.1-1.9.3-3.2.3-5.1 0-9.9-1-9.7-1-1.7-.1-7.7-.9-13-3.1-.9 7-1.5 14-1.5 21.1 0 3.9.6 7.8.8 11.7 4.3-1.5 9-2.2 12-2.6 1.8-.3 4-.4 6.2-.4zM273.2 207.4l-9.4 4 5.4 9c-.1.4-.2.9-.3 1.4 1.2-4.9 2.6-9.7 4.3-14.4zM472.6 110.1l14.9-3.9c-4.4-2.6-9-5.1-13.6-7.3-2.6-1.3-5.4-2.3-8.1-3.4.4.2.9.4 1.3.6l5.5 14zM542.3 182.7l16.5 6.9c-3.6-8.7-8-17-12.9-25l.6.9-4.2 17.2z"/><path class="st0" d="M231.8 214.8c.5-2.1.9-4.3 1.5-6.4l14.3 23.6c-.1 0-.7-.1-1.3-.1.8.1 1.4.1 1.4.1s4.6 1 9.4 1c1.3 0 2.6-.1 3.9-.3.4-.1.7-.1 1.1-.2.4-.1.9-.2 1.3-.3.6-.2 1.1-.6 1.7-.9.3-.2.6-.3.8-.5.7-.6 1.2-1.3 1.5-2.2.1-.6.3-1.3.5-1.9l-10.5-17.6 18.5-7.8c2.3-5.4 4.8-10.6 7.8-15.5l-5-20.8 21.6-1.5c3.2-3.5 6.6-6.8 10.1-9.9l1.5-23.6 23.2 6.2c3.5-1.9 7.1-3.7 10.8-5.3-.4.2-.8.3-1.2.5l9.1-23.9 21.6 14.3c-.8.2-1.7.4-2.5.6 3.5-.7 7.1-1.3 10.7-1.7l16.6-21 17 21.4c2.4.3 4.8.6 7.2 1.1l22.2-14.7 9.6 25.3c3.8 1.8 7.4 3.7 11 5.8-1.1-.7-2.1-1.5-3.3-2.1l24.5-6.5 1.6 25.6c2.8 2.5 5.5 5 8.1 7.7l23.5 1.7-5.5 23.2c3 5.2 5.6 10.6 7.9 16.3-.5-1.3-.9-2.7-1.5-3.9l20.4 8.6-11.1 18.7c.1.3.2.5.2.8.3.9.8 1.6 1.5 2.2.2.2.6.3.9.5.5.3 1 .7 1.6.9.4.1.9.2 1.3.3.3.1.6.1.9.2 1.3.2 2.7.4 4.1.4h.9c-1.7 0-3.4-.1-5-.3l16.1-26.6-31.3-13 8.2-33.9-33.6-2.4-2.3-34.8-32.6 8.5L450 98.1l-28.5 18.6L400 89.9l-21.6 26.8L350 98.1l-12.5 32.4-32.6-8.5-2.3 34.8-33.6 2.4 8.2 33.9-31.3 13 16 26.5c-1.6.4-3.3.5-5 .5l-17.7-29.2 32.6-13.6-8.6-35.3 35-2.5 2.4-36.4 34 8.9 13.1-33.9 29.8 19.4 22.5-28 22.5 28 29.8-19.4 13.1 33.9 34-8.9 2.4 36.4 35 2.5-8.6 35.3 32.6 13.6-17.6 29.2c4.4-.1 8.4-1 8.4-1s2.7-.2 6.1-.9c.3-.1.6-.2.9-.2-2.5.6-4.8.9-6 1.1L566 210c-1.4-4.4-2.8-8.9-4.1-12.5-.2-.7-.4-1.2-.6-1.8L537 185.4l6.1-25.4c-1.2-1.9-2.2-3.8-3.5-5.7-1.9-2.7-4.1-5.1-6.1-7.7l-24.8-1.7-1.6-25c1.4 1.1 2.8 2.2 4.2 3.4-5.9-5-12.2-9.6-18.6-13.7l-22.9 6-8.5-22.1c-6.6-2.5-13.4-4.6-20.3-6.3.7.2 1.5.3 2.2.5L424 100.2l-14.2-17.7c-3.5-.2-7.1-.5-10.6-.5-5 0-10.1.2-15.1.7-7.6.7-15 2-22.4 3.6.3-.1.6-.1.9-.2l12.3 8 9.2-11.4c2-.2 4.1-.2 6.1-.3L376 100.2l-19.5-12.8c-.6.1-1.2.2-1.7.4-5.3 1.4-10.5 3.1-15.7 5.1l-8.8 22.7-23.9-6.3c-4.6 2.9-9 6.1-13.3 9.4l-1.7 26.2-26.6 1.9c-2.9 3.7-5.7 7.5-8.3 11.4l6.6 27.2-25.8 10.8c-.1.2-.1.3-.2.5-2.9 8.1-5.3 16.4-6.9 24.9-.3 1.1-.2 2.2.2 3.1.7 1.9 2.4 3.3 4.6 4.3 2.1 1 4.5 1.7 6.6 2.2h.1l-9.9-16.4z"/><path class="st0" d="M558.5 230.9c1.8-.4 3.8-1 5.5-1.9.1-.1.2-.1.3-.1 2.1-1.1 3.8-2.4 4.5-4.3.3-.9.4-1.9.2-3.1-.3-1.4-.6-2.9-1-4.6-.1-.3-.2-.7-.3-1v-.1l-9.2 15.1zM315.9 135.9l-.9 13.5c4.5-3.6 9.3-6.9 14.3-10l-13.4-3.5zM400 107.2l-10.3 13c3.1-.2 6.3-.4 9.5-.4 5.1 0 10 .7 15 1.3-1.2-.1-2.3-.2-3.5-.3L400 107.2zM530 221.8l6.2-10.4-11.5-4.9c1.3 3.5 2.9 6.8 4 10.4.4 1.6.8 3.3 1.3 4.9zM284.2 169.3l2.7 11.3c2.8-4.2 5.7-8.3 8.9-12.1l-11.6.8zM515.8 169.3l-13.8-1c3.8 4.5 7.4 9.2 10.6 14.2l3.2-13.2zM425 94l11.9-7.8c-2.3-.5-4.5-1.1-6.8-1.6-4.7-.8-9.4-1.5-14.1-1.9l9 11.3zM513 140.7l16.6 1.2c-5.3-6.2-10.8-12.1-17-17.5-.2-.2-.5-.4-.7-.6l1.1 16.9zM484.1 135.9l-15 4c5.6 3.5 11 7.2 16 11.4l-1-15.4zM355.8 114.5l-5.5 14.5c6.1-2.4 12.3-4.3 18.7-5.8l-13.2-8.7zM257.6 182.7l-4.6-19.2 1.5-2.4c-.3.4-.5.8-.8 1.2-2.1 3.4-4.1 6.9-6 10.4-3.1 5.7-5.8 11.5-8.2 17.5l18.1-7.5zM287 140.7l1.2-18.1c-7.1 6-13.6 12.5-19.5 19.4l18.3-1.3zM327.4 110.1l5.7-14.9c1-.4 1.9-.8 2.9-1.2-7.8 3.1-15.4 6.6-22.6 10.7l-1.8 1.2 15.8 4.2zM444.2 114.5l-14 9.3c-.9-.2-1.8-.4-2.7-.7 7.8 1.7 15.4 4.1 22.7 7.2l-6-15.8zM240.8 305l-9.7-8.4c.3 1.3.3 2.6.6 3.9.5 1.9 1.3 3.1 2.2 3.9.5.4 1.2.3 1.8.5.7.2 1.2.6 2 .6.8-.1 2-.4 3.1-.5zM238.1 269.8c-6.8 1.7-10.4 4.2-10.1 8.3 0 .1 0 .3.1.4l10-8.7zM262.2 286.2l6.2 5.4c0 .2 0 .3.1.5-.8-3.4-1.1-6.7-1.7-10l-4.6 4.1z"/><path class="st0" d="m244 286.2 16.4 14.2c-1.5.5-3.4 1-5.3 1.5 6.1-1.5 10-3.3 11.9-5.3l-11.8-10.4 10.7-9.4c-.1-.8-.3-1.7-.4-2.6-.1-1.4-.9-2.5-2-3.4-.3-.3-.7-.4-1.1-.6l-18.4 16z"/><path class="st0" d="M228.9 283.8c.5 3.9 1.1 7.8 1.9 11.8-.4-2-.7-4-1-6.1l16.7 14.5c1.7-.4 3.2-.7 5.3-1.2 1.3-.3 2.2-.6 3.3-.9L237 286.2l20.5-17.7c1.9.3 3.6.9 4.9 1.7-.7-.4-1.5-.7-2.3-.9v-.1c-2.4-.8-5.3-1.1-8.3-1.1-2 0-3.9.1-5.7.4h.6l-17.8 15.3zM572 278.3v-.2c.2-2.8-1.4-4.8-4.4-6.4-1.4-.7-3.2-1.3-5.3-1.8l9.7 8.4zM531.5 291.9l6.4-5.7-4.8-4.2c-.5 3.4-.9 6.7-1.7 10.2.1-.1.1-.2.1-.3z"/><path class="st0" d="M570 290c-.4 2.2-.6 4.5-1.1 6.7l-9.5 8.3c-1.6-.2-3.6-.5-5.8-1l16.5-14.3c.5-3.1 1.2-6.3 1.5-9.4-.2 1.1-.4 2.2-.5 3.3l-17.7-15.3h.4c-1.8-.2-3.7-.4-5.7-.4-3.2 0-6.5.4-9.1 1.3v.3c-.5.2-1 .3-1.4.6 1.4-.8 3.1-1.4 5-1.7l20.5 17.8-18.1 15.7c-1.9-.5-3.8-.9-5.3-1.4l16.5-14.3-18.6-16.1c-.4.2-.8.4-1.1.7-1.1.9-1.9 2-2 3.4-.2 2.2-.8 4.6-1.1 6.9.3-1.5.6-3 .7-4.5l10.9 9.5-12 10.6c.6.6 1.2 1.2 2.2 1.8 2.8 1.6 7 3 13 4.3 6.4 1.4 10.9 2.7 14.1 2.7 1.1 0 1.9-.4 2.7-.8.3-.1.8-.1 1.1-.3 1-.8 1.7-2 2.2-3.9.8-3.6 1.2-7 1.7-10.5z"/><path class="st1" d="M377.3 611.7c-.7 0-1.3.4-1.9.8-1.1.7-1.9 1.7-1.9 3v1.2c0 2.1 1.7 3.8 3.8 3.8h58.5c2.1 0 3.8-1.7 3.8-3.8v-1.2c0-1-.4-2-1.1-2.7-.7-.7-1.6-1.1-2.7-1.1h-58.5z"/><path class="st0" d="m423.5 638.4-16.7 16.7-16.7-16.7-16.7 16.7-12-12c-.2.3-.6.5-.8.9-4.7 7.4-7.5 16.8-7.5 28.5 0 5.6 1.2 11 3.1 16l.5-.5 16.7 16.7 16.7-16.7 16.7 16.7 16.7-16.7 16.7 16.7 16.7-16.7.6.6c-1.5 4-3.4 7.8-5.8 11.3 1.9-2.6 3.5-5.3 4.8-8.1 2.7-5.9 4.2-12.4 4.2-19.3 0-2.8-.2-5.5-.5-8-.2-1.7-.7-3.4-1-5l-2.3-2.3-16.7 16.7-16.7-16.7-16.7 16.7-16.7-16.7-16.7 16.7-16.7-16.7-1.9 1.9c.6-2.9 1.6-5.4 2.7-7.9l16 16 16.7-16.7 16.7 16.7 16.7-16.7 16.7 16.7 16.2-16.2c-1.2-2.8-2.7-5.3-4.4-7.6l-11.8 11.8-16.8-16.8zm-66.7 30.9 16.7 16.7 16.7-16.7 16.7 16.7 16.7-16.7 16.7 16.7 16.7-16.7 3.7 3.7c0 2.1-.4 4-.7 6l-3.1-3.1-16.7 16.7-16.7-16.6-16.7 16.7-16.6-16.7-16.7 16.7-16.7-16.7-2.9 2.9c-.3-2-.6-4-.7-6l3.6-3.6z"/><path class="st0" d="m406.9 711.4-16.7-16.7-16.4 16.4c-.7-.5-1.4-1-2.1-1.6l-8.1-8.1c.6.8 1.3 1.5 2 2.2 2.1 2.4 4.4 4.5 6.9 6.5 9.4 7.3 21.3 11.9 34.6 11.9 12.6 0 24-4.1 33.1-10.8l-16.5-16.5-16.8 16.7zM432.4 627.8c-3.8-1.6-15-2.5-26.1-2.5-11.1 0-22.1.8-26.1 2.5s-7.7 3.9-11 6.6c-2.9 2.4-5.3 5.3-7.5 8.4.9-1.2 2-2.2 3-3.3l8.9 8.9 16.7-16.7 16.7 16.7 16.7-16.7 16.7 16.7 8.8-8.8c-1.6-1.8-3.3-3.4-5.1-4.9-1.7-1.4-3.6-2.7-5.5-3.8-2.1-1.1-4.1-2.2-6.2-3.1z"/><path class="st1" d="m456.9 688-16.7 16.7-16.7-16.7-16.7 16.7-16.6-16.7-16.7 16.7-16.7-16.7-.5.5c.8 2.2 1.8 4.2 2.9 6.3.3.5.5.9.8 1.4 1.1 1.8 2.2 3.6 3.5 5.3l8.1 8.1c.7.6 1.4 1.1 2.1 1.6l16.4-16.4 16.7 16.7 16.7-16.7 16.5 16.5c.4-.3.8-.6 1.3-1l10.4-10.4c2.5-3.5 4.3-7.3 5.8-11.3l-.6-.6z"/><path class="st1" d="m353.9 678.9 2.9-2.9 16.7 16.7 16.7-16.7 16.7 16.7 16.7-16.7 16.7 16.7L457 676l3.1 3.1c.3-2 .6-4 .7-6l-3.7-3.7-16.9 16.6-16.7-16.7-16.6 16.7-16.7-16.7-16.7 16.7-16.7-16.7-3.5 3.5c0 2.1.3 4.1.6 6.1z"/><path class="st1" d="m423.5 650.5-16.7 16.7-16.7-16.7-16.7 16.7-16-16c-1 2.5-2 5.1-2.7 7.9l1.9-1.9 16.7 16.7 16.7-16.7 16.7 16.7 16.7-16.7 16.7 16.7 16.7-16.7 2.3 2.3c-.7-3-1.6-5.8-2.7-8.4l-16.2 16.2-16.7-16.8z"/><path class="st1" d="m423.5 631.7-16.7 16.7-16.7-16.7-16.7 16.7-8.9-8.9c-1 1.1-2.1 2.1-3 3.3l-.2.2 12 12 16.7-16.7 16.7 16.7 16.7-16.7 16.7 16.7 11.8-11.8c-.9-1.3-1.9-2.6-2.9-3.8l-8.8 8.8-16.7-16.5zM560.8 203.9l-32.6-13.6 8.6-35.3-35-2.5-2.4-36.4-34 8.9-13.1-33.9-29.8 19.4-22.5-28-22.5 28-29.8-19.4-13.1 33.9-34-8.9-2.4 36.4-35 2.5 8.6 35.3-32.6 13.6 17.7 29.2c1.7 0 3.5-.2 5-.5l-16-26.5 31.3-13-8.2-33.9 33.6-2.4 2.3-34.8 32.6 8.5L350 98.1l28.5 18.6L400 89.9l21.6 26.8L450 98.1l12.5 32.4 32.6-8.5 2.3 34.8 33.6 2.4-8.2 33.9 31.3 13-16.1 26.6c1.6.3 3.3.4 5 .3h.1l17.7-29.1z"/><path class="st1" d="m275.7 201.4-18.5 7.8 10.5 17.6c.2-.9.4-1.8.7-2.7.2-.8.4-1.5.5-2.3.1-.4.2-.9.3-1.4l-5.4-9 9.4-4c.8-2 1.7-4 2.5-6zM531.7 227.9l11.1-18.7-20.4-8.6c.6 1.3 1 2.6 1.5 3.9.2.7.5 1.3.8 2l11.5 4.9-6.2 10.4c.5 1.7 1 3.4 1.4 5.2l.3.9zM502 168.3l13.8 1-3.2 13.2c1.2 1.9 2.2 3.8 3.3 5.7l5.5-23.2-23.5-1.7c1.5 1.7 2.8 3.4 4.1 5zM389.7 120.1l10.3-13 10.7 13.5c1.2.1 2.3.2 3.5.3.9.1 1.9.1 2.8.2l-17-21.4-16.6 21 6.3-.6zM427.5 123.1c.9.2 1.8.5 2.7.7l14-9.3 6 15.8c2 .8 3.9 1.6 5.9 2.6l-9.6-25.3-22.2 14.7c1 .2 2.1.5 3.2.8zM469.1 139.9l15-4 1 15.4c1.7 1.4 3.3 2.9 4.9 4.3l-1.6-25.6-24.5 6.5c1.1.6 2.2 1.4 3.3 2.1.5.5 1.2.9 1.9 1.3zM300.1 163.6l-21.6 1.5 5 20.8c1.1-1.8 2.2-3.5 3.4-5.3l-2.7-11.3 11.6-.8c1.4-1.7 2.8-3.3 4.3-4.9zM334.9 136.2l-23.2-6.2-1.5 23.6c1.6-1.4 3.2-2.8 4.8-4.1l.9-13.5 13.4 3.6c1.8-1.2 3.7-2.3 5.6-3.4 0 .1 0 .1 0 0zM355.8 114.5l13.2 8.7c1.2-.3 2.5-.6 3.7-.8.8-.2 1.7-.4 2.5-.6l-21.6-14.3-9.1 23.9c.4-.2.8-.3 1.2-.5 1.3-.6 2.7-1.1 4-1.7l.6-.3 5.5-14.4zM263 185.4l-6.6-27.2c-.7 1-1.3 2-1.9 2.9l-1.5 2.4 4.6 19.2-18.2 7.6c-.8 1.9-1.5 3.9-2.2 5.9l25.8-10.8zM537 185.4l24.1 10.1v-.1c-.6-1.6-1.1-2.9-1.5-3.9 0-.1-.1-.2-.1-.3-.4-.9-.6-1.6-.7-1.6l-16.5-6.9 4.2-17.2-.6-.9c-.9-1.5-1.8-3-2.8-4.5l-6.1 25.3zM241.7 231.2c1.5.3 2.8.5 3.8.6.4.1.5.1.8.1.6.1 1.2.1 1.3.1l-14.3-23.6c-.6 2.1-1 4.2-1.5 6.4l9.9 16.4zM565.9 209.9 552.5 232c1.2-.1 3.5-.5 6-1.1l9.1-15.1c-.5-1.9-1.1-3.9-1.7-5.9zM469.8 115.6l22.9-6c-1.7-1.1-3.4-2.3-5.2-3.4l-14.9 3.9-5.5-14.1c-.4-.2-.9-.4-1.3-.6-1.5-.7-3-1.4-4.6-2l8.6 22.2zM376 100.2l14.3-17.8c-2 .1-4.1.1-6.1.3L375 94l-12.3-8c-.3.1-.6.1-.9.2-.2 0-.3.1-.5.1-1.6.3-3.3.7-4.9 1.1l19.6 12.8zM424 100.2l19.1-12.5c-.7-.2-1.5-.3-2.2-.5-1.4-.3-2.7-.6-4.1-.9L425 94l-9-11.2c-2-.2-4.1-.3-6.1-.4h-.1l14.2 17.8zM330.2 115.6l8.8-22.7-3 1.2c-1 .4-1.9.8-2.9 1.2l-5.7 14.9-15.9-4.2c-1.8 1.1-3.5 2.2-5.3 3.4l24 6.2zM508.7 145l24.8 1.7c-1.3-1.6-2.5-3.3-3.9-4.9l-16.6-1.2-1.1-16.9c-.2-.2-.4-.3-.6-.5-1.4-1.2-2.8-2.2-4.2-3.4l1.6 25.2zM291.3 145l1.7-26.2c-1.4 1.1-2.8 2.1-4.2 3.2-.2.2-.4.4-.7.6l-1.2 18.1-18.4 1.3-3.9 4.8 26.7-1.8zM257.5 268.5 237 286.2l18.1 15.7h.1c1.9-.5 3.8-.9 5.3-1.5L244 286.2l18.5-16h-.1c-1.3-.8-2.9-1.4-4.9-1.7zM537.6 270.2l18.6 16.1-16.5 14.3c1.5.5 3.4 1 5.3 1.4l18.2-15.7-20.5-17.8c-2 .3-3.7.9-5.1 1.7 0-.1 0-.1 0 0z"/><path class="st1" d="m255.3 286.2 11.8 10.4c.6-.6 1-1.2 1.2-1.9.3-.8.4-1.6.2-2.5 0-.2 0-.3-.1-.5l-6.2-5.4 4.6-4.1c-.3-1.8-.7-3.6-.9-5.3l-10.6 9.3zM544.9 286.2l-10.9-9.5c-.2 1.5-.5 3-.7 4.5 0 .3-.1.6-.1.9l4.8 4.2-6.4 5.7v.3c-.3.9-.2 1.7.2 2.5.3.7.7 1.4 1.3 2l11.8-10.6zM228.9 283.8l17.9-15.5h-.6c-3.1.4-5.8.9-8.1 1.5l-10 8.7c.1.9.3 1.9.5 2.9l.3 2.4zM229.9 289.5c.3 2 .6 4 1 6.1.1.3.1.7.2 1l9.7 8.4c1.6-.2 3.5-.6 5.7-1l-16.6-14.5zM553.6 304c2.2.5 4.1.8 5.8 1l9.5-8.3c.5-2.3.7-4.5 1.1-6.7 0-.1 0-.2.1-.3L553.6 304zM562.3 269.9c-2.4-.6-5.2-1.2-8.4-1.6h-.4l17.7 15.3c.1-1.1.3-2.2.5-3.3v-.1c.1-.6.3-1.3.3-1.9l-9.7-8.4z"/></svg>