<svg version="1.1" id="Calque_4" xmlns="http://www.w3.org/2000/svg" x="0" y="0" viewBox="0 0 800 800" style="enable-background:new 0 0 800 800" xml:space="preserve"><style>.st0{fill:#c2c2c2}.st1{fill:#fff}</style><path class="st0" d="M276.6 233.8c-2.8.2-5.2 1.2-6.4 3.7-.4.9-.7 1.7-.9 2.5l-.3-.3v7.8c.1 0 .3.1.4 0 .1 0 .2 0 .3-.1-.2.1-.5.1-.7.2v4.7c3.3-.6 5.9-2.3 7.9-4.2 4.1 1.3 7.8 2.8 8 9.8.1 2.3-.1 4.2-.4 6-3 .7-5.4 2.6-6.2 5.5-.3.9-.5 2-.6 3.1-.3-.3-.7-.6-1.1-.9-2.3-1.5-5-1.3-7.6-.2v12.7h.2c-.1.1-.1.2-.2.4v19c1.1 1.6 2.3 3.1 3.7 4.2-.1.2-.1.4-.1.6-1.3-.9-2.5-2.1-3.6-3.6v6h27.6c3-2.2 5.7-5.6 7.4-10.3 3.4.1 5.9 1.3 7.6 5.5.1.3.1.5.2.8-3.1.7-5.6 2.2-7.3 4H321c3 0 5.5-.3 7.8-.8-2.3-1.4-4.6-2.4-7-3-.3-1.6-.5-3.1-.9-4.8-2.6-9-8.9-13.9-15.1-15.6 0-.9 0-1.6-.1-2.6-1.1-10-6.4-16.2-12.2-18.8.5-2.2.8-4.7.9-7.4.5-10.6-4.4-18.3-10.2-21.9 1.7-6.7 1.3-16-6.4-27.3-.5-.8-1.1-1.1-1.6-1.8-.9 3.7-2.1 7.2-3.4 10.4 3.8 5.6 5.2 11.2 3.8 16.7zm-4.3 41c.6 0 1.2.2 1.8.6.2.1.1.2.3.3-.7.2-1.1.5-1.8.6-.8.1-1.7-.1-2.7-.3.6-.6 1.4-1.2 2.4-1.2zm-1.6 23.1c-2.4-5.9 1.1-10 4.5-13.9 3.6-.5 7.8-2 11.4-5.6 4.3.3 8.3.9 9.6 7.5v.5c-3.8 1.1-6.4 3.7-7 7.1-.2 1.5-.2 2.7 0 3.7-.5-.4-1.2-.7-1.9-1-3.9-1.5-8.2 0-11.4 4.1-.7.9-1.1 2.1-1.7 3.1-1.3-1.5-2.6-3.2-3.5-5.5zm23.2-1.5s-.3-.5 0-2.3c.2-1.3 1.3-2.2 2.8-2.9 0 1.9-.2 3.6-.6 5.2-1 .2-1.9.2-2.2 0zm-15.9 9.7c.5-1.1.9-2.2 1.6-3.1.8-.9 2.6-2.9 4.8-2.9.4 0 .9.1 1.4.3 1 .4 1.2.7 1.2.7.2.7-1.6 3.4-2.6 4.8-.3.4-.6 1-.9 1.4-1.8.1-3.6-.2-5.5-1.2zm12.6-1.5c.7-1.5 1.2-2.9.9-4.3.8.4 1.7.5 2.6.6-.9 1.4-2.1 2.7-3.5 3.7zm25.8-1.3c.3 1.1.3 1.9.5 2.9h-.5c-.2-.7-.3-1.3-.6-2.1-2.4-6.2-6.6-8-10.6-8.4.3-1.5.6-3 .6-4.7 4.5 1.8 8.7 5.7 10.6 12.3zm-15.4-19c.1.5.1 1 .1 1.5h-.2c-.1-.3-.1-.6-.1-.9-1.6-8-6.5-10.2-10.9-10.9.8-1.3 1.5-2.8 2.1-4.5 4 2.1 8.2 6.7 9 14.8zm-11.3-26.9c0 .6-.1 1.3-.1 1.9v-1.7c-.3-8.7-5.2-11.7-9.4-13.3.1-.1.2-.2.2-.3.7-1.1 1.5-2.5 2.2-4 3.8 2.9 7.5 8.6 7.1 17.4zM510.2 310.7c-3.5-3.1-8.2-5.6-14.1-6 1.7-3.2 3.9-4.3 6.9-4.4 1.7 4.8 4.5 8.1 7.5 10.4h21.7v-8.2c-.4-.7-.7-1.6-1.2-2.3-3.2-4.1-7.5-5.6-11.4-4.1-.7.3-1.4.6-1.9 1 .2-1 .2-2.3 0-3.7-.5-3.4-3.2-5.9-7-7.1v-.5c1.3-6.7 5.3-7.3 9.6-7.5 3.6 3.6 7.9 5.1 11.4 5.6.2.2.3.4.4.5V271c-.6.2-1.2.1-1.7.4-.4.3-.8.6-1.1.9 0-1.1-.3-2.2-.6-3.1-.8-2.9-3.2-4.8-6.2-5.5-.3-1.8-.5-3.8-.4-6 .2-6.9 3.9-8.5 8-9.8.6.6 1.3 1.1 2 1.6v-15.9c-.5-.1-1.1 0-1.7-.1-.9-3.6-.5-7.3.9-11.1-1.7-3.1-3.2-6.5-4.4-10.1-5.2 9.5-5.5 17.3-4 23.2-5.8 3.7-10.7 11.4-10.2 21.9.1 2.7.4 5.2.9 7.4-5.8 2.6-11.2 8.8-12.2 18.8-.1.9 0 1.7-.1 2.6-6.3 1.7-12.6 6.6-15.1 15.7-.4 1.5-.6 2.8-.8 4.1-1.8.6-3.6 1.3-5.6 2.3-1.1.6-1.8 1.4-2.7 2.1.3 0 .5.1.9.1h32.2zm-20.8-.4c0-.2.1-.4.1-.5h.2c0 .2-.1.3-.1.5h-.2zm6.5-1.1c-.4 0-.9.2-1.3.2 0-.1 0-.2.1-.3.6 0 1.2 0 1.8.1h-.6zm25.3-8.8c.5-.2.9-.3 1.4-.3 2.2 0 4 2 4.8 2.9.7.8 1.1 2 1.6 3.1-1.9 1-3.8 1.3-5.5 1.2-.3-.5-.6-1-.9-1.4-1-1.5-2.8-4.2-2.6-4.8 0 0 .1-.3 1.2-.7zm-5.7-.1c-.3 1.4.2 2.8.9 4.3-1.5-1-2.6-2.3-3.6-3.7 1 0 1.9-.1 2.7-.6zm-2.4-6.2c.3 1.8 0 2.3 0 2.3-.3.2-1.2.2-2.2.1-.4-1.6-.6-3.3-.6-5.2 1.4.6 2.6 1.5 2.8 2.8zm11.3-54.1c.7 1.5 1.4 2.9 2.2 4 .1.1.2.2.2.3-4.2 1.6-9 4.6-9.4 13.3v1.8c-.1-.6-.1-1.3-.1-2-.5-8.8 3.3-14.5 7.1-17.4zm-18.5 44.3c.9-8.1 5-12.7 9-14.8.6 1.7 1.3 3.2 2.1 4.5-4.4.7-9.3 2.9-10.9 10.9-.1.3-.1.6-.1.9h-.2c.1-.4.1-.9.1-1.5zm-15.3 19c1.9-6.7 6.1-10.5 10.6-12.1.1 1.7.4 3.1.6 4.6-4 .4-8.2 2.3-10.6 8.4-.1.2-.1.4-.2.7-.2 0-.5.1-.7.1.1-.6.1-1.1.3-1.7zM528.6 471.3c-2 .5-4.1 1.9-5.9 4.1-3.1 3.9-2.7 8.8-2 10.5.1.3.2.5.2.7-.5 0-1.2 0-1.9.2-1.5.3-3.3 1.9-5.9 5-.7.8-1 1.6-1.5 2.4-2.1-.7-4.9-.5-7.8.7-4.6 2.1-6.5 6.4-6.7 8.2 0 .3-.1.5-.1.7-.5-.3-1.1-.5-1.8-.6-1.5-.3-3.8.2-7.5 1.9-.3.1-.7.4-1 .6-1.4-1.3-3.4-2.4-5.9-2.9-4.9-1.1-9 1.3-10.3 2.5-.2.2-.4.3-.5.5-.3-.5-.6-1.1-1.1-1.6-1-1.2-3.2-2.1-7.1-2.9-1.3-.3-2.4-.3-3.6-.4-.5-2-1.9-4.2-4.2-6-4-3.1-8.7-2.7-10.4-2.1-.3.1-.5.2-.7.2 0-.6-.1-1.2-.3-1.9-.4-1.5-2.1-3.3-5.2-5.7-.9-.7-2-1.4-3.1-2 .8-2.2.6-5.3-1-8.4-2.4-4.5-6.8-6.1-8.6-6.2-.3 0-.5-.1-.7-.1.2-.5.4-1.1.5-1.9.2-1.5-.5-3.8-2.3-7.3-.3-.6-.8-1.3-1.2-2.1 1-2.1 1.2-5 .3-8-1.4-4.8-5.5-7.3-7.2-7.8-.3-.1-.5-.1-.7-.2.3-.5.6-1 .9-1.7.5-1.5.3-3.8-.9-7.6-.4-1.3-1-2.8-1.7-4.2.9-1.8 1.3-4 1.1-6.4-.3-5-3.7-8.3-5.3-9.2-.2-.1-.4-.3-.6-.4.4-.4.9-.9 1.3-1.5.8-1.2 1.1-3.6.9-7.3 4.1-2.3 7.1-5.5 9.2-8.8 3.7 3.2 8.7 5.5 14.8 5.5 1.3 0 2.6-.1 3.9-.3 13.5-2.1 19.1-10.5 21.6-17.9 2.8 1.3 6 2.3 9.5 2.3 3.7 0 7.7-.9 11.7-3.1 10.3-5.7 13.4-14 13.9-21.1 1 .1 2 .3 3.1.3 5.7 0 12-2.1 17.2-7.6.1-.1.1-.2.2-.3H507c-4.4 2.9-9.2 3.8-13.2 3-.1-1.1-.2-2-.4-3h-11.9c.8 1.6 2.1 3 3.8 4.3-.5 5.1-3.1 11-8.9 14.2-5.4 2.9-9.2-.4-14-5.2-.9-.9-1.8-1.7-2.7-2.5-.7-2.7-1.8-5.4-3.6-8 0-.8.1-1.6.1-2.5 0-1.4.1-2.8.2-4-1.5-.6-2.9-1.4-4.3-2.1-.2 1.4-.4 2.7-.4 4-1.4-1.2-3.1-2.2-5-3.1.3-1.1.5-2.2 1-3.2-1.3-.8-2.4-1.8-3.6-2.7-.7 1.4-1.2 2.8-1.6 4.3-1.6-.5-3.1-1-4.9-1.4-11.7-2.2-20.8 4.3-24.7 11.7-1.5-1-3-2.1-4.9-3-7.9-3.9-15.7-2.7-21.6.5-1.8-2.6-4.1-5.2-7.3-7.7-5.7-4.4-11.9-5.4-17.5-4.6-.5-1.1-1-2.2-1.7-3.4-1.1 1.1-2.4 2-3.7 3 .2.4.7.9.9 1.4-.2.1-.4.1-.6.1-.2-.4-.6-.7-.9-1.1-1.2.9-2.4 1.9-3.7 2.8.1.2.3.4.4.6-.6.4-1.2.6-1.7 1-4.7 3.7-6.6 8.7-4.8 12.6.7 1.5 1.5 2.6 2.3 3.3-.9-.1-1.8.1-2.9.4-3.5 1-6 3.8-7.2 7.5-3.3.2-6.8-.1-10.2-2.2-3.8-2.3-4.3-5.6-3.7-9.8 1.5-.7 2.8-1.4 3.8-2.1 1.6-1 3.4-2.4 5.1-4-3.4.6-6.9 1-10.7 1h-19.7c2.1 1.3 4.3 2.2 6.6 2.7 0 .3-.1.6-.1.9-3-.3-6.2-1.4-9.4-3.6h-7.2s0 .1.1.1c5.8 5.7 11.7 7.8 17.2 8.1 1.3 5.5 4.5 11.1 10.9 14.9 5.1 3 9.8 4.1 14 4.1 1.2 0 2.2-.3 3.3-.5 1.7 6.5 6.5 13.2 15.4 16.1 3.4 1.1 6.5 1.6 9.4 1.6 4.6 0 8.3-1.4 11.5-3.2 2.9 6.1 9 11.8 18.3 12.9 1.4.2 2.7.3 4 .3.9 0 1.8-.2 2.6-.3.1 1.9.3 3.4.8 4.2.4.6.8 1.1 1.3 1.5-.2.1-.4.3-.6.4-1.6.8-4.9 4.2-5.3 9.2-.1 2.4.3 4.6 1.1 6.4-.7 1.4-1.3 2.9-1.7 4.2-1.1 3.8-1.4 6.2-.9 7.6.2.7.6 1.2.9 1.7-.2.1-.4.2-.7.3-1.7.5-5.8 3-7.2 7.7-.9 3.1-.8 6.1.3 8.2-.4.7-.9 1.3-1.3 1.9-1.9 3.5-2.6 5.8-2.3 7.3.1.7.3 1.3.5 1.9-.2.1-.4.1-.7.1-1.8.1-6.2 1.7-8.6 6.2-1.6 3.1-1.9 6.2-1 8.4-1.1.6-2.2 1.3-3.1 2-3.1 2.4-4.8 4.2-5.2 5.7-.2.7-.3 1.3-.3 1.9-.2 0-.4-.1-.7-.2-1.7-.6-6.4-1-10.4 2.1-2.3 1.8-3.7 3.9-4.2 6-1.1.1-2.3.1-3.6.4-3.9.9-6.1 1.8-7.1 2.9-.5.5-.8 1.1-1.1 1.6-.2-.1-.3-.3-.5-.5-1.3-1.3-5.4-3.7-10.3-2.5-2.4.5-4.5 1.6-5.8 2.9-.4-.2-.7-.4-1.1-.6-3.7-1.6-6-2.2-7.4-1.9-.7.2-1.3.4-1.8.6-.1-.2-.1-.4-.1-.7-.2-1.8-2.2-6.1-6.7-8.2-2.8-1.3-5.6-1.4-7.7-.8-.5-.8-1-1.6-1.6-2.4-2.5-3.1-4.3-4.7-5.9-5-.7-.2-1.4-.2-2-.2 0-.2.1-.4.2-.7.7-1.7 1.2-6.6-2-10.5-1.7-2.1-3.7-3.5-5.7-4-.3-1.4-.9-3-1.7-4.6-1.8-3.6-3.3-5.5-4.8-6.1-.7-.3-1.3-.4-1.9-.5.1-.2.2-.4.4-.6 1.2-1.6 2.9-6.5.6-11-1-1.9-2.4-3.4-3.9-4.4v2.4c.8.8 1.7 1.6 2.3 2.8 1.9 3.7.4 7.8-.5 9.1-.1.1-.1.2-.2.2.9-3.3.8-6.1-.5-8.7-.3-.6-.7-1.1-1.1-1.6v4.5c.3 1.3.3 2.8 0 4.3v12.7c.2.5.4 1.1.6 1.5.7 1.5 1.7 2.9 2.6 4.1-1.2 2.5-.5 6.2 2 9.4 1.9 2.3 4.5 3.8 7.7 4.3 1 .1 1.8.1 2.5-.1v1.3c-.1 2.4 2.6 6 3.7 7.4 1.5 1.9 3.3 3.4 5 4.3.2.6.4 1.2.8 1.9 1.1 1.6 3 3 5.1 4 2.7 1.2 5.6 1.4 8.7.5.9-.3 1.6-.6 2.2-1.1.2.3.4.7.6 1.2 1.1 2.1 5.1 4 6.7 4.8 1.6.7 3.1 1.2 4.5 1.5.6.7 1.5 1.2 2.6 1.6 1 .3 2.2.5 3.4.5 1 0 2.1-.1 3.1-.4 2.9-.6 5.4-2.3 7.3-4.8.6-.7.9-1.5 1.1-2.2.3.1.7.3 1.2.5 2.1 1.1 6.5.2 8.2-.2 2.2-.5 4-1.2 5.5-2 .4.2.7.6 1.3.7.3 0 .6.1.8.1 2.2 0 4.7-1 7-2.7 2.4-1.8 3.9-4.3 4.5-7.4.2-.9.2-1.7.1-2.5h1.1c.1 0 .3.1.3 0 2.3 0 5.9-2.6 7.3-3.7 2.3-1.8 3.8-3.6 4.7-5.2.2 0 .4 0 .6-.1 2.2-.7 4.5-2.8 6-5.7 1.4-2.6 1.7-5.5 1-8.6-.2-.9-.6-1.6-.9-2.3.3-.2.7-.4 1.2-.6 2.1-1 4.3-4.8 5.2-6.4.5-1 1-2.2 1.4-3.4 2.1-1 4.1-3.5 5.1-6.8.9-2.9.6-5.8-.6-8.7-.4-.9-.9-1.5-1.4-2 .3-.2.6-.5 1.1-.8 1.9-1.4 3.3-5.5 3.8-7.3.4-1.3.5-2.5.7-3.7.2 1.3.4 2.6.7 3.7.5 1.7 1.9 5.9 3.8 7.3.4.3.8.6 1.1.8-.5.6-1 1.2-1.4 2-1.3 2.9-1.5 5.9-.6 8.7 1 3.4 3 5.8 5.1 6.8.4 1.2.9 2.4 1.4 3.4.9 1.6 3 5.4 5.2 6.4.5.2.9.4 1.2.6-.4.6-.7 1.4-.9 2.3-.7 3.1-.3 6 1 8.6 1.1 2.1 2.6 3.8 4.3 4.9.7.5 1.4.5 2.1.7.8 1.6 2.3 3.5 4.8 5.4 1.4 1.1 5 3.7 7.3 3.7h1.3c-.1.7-.1 1.5.1 2.5.7 3.1 2.2 5.6 4.5 7.4 2.3 1.8 4.8 2.7 7 2.7.8 0 1.2-.5 1.9-.8 1.7.9 4 1.7 5.7 2 1.8.4 6.1 1.2 8.2.2.5-.2.9-.4 1.2-.5.2.7.6 1.5 1.1 2.2 1.9 2.5 4.4 4.1 7.3 4.8 1.1.2 2.1.4 3.1.4 1.2 0 2.3-.2 3.3-.5 1.2-.4 2-1 2.6-1.6 1.6-.4 3.2-.9 4.5-1.5 1.6-.7 5.6-2.7 6.7-4.8.2-.5.4-.8.6-1.2.6.4 1.3.8 2.2 1.1 3.1.9 6 .7 8.7-.5 3-1.4 5.1-3.5 5.9-5.6.2-.1.4-.1.6-.2 1.4-1 3-2.5 4.4-4.3 1.1-1.4 3.8-5 3.7-7.4v-1.3c.8.2 1.6.2 2.5.1 2.3-.4 4.1-1.4 5.8-2.7v-2.4c-1.5 1.7-3.5 2.8-6.1 3.2-.5.1-1 .1-1.4 0 .4-.2.8-.3 1.3-.5 1.7-.5 3.7-1.2 5.8-3.9.1-.2.2-.4.3-.5v-3.9c-.4 1.1-.9 2.2-1.7 3.3-1.8 2.2-3.4 2.8-5 3.3-.5.2-1 .3-1.5.6v-.2c-.1-2.9.6-5.2 2.1-7.1.7-.9 1.6-1.6 2.5-2.2.2.2.3.4.4.5.5.2 1 .3 1.4.1.3.6.7.9 1 1 .3.1.5.2.8.2v-1.9s-.1 0-.1-.1l.1-.1v-8s0 .1-.1.1c-.6 1.1-.9 2.2-1.3 3.2-.2 0-.4-.1-.6-.1.3-1.1.6-2.3 1.2-3.5.3-.6.5-.9.8-1.3v-3.5c-.8 1-1.5 2.3-2.4 4 0 1.4-.4 2.9-.7 4.4zm-234.3 29.6c0-.1-.1-.1-.1-.2.1.1.2.2.2.3 0-.1-.1-.1-.1-.1zm-.8-3.4c-.8-.7-1.5-1.4-2.4-2.5-1-1.3-1.8-2.5-2.4-3.7 1 .7 2 1.7 3.2 3.1.8 1 1.3 1.9 1.8 2.7-.1.2-.1.3-.2.4zm5.1.6c1.3.1 2.7.4 4.1 1 3 1.3 4.4 3.6 5.3 5.2-.5 0-1 .1-1.5.1-1.6.2-3.3.4-5.9-.8-1.3-.6-2.4-1.4-3.4-2.3.3 0 .7-.1 1-.3.7-.4.7-1.6.4-2.9zm-1.6 1.6c-.1 0-.1.1-.2 0-.1-.4-.4-.9-.6-1.4h.5c.2.6.4 1.3.3 1.4zm-8.1-11.1c1.1.2 2.7 1.7 4.8 4.4.7.8.8 1.4 1.3 2.1-.1.1-.2.3-.3.4-.4-.7-.8-1.4-1.4-2.1-2-2.5-3.9-3.7-5.2-4.6-.2-.1-.3-.2-.5-.3.4-.1.9 0 1.3.1zm-16.1-26.3c1 .4 2.3 2.2 3.9 5.2.7 1.3 1 2.5 1.3 3.5-.3 0-.5 0-.7.1-.3-1.1-.8-2.2-1.3-3.2-1.5-2.9-3.1-4.4-4.3-5.6l-.4-.4v-.1c.4.2.9.3 1.5.5zm2.4 9.7-.1.1c-.6-.8-1.2-1.6-1.9-2.8-.8-1.6-1.4-3.1-1.6-4.4.9.9 1.8 2.1 2.7 3.9.6 1.2.8 2.2 1.1 3.2-.1-.1-.2-.1-.2 0zm.3 3.4c.2.1.3.4.5.5 0 .1-.1.2-.2.2 0 0-.2 0-.3-.1v-.6zm2.1-2.3v-.1c.2 0 .5.1.7.1v.3c-.2-.1-.4-.2-.7-.3zm-8.6-9.4c.1-.4.2-.8.3-1.1.1.1.1.2.2.2v.3c0 1.8.7 4.4 2 7 .6 1.2 1.3 2.3 2 3.3-.2.1-.4.2-.5.3-.8-1-1.6-1.9-2.2-3.2-1.4-3-2.1-5.6-1.8-6.8zm12.9 23.5c-2.8-.4-5-1.6-6.6-3.6-1.9-2.3-2.4-4.9-1.9-6.7.1.1.2.2.3.2.2 1.9 1 3.9 2.5 5.8 2.1 2.6 4.2 3.3 5.8 3.9.5.2.9.3 1.3.5-.5 0-1 0-1.4-.1zm2.2-1.6-1.5-.6c-1.6-.5-3.2-1-5-3.3-1-1.2-1.6-2.6-2-3.8.1 0 .1.1.2.1.3 0 .6-.1.9-.2.4-.2.8-.6 1-1 .5.1 1 .1 1.4-.2.1-.1.3-.4.4-.5.9.6 1.8 1.2 2.5 2.2 1.5 1.9 2.2 4.2 2.1 7.1v.2zm1.8-.4c.1-3.2-.8-5.9-2.5-8.1-1-1.3-2.1-2.2-3.3-2.9v-.8c1.4.6 2.9 1.5 4.1 3 2.6 3.3 2.3 7.4 1.7 8.8zm3.3 11.4c-2-2.5-3.3-5-3.3-6.2v-.9s.1.1.2.1c0 .1.1.2.1.3.4 1.7 1.7 4 3.5 6.4.9 1.1 1.9 2.2 3 3.1-.1.2 0 .4-.1.6-1-.9-2.1-1.8-3.4-3.4zm17.7 10c-2.6.7-5.1.6-7.4-.4-1.8-.8-3.2-1.9-4.1-3.2.2 0 .5-.1.7-.2 1.1 1 2.3 2 3.8 2.6 3.1 1.4 5.2 1.1 6.9.9.5-.1.9-.1 1.3-.1-.4.2-.8.3-1.2.4zm-3.5-9.2c-1.8-.8-3.7-1.2-5.4-1.2h-.1c0-.1-.1-.2-.1-.2 1.6-.4 3.7-.3 6 .7 3.6 1.6 5.3 5 5.6 6.5-1.5-2.7-3.5-4.6-6-5.8zm24.6 7.1c.7-.2 1.5-.2 2.2-.2 2.9 0 5.3 1.3 6.2 2.1-2.8-1.3-5.5-1.6-8.2-1-1.5.3-2.6 1.2-3.8 1.9-.3-.2-.5-.4-.8-.6 1-1 2.5-1.8 4.4-2.2zm-9.3 5c-1.4-.6-2.6-1.3-3.6-2 1.1.2 2.4.6 3.9 1.3l1 .5c0 .2-.1.4-.1.6-.5-.1-.8-.2-1.2-.4zm7.3 1.6s-.1.1-.2.1c-.5-.6-1.3-1.2-2.1-1.7.1-.1.3-.1.4-.2 1.2.8 1.9 1.5 1.9 1.8zm-3.7-2.9-.2.2c0-.1.1-.2.2-.2zm.3 2.6s.1.1.2.1c-.1 0-.2 0-.2-.1 0 .1 0 0 0 0zm3.3-2.4c.9-.4 1.5-1 2.6-1.3 3.1-.7 5.7.3 7.3 1.1-.4.3-.8.7-1.1 1-1.2 1.1-2.4 2.3-5.1 2.9-.8.2-1.5.1-2.3.1l.3-.3c.5-1.1-.3-2.4-1.7-3.5zm-12.3-3.4c.7-.2 2.4 0 6.3 1.8.3.1.4.3.7.4-.1.1-.2.2-.2.3l-.6-.3c-3-1.3-5.1-1.6-6.7-1.8-.2 0-.3 0-.4-.1.2-.1.5-.2.9-.3zm-1.7 2.6-.3-.6h.1c.1.1.2.1.2.2 1.2 1.3 3.4 2.8 6.1 4 .7.3 1.6.6 2.5.9v.3c-.9-.3-1.6-.4-2.7-.9-3.5-1.4-5.4-3-5.9-3.9zm24.5 3c-1.6 2.2-3.7 3.5-6.2 4.1-1.5.4-2.9.2-4.3-.1.2-.2.4-.3.5-.5 1.1 0 2.3 0 3.6-.3 3.3-.7 4.8-2.2 6-3.4.3-.3.6-.6 1-.9-.1.5-.3.8-.6 1.1zm27.8-14.4c-.2.5-.4.9-.6 1.4-.6 1.5-1.2 3.1-3.4 4.8-1.2.9-2.5 1.6-3.7 2-.1-.2-.2-.5-.5-.7.2-.4.3-.8.2-1.2-.1-.3-.3-.8-.9-1.2-.2-.1-.6-.1-.8-.2.7-1 1.6-1.9 2.6-2.7 2.5-2 5.1-2.2 6.9-2.2h.2zm-13.6 8.7c-.9.3-1.8.7-3 1-1.4.3-2.8.5-4.1.6 1-.5 2.3-.9 3.9-1.3 1.2-.3 2.2-.3 3.1-.4.1 0 0 .1.1.1zm1-2.1c0-.1.1-.3.1-.4h.1c0 .1-.1.3-.2.4.1 0 .1 0 0 0zm2.3-.2c.2.1.5.1.6.2 0 0 0 .1-.1.1h-.6c0-.1 0-.2.1-.3zm1.6-6.4c2.1-1.7 4.6-2.1 6.4-2.1.8 0 1.5.1 2 .3-3.1 0-5.7.9-7.9 2.6-1.4 1.1-2.5 2.5-3.3 3.8-.2 0-.3-.1-.5-.1.6-1.6 1.5-3.1 3.3-4.5zm-15.3 10 .6-.9c.7-.8 2.7-1.6 6.1-2.3 1.1-.3 1.9-.3 2.9-.3 0 .1.1.2.1.3-.9.1-1.8.2-2.9.4-3.2.7-5 1.8-6.4 2.6-.2 0-.3.1-.4.2zm7.9 1.9c-3.2.7-6 .8-7 .3l-.6-.3c.1-.1.2 0 .4 0 1.7.4 4.4.2 7.2-.4 1.2-.3 2.6-.7 4-1.2.1.1.1.2.2.3-1.3.4-2.5.9-4.2 1.3zm17.6-10c-.6 2.7-1.9 4.8-3.9 6.4-1.9 1.5-4.1 2.3-5.8 2.3h-.6c.2-.2.7-.4.8-.6 1.7-.4 3.4-1.1 5.1-2.4 2.7-2.1 3.4-4 4-5.6.2-.4.3-.8.5-1.2.1.4 0 .7-.1 1.1zm66-22.4c1.3 2.5 1.5 5.1.9 6.7-.1 0-.1 0-.2-.1.1-1.9-.3-4.1-1.4-6.3-1.3-2.5-3.3-4.3-6.1-5.6 1.5.3 4.9 1.8 6.8 5.3zm3.3 12.8c1.3 1 2.3 2 3 2.8-1.1-.6-2.3-1.3-3.4-2.2-1.4-1.1-2.4-2.1-3.2-3 1 .6 2.3 1.4 3.6 2.4zm-5.4-5c.1-.1.5.1.7.1v.2c-.2 0-.5-.2-.7-.3zm-5.8-11.5c2.6 1.1 4.4 2.8 5.6 5 .9 1.7 1.2 3.4 1.2 4.9-.3 0-.8-.3-1-.3-.7.1-1.1.4-1.3.7-.1.1-.1.4-.2.7-1.2-.9-2.3-2-3.2-3.7-1.3-2.5-1.2-4.2-1.1-5.8-.1-.5 0-1 0-1.5zm-1-5.6c-.1.4-.2.7-.3 1 0-.1-.1-.3-.1-.4-.3-1.6-.7-3.7-2.2-6.6-.3-.6-.6-1-.9-1.5.1-.1.2-.2.3-.2.4.6.7.8 1 1.5 1.6 3.1 2.4 5.1 2.2 6.2zm-9-10.9h.2c0 .1.1.3.1.4-.1-.1-.2-.3-.3-.4zm3.4.4c-.5-.5-.9-1.1-1.4-1.4 0 0 0-.1.1-.1.2 0 .8.5 1.4 1.1-.1.2-.1.3-.1.4zm-.9 1.7.1.1s-.1 0-.1-.1c0 .1 0 0 0 0zm1.4 2.2c.3.5.6.9 1 1.5.8 1.5 1.2 2.7 1.5 3.8-.7-1-1.5-2.1-2.2-3.5-.4-.7-.5-1.2-.8-1.8h.5zm1.9-10c.6 2.1.5 4 .1 5.6-.1-.2-.3-.4-.4-.6.1-1.5 0-3.1-.5-4.8-.8-2.7-2.4-4.9-4.9-6.7 1.4.6 4.5 2.7 5.7 6.5zm-2.6.8c.3.9.3 1.8.4 2.6-.8-.5-1.6-.8-2.3-.4-.4.2-.6.5-.8.9-.6-.1-.9 0-1.2.2-.3-.6-.7-1.1-.9-1.8-.8-2.7-.4-4.4 0-5.9.1-.5.3-1 .3-1.5 2.4 1.6 3.8 3.5 4.5 5.9zm-4.4-11.7c-.1.4-.3.7-.5 1v-.5c0-1.6 0-3.8-.9-6.9-.3-.9-.7-1.9-1.1-2.9.1-.1.1-.2.2-.3.4.9.9 1.7 1.3 3 1.1 3.5 1.4 5.6 1 6.6zm-10.3-12.4c.1.1.1.6.1.7l-.2-.2c0-.1 0-.3.1-.5-.1 0 0 0 0 0zm-.7-1.7c-.1-.2-.3-.2-.4-.3-.2-.8-.5-1.5-.6-2.4-.1-2.5.6-4.9 2.2-7.1l.1-.1c0 .1.1.2.2.3 0 0 0 .1-.1.1-.8 1.5-1.8 3.4-1.6 6.7.1 1 .3 1.9.6 2.8h-.4zm2.6-14.3c0-.1 0-.1 0 0 0-.1 0-.1 0 0zm-.9 11.5c-.1-2.1.3-3.4.9-4.6.5 1.1 1 2.4.9 4.6-.1 1.4-.4 2.5-.9 3.6-.5-1.1-.8-2.3-.9-3.6zm2.8 4.6v.5c-.1.1-.2.2-.2.3 0-.2 0-.7.1-.8 0-.1 0 0 .1 0zm.6-1.8c-.2-.1-.2 0-.4 0 .2-.9.5-1.7.5-2.8.2-3.4-.8-5.2-1.6-6.7 0 0 0-.1-.1-.1 0-.1.1-.2.2-.3l.1.1c1.6 2.2 2.4 4.6 2.2 7.1-.1.9-.4 1.6-.6 2.4 0 .1-.2.2-.3.3zm2.4 2.8c.1-.1.1-.3.2-.4.1.2.2.1.3.4-.1.1-.2.2-.3.4-.1-.2-.1-.3-.2-.4zm-2.3-18.3c-.1.1-.1.1 0 0 0 0 0-.2.1-.3-.1.1-.1.3-.1.3zm-5.2.1c-.1-.1-.1-.3-.1-.3 0 .1.1.2.1.3zm-2.4 18.2c-.1.1-.1.2-.2.3-.1-.1-.2-.2-.3-.4.1-.2.2-.2.3-.4.1.2.2.3.2.5zm-.4 5.5c.3-1 .7-1.8 1-2.6.1 0 .2.1.3.1-.1.9-.2 1.6-.5 2.7-.4 1.4-.9 2.8-1.5 3.8 0-1.1.2-2.4.7-4zm9.7-2.5c.3.8.7 1.5 1 2.6.5 1.6.7 2.9.8 4-.5-1.1-1.1-2.4-1.5-3.8-.3-1-.4-1.8-.5-2.7.1 0 .1-.1.2-.1zm2.6-9.1c.1 1.5-.3 2.8-.7 4.1-.1-.2-.3-.4-.4-.5.2-1.1.3-2.2.3-3.5-.2-3.6-1.9-6-3.3-7.6 1.3.7 3.8 3.5 4.1 7.5zm-2.6-23.3c0-.2-.1-.3-.1-.4l3-1.8c-.9.7-1.9 1.5-2.9 2.2zm-2.9-4.3c-.1 0-.2-.1-.3-.1-.3 0-.7.1-1.1.5h-.2c-.4-.3-.8-.4-1-.5-.4 0-.8 0-1.4.5-.2.2-.4.8-.6 1.1-1.7.3-3.5.6-5.4.4-6-.8-7.2-5.7-8.3-12.4-.2-1-.4-1.9-.6-2.8 1.8-3.2 3.4-7.4 3.8-12.1 3.7-5 7.1-8.3 13.2-6 3.2 1.2 5.5 2.8 7.4 4.6.5 1.2 1.2 2.3 2.2 3.2.2.2.4.2.6.3.5.9.6 2 .8 3-.1.1-.2.1-.3.2-3.5 3.3-4.1 8.5-1.8 13.8-1.3 2.4-3.8 4.6-7 6.3zm-47.1-8.6c-5.6-1.9-5.9-6.8-5.7-13.5 1.1-.9 2.1-1.9 2.8-2.6 3.2-3.4 6.9-8.6 7.9-15.1 2.9-1.7 5.9-2.2 9.6.1 2.6 1.6 4.5 3.3 6 5.2-3 4.3-3.6 8.9-1.3 12 .9 1.2 1.9 2.1 2.8 2.6 0 .1-.1.1-.1.2-.8.1-1.6.4-2.6.9-3.2 1.7-5.1 4.9-5.5 8.7-3.9 2.2-8.8 3.3-13.9 1.5zm26.7-24.6c-.1-.3-.4-.6-.6-.9l.1-.1c.1.4.4.7.5 1zm-3.5 8.4c-.1-.2-.2-.2-.4-.4-.8-1-.5-2.7.2-4.4.5 1.5.4 3.1.2 4.8zm35.3-2.6c-.3-.5-.9-.9-1.3-1.3-.1-.2-.1-.3-.2-.5.5.6 1.2 1.2 1.5 1.8zm30.4-5.1c.8.3 1.5.2 2.2.3.3.5.6 1 .9 1.6-.2.4-.5.6-.7 1-1.9 3.8-1.1 8.1 1.8 11.9-1.6 5.3-6.5 11.5-14.2 12.5-6 .8-8.5-3.5-11.3-9.8-.6-1.3-1.2-2.5-1.9-3.6 0-2.2-.4-4.4-1.2-6.7.7-1.2 1.2-2.6 1.8-4.1 2.4-6.3 4.6-10.8 11.5-10.2 2.3.2 4.2.7 6 1.4.9 2.8 2.7 4.9 5.1 5.7zM436.3 395c-6.7 1.1-12.1-1.3-15.7-4.7.6-1.4 1.2-2.6 1.6-3.7.3-.9.7-2 .9-3.1 2.6 5.1 6.5 10.9 14.8 9.8 6-.8 11-4.3 14.4-8.6-2.7 4.8-7.6 9.1-16 10.3zm42.1-20.4c5.3-2.9 8.9-7.8 10.5-13-.9 5.4-4 11.1-11.4 15.2-6.6 3.6-13.1 2.9-17.8.4.3-1.6.5-3.1.6-4.3.1-.9.1-1.9.1-2.9 4.3 4.1 10.2 8.8 18 4.6zm-32.1-21.9c0-.2 0-.3-.1-.5 1.3.8 2.8 1.6 3.8 2.6-1.1-.9-2.4-1.5-3.7-2.1zm-13.6-4.6c1.2 0 2.5.1 3.8.4 1.9.4 3.3 1 4.8 1.5v.9c-1.6-.4-3-.9-4.8-1-10.6-.9-14 7.5-16.1 13.1 0 .1-.1.2-.1.3-1.1-1.7-2.5-3.2-4.1-4.8 2.5-5.4 8.5-10.4 16.5-10.4zm-35.5 6.6c2.7 0 5.6.6 8.5 2.1 2.1 1 3.6 2.2 5.1 3.4-.1.2-.2.5-.2.7-1.6-1-3.2-2-5.2-2.7-7.2-2.6-11.8.2-15.2 3.8-.3-1.6-.9-3.2-1.7-4.9 2.6-1.5 5.5-2.4 8.7-2.4zM376 349c2.9 2.2 4.9 4.5 6.4 6.8-.1.1-.2.2-.4.3-1.8-2.1-3.9-4.1-6.7-5.8-2.7-1.7-5.2-2.3-7.5-2.3-1.6 0-3 .4-4.4.9-.1-1.2-.3-2.5-.6-3.7 4.4-.4 9 .5 13.2 3.8zm-17.7-2.9c.2.8.6 1.7.7 2.4-.2-.8-.7-1.6-.9-2.4h.2zm-5 2.7c.2-.2.5-.2.7-.4.7 2.4.7 4.8 0 7.3-1.1 1-2.3 2-2.9 2 0 0-.5-.2-1.2-1.8-1-1.9.4-4.7 3.4-7.1zm-7 17.2c.4-.1.6-.1.8-.1-.9.6-1.7 1.2-2.8 1.7.7-.6 1.2-1.4 2-1.6zm-4.4 7.3zm-18.9-2.1c-4.9-2.9-7.4-7-8.6-11.1 1.8-.2 3.5-.6 5-1.1-.2 4.3.8 8.8 5.9 11.9 3.7 2.3 7.8 2.8 11.9 2.7 0 .3.1.6.1.9-4.2.5-9-.2-14.3-3.3zm31.8 19.3c-7-2.3-10.9-7.5-12.3-12.6 2.1-.7 4-1.6 5.8-2.7.1 5.5 1.3 11.8 8.8 14.4 5.4 1.9 10.9 1.2 15.7-.8 0 .1.1.1.1.2-4.7 2.7-10.5 4-18.1 1.5zm38.3 11.1c-7.8-.9-12.7-5.7-14.9-10.7 2-1.6 3.7-3.3 5-5 1 5.8 3 13.3 11.9 14.4 1.5.2 3 .2 4.4.1-.1.4-.1.8-.2 1.1-1.9.3-3.9.4-6.2.1zm4.2 19.9c.2-4 2.8-6.7 4.1-7.6-1.4 1.6-3.1 4-3.3 7.6-.1 1.3.1 2.5.3 3.6-.1.1-.3.3-.4.5-.4-1.3-.8-2.6-.7-4.1zm-.7 11c.4-1.3.8-2.1 1.3-3 .1.1.1.2.2.3-.4 1-.8 2-1.1 2.9-.9 3.1-.9 5.3-.9 6.9v.4c-.2-.3-.3-.6-.4-1-.4-1.1-.1-3.2.9-6.5zm-.8 12.2c.1.5.2 1 .4 1.5.4 1.6.9 3.2 0 5.9-.2.7-.6 1.2-.9 1.9-.3-.1-.7-.3-1.2-.2-.2-.4-.4-.7-.8-.9-.3-.2-.8-.3-1.5-.1-.3.1-.6.6-.9.7.1-.9.1-1.9.4-2.9.7-2.4 2.2-4.3 4.5-5.9zm-4.7 10.8c.6-.6 1.2-1.1 1.3-1.1 0 0 .1.1.1.2-.4.3-.9.9-1.3 1.4-.1-.2-.1-.4-.1-.5zm-.4 4.3c.2 0 .3.1.5 0-.3.6-.4 1.1-.8 1.8-.7 1.3-1.4 2.5-2.2 3.5.3-1.1.7-2.3 1.5-3.8.3-.7.6-1 1-1.5zm1.2-2 .1-.1c0-.1 0 0-.1.1.1-.1.1 0 0 0zm2.4-1.9c0-.1 0-.3.1-.4h.1v.3c-.2 0-.2 0-.2.1zm-5.5-6.1c1.1-3.8 4.3-5.9 5.7-6.4-2.5 1.8-4.1 4-4.9 6.7-.5 1.7-.6 3.4-.5 4.9-.2.2-.3.2-.5.4-.4-1.6-.5-3.5.2-5.6zm-1.1 10.4c.4-.7.7-.9 1-1.5.1.1.2.2.3.2-.3.5-.6.9-.9 1.5-1.5 2.9-1.9 5-2.2 6.6 0 .2-.1.3-.1.4-.1-.3-.2-.7-.3-1-.1-1.1.6-3.1 2.2-6.2zm-3.2 11.8c0 .5.1 1 .1 1.5.1 1.6.2 3.3-1.1 5.8-.9 1.7-2 2.8-3.2 3.7-.1-.3-.1-.6-.2-.7-.2-.3-.6-.6-1.3-.7h-.4c-.2 0-.5.2-.7.2 0-1.5.3-3.1 1.2-4.8 1.2-2.2 3.1-3.9 5.6-5zm-7.5 14.2c-.8.9-1.8 1.9-3.2 3-1.2.9-2.4 1.7-3.4 2.2.7-.9 1.6-1.8 3-2.8 1.3-1.1 2.5-1.9 3.6-2.4zm1-2.4v-.3c.1 0 .4-.2.5-.2h.2v.2c-.3.1-.5.3-.7.3zm-1.4-8.1c1.9-3.5 5.2-5 6.8-5.2-2.8 1.3-4.8 3.1-6.1 5.6-1.2 2.2-1.5 4.4-1.4 6.3-.1 0-.1 0-.2.1-.6-1.7-.4-4.2.9-6.8zm-9.1 16.5c-.1.1-.2.3-.3.4 0-.3.1-.7.2-1 .2-.7 1.1-2.1 4.5-4.7 1.2-.9 2.1-1.4 3.1-1.9l.2.2c-1.1.6-2.1 1.3-3 2-2.6 1.9-3.8 3.6-4.7 5zm7.7-1.3c-2.6 2-5 3.3-6.2 3.3h-.3c-.2 0-.5.1-.4-.1.1 0 .2-.1.3-.1 1.7-.5 4-1.7 6.3-3.5 1.6-1.2 2.7-2.4 3.7-3.6.1.1.3.1.4.1-.7 1.1-1.9 2.5-3.8 3.9zm10.7-10.3c-1.1 2.1-2.6 3.6-4.2 4.3 0-.2-.1-.4-.1-.5 1.3-1 2.6-2.3 3.6-4.2 1.6-3 1.4-5.1 1.3-6.8 0-.5-.1-.9-.1-1.3.2.3.3.7.4 1.1.6 2.6.3 5.1-.9 7.4zm2.1-12.4-.6.3v-.1c.1-.1.2-.1.2-.2 1.4-1.1 3-3.2 4.3-5.8.4-.7.5-1.3.7-2 .1 0 .3.1.4.1-.3.7-.4 1.2-.8 2.1-1.4 3-3.1 5.2-4.2 5.6zm10.8-15.4c-.6 1.9-1.6 3.4-2.6 4.4 0-.3.1-.6.1-.9.7-1.1 1.3-2.3 1.7-3.7 1-3.2.4-5.3 0-6.9-.1-.4-.2-.9-.3-1.3.2.3.4.6.6 1 1 2.4 1.2 5 .5 7.4zm-.3-12.5c-.2.1-.4.3-.6.4v-.1c.1-.1.1-.2.2-.3 1.1-1.4 2.3-3.7 3.1-6.5.3-.9.5-2 .7-3.1.1 0 .2 0 .3.1-.1 1-.2 1.9-.6 3.2-.9 3.1-2.1 5.6-3.1 6.3zm11.3 0c-1-.7-2.2-3.2-3.2-6.3-.4-1.3-.4-2.2-.6-3.2.1 0 .2 0 .3-.1.2 1.1.4 2.2.7 3.1.8 2.8 2 5.2 3.1 6.5.1.1.1.2.2.2v.1c-.1 0-.3-.2-.5-.3zm-.3 12.5c-.7-2.4-.5-4.9.6-7.4.2-.4.4-.7.6-1-.1.4-.2.8-.3 1.3-.4 1.6-1 3.7 0 6.9.4 1.4 1 2.7 1.7 3.7 0 .3 0 .6.1.9-1.1-1.1-2.1-2.5-2.7-4.4zm10.8 15.4c-1.1-.5-2.8-2.7-4.3-5.6-.5-.9-.5-1.4-.8-2.1.1 0 .2 0 .3-.1.3.7.6 1.4.9 1.9 1.4 2.6 2.9 4.7 4.3 5.8.1.1.2.1.2.2v.1c-.2 0-.4-.1-.6-.2zm2.2 12.4c-1.2-2.3-1.5-4.7-.9-7.4.1-.4.2-.7.4-1.1 0 .4 0 .8-.1 1.3-.1 1.7-.3 3.8 1.3 6.8 1 1.8 2.3 3.2 3.6 4.2-.1.1-.1.4-.1.6-.2-.1-.4-.1-.5-.2-1.5-1-2.8-2.4-3.7-4.2zm17.1 13.6h-.3c-1.2 0-3.6-1.3-6.2-3.3-1.9-1.5-3.1-2.8-3.9-3.8.2 0 .3-.1.5-.1 1 1.2 2.1 2.4 3.7 3.6 2.3 1.8 4.6 3 6.3 3.5.1 0 .2.1.3.1h-.4zm1.3-2c-.9-1.3-2.2-3.1-4.7-5.1-.9-.7-2-1.4-3-2l.2-.2c1 .5 1.8.9 3.1 1.9 3.4 2.6 4.3 4 4.5 4.7.1.4.2.7.2 1-.2-.1-.3-.2-.3-.3zm16.9 12.6c1 .1 1.9.1 3.1.4 1.6.4 2.9.8 3.9 1.3-1.2-.1-2.6-.3-4.1-.6-1.3-.3-2.1-.6-3-1 .1 0 .1-.1.1-.1zm-3.3-2s0 .1.1.1c-.2 0-.5 0-.7.1v-.1c.1-.1.5-.1.6-.1zm2.2 0c0-.1-.1-.3-.2-.4h.1c0 .2.1.3.1.4zm-3.8-6.6c1.7 1.3 2.7 2.9 3.3 4.4-.2 0-.3.1-.5.1-.8-1.4-1.8-2.7-3.3-3.8-2.2-1.7-4.8-2.5-7.9-2.6 1.5-.4 5.2-.5 8.4 1.9zm-8.6 0c1.8 0 4.4.3 6.9 2.2 1.1.8 2 1.8 2.6 2.8-.2.1-.7.1-.8.2-.6.4-.8.9-.9 1.2-.1.4 0 .8.2 1.2-.2.2-.3.4-.4.6-1.3-.4-2.6-.9-3.8-1.9-2.3-1.8-2.8-3.3-3.4-4.8-.2-.5-.3-.9-.6-1.4.1-.1.1-.1.2-.1zm2.2 8.3c-2-1.5-3.3-3.7-3.9-6.4-.1-.4-.1-.8-.1-1.1.2.4.3.8.5 1.2.6 1.6 1.4 3.6 4 5.6 1.7 1.3 3.4 2 5.1 2.4.1.1.1.3.2.4-1.6.1-3.8-.5-5.8-2.1zm20.8 3.9c-1.1.5-3.8.4-7-.3-1.7-.4-2.9-.9-4-1.4.1-.1.1-.2.2-.3 1.4.5 2.8 1 3.9 1.2 2.8.6 5.5.8 7.2.4.1 0 .3-.1.4 0-.3.2-.5.3-.7.4zm.4-2.4c-1.4-.8-3.3-1.9-6.4-2.6-.8-.2-1.9-.2-2.9-.3 0-.1.1-.2.1-.4.9.1 1.7.1 2.9.3 3.4.8 5.4 1.5 6.1 2.3.3.3.5.6.6.9-.1-.1-.2-.2-.4-.2zm26.5-1.1c.2 0 .4 0 .5.1.4.1.7.2 1 .3-.1 0-.3 0-.4.1-1.6.2-3.8.5-6.7 1.8-.2.1-.4.3-.6.4-.1-.1-.2-.2-.2-.4.3-.1.4-.3.7-.4 2.6-1.3 4.6-1.9 5.7-1.9zm-8.1 3.3c.1.1.2.2.3.4-.2-.2-.3-.3-.3-.4-.1 0 0 0 0 0zm-1.4 1.3c-.4.3-1 .5-1.4.8-.4.3-.7.6-.9.9h-.1c0-.3.7-1 1.8-1.9.3.1.5.1.6.2zm-4 .9c-.2.6-.1 1.1 0 1.5l.3.3c-.8 0-1.5.1-2.3-.1-2.8-.6-4-1.8-5.1-2.9-.4-.3-.7-.7-1.1-1 1.6-.8 4.2-1.7 7.3-1.1 1.1.2 1.8.9 2.7 1.3-.7.7-1.6 1.4-1.8 2zm4.9.5s.1-.1.2-.1c-.1.1-.2.1-.2.1zm2.9-1v-.6c.4-.2.6-.4.9-.5 1.5-.7 2.8-1.1 3.9-1.3-1 .7-2.2 1.4-3.6 2-.5.2-.8.3-1.2.4zm-8.1-5.4c1.9.4 3.4 1.2 4.5 2.2-.3.2-.6.3-.9.5-1.2-.7-2.3-1.5-3.8-1.9-.9-.2-1.7-.3-2.6-.3-1.8 0-3.7.4-5.6 1.3 1.1-.9 4.5-2.6 8.4-1.8zm-2.3 10.2c-2.5-.6-4.6-1.9-6.2-4.1-.2-.3-.4-.6-.6-1 .3.3.6.6 1 .9 1.2 1.2 2.7 2.6 6 3.4 1.3.3 2.6.4 3.8.3.2.2.6.3.9.4-1.4.4-3.1.5-4.9.1zm18.3-7.1c-.5.9-2.5 2.4-5.8 3.9-1.1.5-1.8.6-2.7.9v-.3c.9-.3 1.8-.6 2.5-.9 2.6-1.2 4.9-2.6 6.1-4l.2-.2h.1c-.2.2-.3.4-.4.6zm23-19c.5-.1.9-.1 1.3-.2-.2.1-.3.2-.5.3-1.3.9-3.2 2.1-5.2 4.6-.6.7-1 1.4-1.4 2.1-.1-.1-.2-.3-.3-.4.4-.7.6-1.3 1.3-2.1 2.1-2.6 3.7-4.1 4.8-4.3zm-5.4 12.3s-.1 0-.1.1l.3-.3c-.1 0-.2.1-.2.2zm-2.4-2.6h.5c-.2.5-.5 1-.6 1.4h-.2c-.1-.1.1-.8.3-1.4zm-1.4 2.9c.3.2.6.3 1 .3-.9.9-2 1.7-3.4 2.3-2.6 1.2-4.2 1-5.9.8-.5-.1-1-.1-1.5-.1 1.3-2.6 3-4.2 5.3-5.2 1.4-.6 2.9-.9 4.2-1-.1.5-.4 1.2-.4 1.6 0 .6.4 1.1.7 1.3zm4.6-3.7c0-.1-.1-.2-.1-.3.5-.9.9-1.7 1.8-2.7 1.1-1.4 2.2-2.4 3.1-3.1-.6 1.1-1.4 2.4-2.4 3.7-.9 1.1-1.7 1.7-2.4 2.4zm-10.2-.8c1.6-.7 3.2-1.1 4.7-1.1.5 0 .8.2 1.3.3-.1.1-.2.3-.2.4-1.7 0-3.5.3-5.4 1.1-2.5 1.1-4.5 3-6 5.7.3-1.5 1.9-4.8 5.6-6.4zm4.3 9.5c-2.3 1.1-4.8 1.2-7.4.4-.4-.1-.7-.3-1-.4.4 0 .8.1 1.3.1 1.7.2 3.8.5 6.9-.9 1.5-.7 2.8-1.6 3.8-2.6.2.1.4.1.6.2-1.1 1.2-2.4 2.4-4.2 3.2zm10.2-9.6c-1.3 1.6-2.4 2.5-3.4 3.2 0-.2 0-.4-.1-.5 1-.9 2.1-1.9 3-3.1 1.8-2.3 3.1-4.6 3.5-6.4 0-.1 0-.2.1-.3.1 0 .1-.1.1-.1v.9c.1 1.3-1.2 3.7-3.2 6.3zm5.8-19.5c-1.8 2.2-2.6 4.9-2.5 8.1-.6-1.4-.9-5.5 1.7-8.7 1.2-1.5 2.6-2.4 4-3v.7c-1 .7-2.2 1.7-3.2 2.9zm5.8-4c-.3.1-.5.2-.8.3v-.5c.1 0 .2-.1.3-.1.2 0 .3 0 .5.1v.2zM213.8 330.8c0 9.2 6.5 16.6 15.1 18.8l-1.8-37.2c-7.7 2.7-13.3 9.8-13.3 18.4zM574 312.6l-1.8 36.7c8-2.5 14-9.7 14-18.5 0-8.2-5.1-15.2-12.2-18.2z"/><path class="st1" d="M573.6 225.3c2.7-3.6 4.9-8.1 6.7-13.2 2.7-7.4 4.3-16.1 4.3-25.8 0-27.9-12.3-49-28.7-49-6.1 0-11.7 3-16.3 8.1-.4.5-.8 1.1-1.2 1.7-2.8 3.6-5.2 8.1-7.1 13.4-1.5 4.3-2.7 9.1-3.4 14.3-.5 3.7-.8 7.5-.8 11.5 0 11.2 2 21.2 5.5 29.2.3.8.8 1.4 1.2 2.2.9 1.8 1.7 3.6 2.7 5.2V310.7h12.9c7.5 1 8.3 14.8 8.3 20.7 0 5.9-.8 19.6-9.1 20.7h-12l.2 94.6v32l.3 138.5c-1.6 1.4-2.9 3-3.9 4.9-.9 1.9-1.5 4-1.5 6.2 0 3.2 1.3 6.1 3 8.5-11.3 16.7-25.5 30.9-41.6 42.2-10.8 7.5-22.4 13.8-34.6 18.6-18.4 7.2-38.1 11-58.4 11-40.6 0-79-15.4-108.4-41.8-9.8-8.8-18.6-18.8-26.1-29.9 1.8-2.5 3.1-5.4 3.1-8.7 0-4.5-2.1-8.4-5.3-11.1l.3-156.3v-39.9l.1-69h-13c-8.5 0-9.1-15.8-9.1-20.6 0-6.2.9-20.8 9-20.8h13.2v-87.7c1.4-2.2 2.7-4.7 3.9-7.3 2.3-5.4 4-11.6 4.8-18.5.4-3.4.7-7 .7-10.8 0-27.9-12.3-49-28.7-49-7.6 0-14.3 4.7-19.3 12.4-3.1 4.7-5.6 10.5-7.2 17.2-1.4 5.9-2.2 12.5-2.2 19.5 0 16.3 4.3 30.1 11 39l4.1 86.2 1.9 39 12.7 265.8c-4 2.6-6.7 6.9-6.7 12.1 0 7.7 6 13.8 13.5 14.5 24.4 37 61.6 63.4 103.8 74.3a176 176 0 0 0 43.6 5.5c7.4 0 14.8-.5 22.1-1.4 50.9-6.5 96.9-35.2 125.4-78.4 7.6-.6 13.7-6.8 13.7-14.5 0-5.1-2.8-9.4-6.7-12.1l19.3-391zm-328.4-74c1.5 0 3.2.9 4.8 2.5 2.5 2.4 4.9 6.5 6.8 12.1 1.8 5.5 3.1 12.4 3.1 20.5 0 8.8-1.5 16.2-3.6 21.9-1.2 3.3-2.7 6.1-4.2 8.2-2.3 3.1-4.7 4.9-6.8 4.9-6 0-14.7-13.6-14.7-35s8.6-35.1 14.6-35.1zm8.5 483.4c-3.6 0-6.5-2.9-6.5-6.5s2.9-6.5 6.5-6.5 6.5 2.9 6.5 6.5-2.9 6.5-6.5 6.5zm287.6-448.4c0-10.7 2.2-19.4 5.1-25.5.7-1.5 1.5-2.9 2.3-4 1.6-2.3 3.3-4 4.9-4.8.8-.4 1.6-.6 2.3-.6.7 0 1.5.2 2.3.6 1.6.8 3.3 2.5 4.9 4.8.8 1.2 1.6 2.5 2.3 4 2.9 6.1 5.1 14.8 5.1 25.5s-2.2 19.4-5.1 25.5c-1.3 2.8-2.8 4.9-4.3 6.5-.1.2-.3.4-.4.5-1.7 1.6-3.3 2.5-4.8 2.5-5.9 0-14.6-13.6-14.6-35zm6 448.4c-3.6 0-6.5-2.9-6.5-6.5s2.9-6.5 6.5-6.5 6.5 2.9 6.5 6.5-2.9 6.5-6.5 6.5z"/><path class="st0" d="M253.7 621.7c-3.6 0-6.5 2.9-6.5 6.5s2.9 6.5 6.5 6.5 6.5-2.9 6.5-6.5-2.9-6.5-6.5-6.5zM547.3 621.7c-3.6 0-6.5 2.9-6.5 6.5s2.9 6.5 6.5 6.5 6.5-2.9 6.5-6.5-2.9-6.5-6.5-6.5z"/><path class="st1" d="M449.3 297.1c-8.6-14.5-17.9-33.5-49.1-33.5-30.3 0-39.7 18.8-48.4 33.1-7.6 12.5-13.7 18.6-29.4 18.6h-10.2 2.2c-4.3 7.4-5.6 21.1.1 32.2h-2.2c-5.4-7.5-5.1-25.9-.4-32.2H306h1.9c-4.3 7.4-5.6 21.1.1 32.2h-2.2c-5.4-7.5-5.1-25.9-.4-32.2h-5.6 1.6c-4.3 7.4-5.6 21.1.1 32.2h-2.2c-5.4-7.5-5.1-25.9-.4-32.2h-5.3 1.3c-4.3 7.4-5.6 21.1.1 32.2h-2.2c-5.4-7.5-5.1-25.9-.4-32.2h-4.9.9c-4.3 7.4-5.6 21.1.1 32.2h-2.2c-5.4-7.5-5.1-25.9-.4-32.2h-4.6.6c-4.3 7.4-5.6 21.1.1 32.2h-2.2c-5.4-7.5-5.1-25.9-.4-32.2h-4.3.3c-4.3 7.4-5.6 21.1.1 32.2h-2.2c-5.4-7.5-5.1-25.9-.4-32.2h-21.5l-.1-.1c-2.5 0-4.5 7.3-4.5 16.2 0 8.9 2.1 16 4.5 16H322.4c30.8 0 44.3-24 53.1-38.5 7.8-12.8 9.5-22.2 24.8-22.2 16 0 17.7 9.5 25.4 22.3 8.5 14.3 21.7 38.3 52.5 38.3h71.1c2.4-.3 4.3-7.4 4.3-16.1 0-8.7-1.9-15.8-4.3-16.1h-71.2c-15.6.2-21.3-5.3-28.8-18zm79.1 18.2c4.7 6.3 5.1 24.7-.4 32.2h-2.2c5.7-11 4.4-24.8.1-32.2h2.5zm-6.5 0c4.7 6.3 5.1 24.7-.4 32.2h-2.2c5.7-11 4.4-24.8.1-32.2h2.5zm-6.6 0c4.7 6.3 5.1 24.7-.4 32.2h-2.2c5.7-11 4.4-24.8.1-32.2h2.5zm-6.5 0c4.7 6.3 5.1 24.7-.4 32.2h-2.2c5.7-11 4.4-24.8.1-32.2h2.5zm-6.5 0c4.7 6.3 5.1 24.7-.4 32.2h-2.2c5.7-11 4.4-24.8.1-32.2h2.5zm-6.5 0c4.7 6.3 5.1 24.7-.4 32.2h-2.2c5.7-11 4.4-24.8.1-32.2h2.5zm-6.5 0c4.7 6.3 5.1 24.7-.4 32.2h-2.2c5.7-11 4.4-24.8.1-32.2h2.5z"/><path class="st0" d="M273.1 347.5h2.2c-5.7-11-4.4-24.8-.1-32.2h-2.5c-4.7 6.3-5 24.7.4 32.2z"/><path class="st0" d="M279.6 347.5h2.2c-5.7-11-4.4-24.8-.1-32.2h-2.5c-4.7 6.3-5 24.7.4 32.2z"/><path class="st0" d="M286.1 347.5h2.2c-5.7-11-4.4-24.8-.1-32.2h-2.5c-4.6 6.3-5 24.7.4 32.2z"/><path class="st0" d="M292.6 347.5h2.2c-5.7-11-4.4-24.8-.1-32.2h-2.5c-4.6 6.3-5 24.7.4 32.2z"/><path class="st0" d="M299.1 347.5h2.2c-5.7-11-4.4-24.8-.1-32.2h-2.5c-4.6 6.3-5 24.7.4 32.2z"/><path class="st0" d="M305.7 347.5h2.2c-5.7-11-4.4-24.8-.1-32.2h-2.5c-4.7 6.3-5 24.7.4 32.2z"/><path class="st0" d="M312.2 347.5h2.2c-5.7-11-4.4-24.8-.1-32.2h-2.5c-4.7 6.3-5 24.7.4 32.2zM525.8 347.5h2.2c5.4-7.5 5.1-25.9.4-32.2h-2.5c4.3 7.4 5.6 21.1-.1 32.2z"/><path class="st0" d="M519.3 347.5h2.2c5.4-7.5 5.1-25.9.4-32.2h-2.5c4.3 7.4 5.6 21.1-.1 32.2z"/><path class="st0" d="M512.8 347.5h2.2c5.4-7.5 5.1-25.9.4-32.2h-2.5c4.3 7.4 5.5 21.1-.1 32.2z"/><path class="st0" d="M506.3 347.5h2.2c5.4-7.5 5.1-25.9.4-32.2h-2.5c4.3 7.4 5.5 21.1-.1 32.2z"/><path class="st0" d="M499.7 347.5h2.2c5.4-7.5 5.1-25.9.4-32.2h-2.5c4.3 7.4 5.6 21.1-.1 32.2z"/><path class="st0" d="M493.2 347.5h2.2c5.4-7.5 5.1-25.9.4-32.2h-2.5c4.3 7.4 5.6 21.1-.1 32.2z"/><path class="st0" d="M486.7 347.5h2.2c5.4-7.5 5.1-25.9.4-32.2h-2.5c4.3 7.4 5.6 21.1-.1 32.2z"/></svg>