<svg version="1.1" id="Calque_7" xmlns="http://www.w3.org/2000/svg" x="0" y="0" viewBox="0 0 800 800" style="enable-background:new 0 0 800 800" xml:space="preserve"><style>.st0{fill:#fff}.st1{fill:#b8b8b8}</style><path class="st0" d="M601.4 254.6c20.3-33.4 49.6-85.2 55.2-115.2L603 221.2c3.4 8.1 4.8 20.3-1.6 33.4z"/><path class="st0" d="M599.4 257.9c6.7-12.1 4.6-27.5 1-35.9-12.9-1.8-23.9 7.1-30.6 14.4-1.1 1.4-2.1 2.7-3.1 3.8l-8.1 11.5c-3.5 5.2-6.1 9.1-7.6 11.2l31.7 21.1 9.4-14.6c2.3-3.4 4.7-7.3 7.3-11.5z"/><path class="st0" d="m600.9 219.4 52.9-80.7c-26.7 18.6-64.8 69.8-86.7 101 .8-1 1.8-2.1 2.8-3.2 6.6-8.3 16.9-19.1 31-17.1z"/><path class="st1" d="M430.2 475.7c-1.5 2.2-2.9 4.4-5.1 2.9-2.2-1.5-1.3-2.9.2-5.1l40.4-61.4s0-.1-.1-.1l-62.9 95.6 9.6 14.6L479 420.8c-3.4-1.1-7.4-3.4-9.6-4.7l-39.2 59.6zM257.2 729l13.4 8.8 126.7-192.7-9.6-14.6zM581.2 286.6l.3-.5 1.3-2-31.7-21.1-.2-.1 5.3-7.6-7.1 10.1.8.5 30.8 20.4zM569.8 236.5c6.7-7.4 17.7-16.3 30.6-14.4 3.6 8.4 5.6 23.8-1 35.9-.1.3-.2.6-.4.8.8-1.4 1.7-2.8 2.4-4.1 6.4-13.1 5-25.3 1.6-33.4l53.6-81.8c.2-1 .5-2.2.6-3.1-.5.3-1.2.8-1.7 1.2l-1.8 1.2-52.9 80.7c-14-2.1-24.3 8.7-31 17z"/><path class="st0" d="m529.4 314.7 15.2 10c.4 0 .8.3 1.2.2.3 0 .5-.1.8-.2 1.3-.4 2.6-1.1 3.4-2.3 1.8-2.8 1-6.5-1.7-8.3l-10.7-7c-1.3-.8-2.7-1-4.1-.8-.3 0-.5.1-.8.2-1.3.4-2.6 1.1-3.4 2.3-.9 1.4-1.2 3-.9 4.5.1.6.6.9 1 1.4-.1 0-.1 0 0 0zM538.1 302.7l14.7 9.6c1.1.7 2.6.4 3.3-.7.7-1.1.4-2.6-.7-3.3l-3.2-2.1c8-11.9 12.6-16.5 28.5-19.9l-30.8-20.4c3.2 16.1.8 22.1-7 34.2l-3.2-2.1c-1.1-.7-2.6-.4-3.3.7-.7 1.1-.4 2.6.7 3.3l1 .7zM539.9 332.9c.5.3 1 .3 1.5.3.7-.1 1.4-.3 1.8-1 .2-.3.1-.6.2-.9.1-.3.2-.6.2-.9-.1-.2-.3-.4-.4-.6-.2-.3-.3-.7-.6-.9l-15.7-10.3c-.3-.2-.7-.2-1.1-.2-.2 0-.3-.1-.5-.1-.7.1-1.4.3-1.8 1-.4.6-.5 1.2-.3 1.8.1.6.5 1.2 1 1.5l15.7 10.3z"/><path class="st1" d="m493.5 402.2.1.1 2.5-4.3h-.1l-9.4-4.4z"/><path class="st0" d="M230.2 236.5c1 1.1 2 2.2 2.8 3.2-21.9-31.2-60-82.4-86.7-101l52.9 80.7c14-2 24.3 8.8 31 17.1zM197 221.2l-53.6-81.8c5.6 29.9 34.9 81.8 55.2 115.2-6.4-13.1-5-25.3-1.6-33.4z"/><path class="st0" d="m217.2 284.1 31.7-21.1c-1.4-2.2-4-6.1-7.6-11.2l-8.1-11.5c-.9-1.1-1.9-2.4-3.1-3.8-6.7-7.4-17.7-16.3-30.6-14.4-3.6 8.4-5.6 23.8 1 35.9 2.6 4.2 5 8.1 7.2 11.5l9.5 14.6z"/><path class="st1" d="m409.6 526.3-9.6-14.6-2.7-4.2-62.9-95.5s0 .1-.1.1l40.4 61.4c1.5 2.2 2.4 3.6.2 5.1-2.2 1.5-3.6-.7-5.1-2.9l-39.1-59.5c-2.2 1.2-6.3 3.6-9.6 4.7l66.7 101.4 2.7 4.2 9.6 14.6 2.7 4.2L529.5 738l13.4-8.8-130.6-198.7-2.7-4.2zM248.9 263l-31.7 21.1 1.3 2 .3.5.5-.3 30.8-20.4.8-.5-7.1-10.1 5.3 7.6zM197 221.2c-3.4 8.1-4.8 20.3 1.6 33.4.7 1.4 1.5 2.8 2.4 4.1-.2-.3-.2-.6-.4-.8-6.7-12.1-4.6-27.5-1-35.9 12.9-1.8 23.9 7.1 30.6 14.4-6.7-8.3-17-19-31.1-17.1l-52.9-80.7c-1.2-.8-2.4-1.8-3.5-2.4.1 1 .5 2.1.6 3.1l53.7 81.9z"/><path class="st1" d="M340.3 424c-.5-.7-1.4-.9-2.2-.4-.7.5-.9 1.4-.4 2.2.5.7 1.4.9 2.2.4.7-.5.9-1.5.4-2.2zM361.2 454.6c-.5-.7-1.4-.9-2.2-.4-.7.5-.9 1.4-.4 2.2.5.7 1.4.9 2.2.4.7-.5.9-1.5.4-2.2zM350 438.3c-.5-.7-1.4-.9-2.2-.4-.7.5-.9 1.4-.4 2.2.5.7 1.4.9 2.2.4.7-.5.9-1.5.4-2.2zM371.5 470.5c-.5-.7-1.4-.9-2.2-.4-.7.5-.9 1.4-.4 2.2.5.7 1.4.9 2.2.4.6-.5.8-1.5.4-2.2z"/><path class="st0" d="m262.5 307.1-10.7 7c-2.8 1.8-3.5 5.6-1.7 8.3.8 1.2 2.1 1.9 3.4 2.3.3.1.5.2.8.2.4.1.8-.2 1.2-.2l15.2-10h.1c1-1.9 1.3-4 .1-5.9-.8-1.2-2.1-1.9-3.4-2.3-.3-.1-.5-.2-.8-.2-1.5-.2-3-.1-4.2.8zM247.8 306.2l-3.2 2.1c-1.1.7-1.4 2.2-.7 3.3.7 1.1 2.2 1.4 3.3.7l14.7-9.6 1.1-.7c1.1-.7 1.4-2.2.7-3.3-.7-1.1-2.2-1.4-3.3-.7l-3.2 2.1c-7.8-12.1-10.2-18.1-7-34.2l-30.8 20.4c15.8 3.4 20.4 8 28.4 19.9zM374.7 473.5l-40.4-61.4s0-.1.1-.1c.5-.9 1.1-1.7 1.5-2.8-.1-.1-1.3-1.8-3.3-4.4-11-15-46.4-64-56-77.3l-9.9 6.5.1.2-221 153.9L211.2 410 64.4 519 304 398l9.4-4.4-6.9 8.6 8.6 14.7 2.5 4.4c.9.1 2.2-.1 3.4-.5 3.4-1.1 7.4-3.4 9.6-4.7l39.1 59.5c1.5 2.2 2.9 4.4 5.1 2.9 2.3-1.3 1.4-2.8-.1-5zm-34.8-47.4c-.7.5-1.7.3-2.2-.4-.5-.7-.3-1.7.4-2.2.7-.5 1.7-.3 2.2.4.5.8.3 1.8-.4 2.2zm9.7 14.3c-.7.5-1.7.3-2.2-.4-.5-.7-.3-1.7.4-2.2.7-.5 1.7-.3 2.2.4.5.8.3 1.8-.4 2.2zm11.1 16.4c-.7.5-1.7.3-2.2-.4-.5-.7-.3-1.7.4-2.2.7-.5 1.7-.3 2.2.4.6.7.4 1.7-.4 2.2zm10.3 15.9c-.7.5-1.7.3-2.2-.4-.5-.7-.3-1.7.4-2.2.7-.5 1.7-.3 2.2.4.5.7.3 1.7-.4 2.2zM257.3 329c-.4.4-.8.8-.9 1.4-.1.3.1.6.2.9s0 .6.2.9c.4.6 1.1.9 1.8 1 .5 0 1 0 1.5-.3l15.7-10.3c.6-.4.9-.9 1-1.5.1-.6 0-1.3-.3-1.8-.4-.6-1.1-.9-1.8-1-.1 0-.3.1-.4.1-.4 0-.8 0-1.1.2l-15.7 10.3c-.1 0-.1.1-.2.1z"/><path class="st1" d="M304 398h-.1l2.5 4.3.1-.1 6.9-8.6z"/><path class="st0" d="m754.1 488.1-221-153.9.1-.2-9.9-6.5c-9.6 13.3-45 62.4-56 77.3-1.9 2.7-3.2 4.3-3.3 4.4.3 1 1 1.8 1.5 2.8 0 0 0 .1.1.1l-40.4 61.4c-1.5 2.2-2.4 3.6-.2 5.1 2.2 1.5 3.6-.7 5.1-2.9l39.1-59.5c2.2 1.2 6.3 3.6 9.6 4.7 1.3.4 2.5.6 3.4.5l2.5-4.4 8.6-14.7-6.9-8.6 9.4 4.4L735.6 519 588.8 410l165.3 78.1z"/><path class="st1" d="M459.7 424c-.5.7-.3 1.7.4 2.2.7.5 1.7.3 2.2-.4.5-.7.3-1.7-.4-2.2-.8-.6-1.7-.3-2.2.4zM438.8 454.6c-.5.7-.3 1.7.4 2.2.7.5 1.7.3 2.2-.4.5-.7.3-1.7-.4-2.2-.7-.5-1.7-.3-2.2.4zM450 438.3c-.5.7-.3 1.7.4 2.2.7.5 1.7.3 2.2-.4.5-.7.3-1.7-.4-2.2-.8-.6-1.8-.4-2.2.4zM428.5 470.5c-.5.7-.3 1.7.4 2.2.7.5 1.7.3 2.2-.4.5-.7.3-1.7-.4-2.2-.7-.5-1.7-.3-2.2.4z"/></svg>