<svg version="1.1" id="Calque_6" xmlns="http://www.w3.org/2000/svg" x="0" y="0" viewBox="0 0 800 800" style="enable-background:new 0 0 800 800" xml:space="preserve"><style>.st0{fill:#fff}.st1{fill:#c2c2c2}</style><path class="st0" d="M572.2 318.9V204.5c0-3.8-3.1-6.9-6.9-6.9s-6.9 3.1-6.9 6.9v114.4c0 3.8 3.1 6.9 6.9 6.9s6.9-3.1 6.9-6.9z"/><path class="st0" d="M626.7 276.8c-4.4-1.5-9.6-1-11.1-.1-.5 1.8-.9 3.6-1.7 5.3-1.4 3.3-3.1 6.4-5.1 9.3-7.4 11-18.9 19-32.1 22.4v5.2c0 4.3-2.4 7.9-5.9 9.8-2.5.3-4.9.7-7.5.7-1 0-1.9-.2-2.9-.3-3.9-1.8-6.6-5.7-6.6-10.3v-4.3c-11.2-2-21.2-7.3-29-14.9-2.6-2.5-4.9-5.3-7-8.4-2-2.9-3.7-6-5.1-9.3-1-2.3-1.6-4.7-2.2-7.1-1.1-1.2-4.5-2.1-8.5-1.4-3.8.7-6.6 2.5-7.7 5-1.8 151.6-39.5 281.3-93.4 342.2h-.1c-20.8 23.8-44 37.4-68.7 37.4h138.5v-.1c87.4-1 158.2-168.2 161.3-377-1.1-2.2-3.3-3.5-5.2-4.1zm-124.6 22.8c-.4.2-.7.3-1.1.3-.8 0-1.6-.5-2-1.2-.6-1.1-1.2-2.3-1.7-3.4-.5-1.2 0-2.5 1.1-3s2.5 0 3 1.1 1 2.2 1.6 3.2c.7 1 .2 2.4-.9 3zm9.1 12.8c-.4.4-1 .5-1.5.5-.6 0-1.3-.3-1.7-.8l-2.4-3c-.8-1-.6-2.4.4-3.2 1-.8 2.5-.5 3.2.4.7 1 1.5 1.9 2.3 2.8.8 1 .7 2.5-.3 3.3zm11.8 10.4c-.5.6-1.2.9-1.9.9-.5 0-.9-.2-1.3-.5l-3-2.4c-1-.8-1.1-2.3-.3-3.2.8-1 2.3-1.1 3.2-.3.9.8 1.8 1.5 2.8 2.2 1.1.8 1.3 2.3.5 3.3zm13.7 7.6c-.4.9-1.3 1.4-2.1 1.3-.3 0-.6-.1-.9-.2-1.2-.5-2.3-1.1-3.4-1.7-1.1-.6-1.6-2-1-3.1.6-1.2 2-1.6 3.1-1 1.1.5 2.1 1.1 3.2 1.5 1.1.6 1.6 2 1.1 3.2zm12.8 6.1h-.4c-1.2-.2-2.5-.5-3.7-.8-1.2-.3-2-1.6-1.7-2.8.3-1.2 1.5-2 2.8-1.7 1.2.3 2.3.6 3.5.8 1.2.2 2.1 1.5 1.8 2.7-.2 1-1.2 1.8-2.3 1.8zm15.7 1.4h-3.5c-1.3 0-2.4-1.1-2.4-2.3s.9-2.3 2.2-2.2H565.1c1.2.2 2.3 1 2.3 2.2.1 1.2-.9 2.2-2.2 2.3zm16.1-2.2c-1.2.3-2.5.6-3.7.8h-.5c-1.1 0-2-.8-2.2-1.8-.2-1.2.6-2.5 1.8-2.7 1.2-.2 2.4-.5 3.5-.8 1.2-.4 2.5.4 2.8 1.7.3 1.2-.5 2.5-1.7 2.8zm15.2-5.7c-1.1.6-2.3 1.1-3.5 1.7-.3.2-.7.2-1 .2-.9 0-1.7-.5-2-1.4-.5-1.1 0-2.5 1.1-3s2.2-1 3.2-1.6c1.1-.6 2.5-.2 3.1 1 .6 1.1.2 2.5-.9 3.1zm13.5-9-3 2.4c-.4.3-.9.5-1.4.5-.7 0-1.3-.3-1.8-.9-.8-1-.6-2.4.4-3.2.9-.7 1.9-1.5 2.8-2.2 1-.8 2.4-.7 3.2.3.9.9.7 2.3-.2 3.1zm11.1-11.7c-.8 1-1.6 2-2.4 2.9-.5.5-1.1.8-1.8.8-.5 0-1-.2-1.4-.5-1-.8-1.1-2.2-.3-3.2.8-.9 1.5-1.9 2.3-2.8.8-1 2.2-1.2 3.2-.4 1 .8 1.2 2.2.4 3.2zm8.4-13.9c-.5 1.2-1.1 2.3-1.7 3.4-.4.8-1.2 1.3-2.1 1.2-.3 0-.7-.1-1-.3-1.1-.6-1.6-2-1-3.1.5-1.1 1.1-2.2 1.6-3.2.5-1.2 1.9-1.7 3-1.1 1.2.6 1.7 1.9 1.2 3.1zM632.1 261.4c0-.3.1-.5.1-.8 0-.4-.1-.8-.1-1.2v-.1c-.2-13.7-4.5-26.3-11.6-36.9-9.5-14.1-24-24.5-41.1-28.5-4.3-1-8.7-1.6-13.2-1.8-1 0-1.9-.3-2.8-.3-.8 0-1.5.2-2.3.2h-.2c-18.4.7-34.9 8.4-46.8 20.8-.3.3-.5.6-.8.9-2.7 2.8-5.1 5.8-7.3 9-.7 1-1.1 2.2-1.7 3.2-1.6 2.7-3.2 5.3-4.4 8.2-.9 2.1-1.4 4.4-2 6.6-.6 2.1-1.4 4-1.9 6.2-.9 4.2-1.3 8.6-1.3 13.1 0 .2-.1.4-.1.6v.4h-.2c0 2 .1 3.9.1 5.9 0 1.6-.1 3.2-.1 4.8 1.9-1.3 4.2-2.3 6.8-2.7 2.6-.4 5.5-.3 8 .3-.5-2.8-.9-5.7-.9-8.7 0-22.7 13.9-42.2 33.5-50.6 3.7-1.6 7.7-2.6 11.8-3.4v-2.2c0-6.3 5.1-11.5 11.5-11.5s11.5 5.1 11.5 11.5v3.1c2.7.7 5.4 1.4 7.9 2.5 3.3 1.4 6.4 3.1 9.3 5.1 5.8 4 10.9 9 14.8 14.8 5.9 8.8 9.4 19.3 9.4 30.7 0 3.7-.4 7.4-1.1 10.9 3.3-.5 7.5-.3 11 .9 1.6.5 2.7 1.3 3.9 2.1 0-2.6.2-5 .2-7.6.2-1.8.1-3.6.1-5.5z"/><path class="st1" d="M237.8 319.8c3.8 0 6.9-3.1 6.9-6.9V205.7c-4.7-.7-9.2-.8-13.7-.3v107.5c-.1 3.8 3 6.9 6.8 6.9z"/><path class="st1" d="m305.8 281.3-.2.1c-.7-1.9-2.5-3-4.3-3.8-.5-.2-.9-.5-1.4-.7-5.1-1.8-11.4-1.2-13-.3-6.8 15.7-20.8 27.4-37.7 31.4v4.8c0 4.5-2.6 8.2-6.4 10.1-1.6.8-3.2 1.3-5.1 1.3-1.7 0-3.3-.4-4.7-1.1-4-1.8-6.7-5.8-6.7-10.4v-4.2c-11-2.1-20.8-7.4-28.4-15.1-5.3-5.3-9.4-11.7-12.2-18.8-1.2-1.2-5-2-9.3-1.3-2 .3-3.7 1-5.1 1.8-1.5.9-2.6 2-3.2 3.2C172 485.5 242.3 650.6 329 652c.4 0 .8.1 1.1.1 24.6 0 47.9-13.6 68.8-37.2-52.7-59.7-90-185.7-93.1-333.6zm-129.1 12.1c-.3.2-.7.3-1.1.3-.8 0-1.6-.4-2-1.2-.6-1.1-1.2-2.3-1.8-3.4-.6-1.1-.1-2.5 1.1-3.1 1.1-.6 2.5-.1 3.1 1.1.5 1.1 1.1 2.1 1.6 3.2.6 1.1.2 2.5-.9 3.1zm9.4 12.6c-.4.4-1 .6-1.5.6-.6 0-1.3-.3-1.7-.8-.8-1-1.6-1.9-2.4-2.9-.8-1-.6-2.4.4-3.2 1-.8 2.4-.6 3.2.4.8.9 1.5 1.9 2.3 2.8.7.8.6 2.2-.3 3.1zm12 10.1c-.4.6-1.1 1-1.9 1-.5 0-.9-.1-1.3-.4-1-.7-2.1-1.5-3-2.3-1-.8-1.1-2.2-.4-3.2.8-1 2.2-1.1 3.2-.4.9.8 1.9 1.5 2.8 2.2 1.1.6 1.3 2 .6 3.1zm13.9 7.2c-.4.9-1.2 1.4-2.1 1.4-.3 0-.6-.1-.9-.2-1.2-.5-2.3-1-3.5-1.6-1.1-.6-1.6-1.9-1.1-3.1.5-1.2 1.9-1.6 3.1-1.1 1.1.5 2.1 1 3.2 1.5 1.2.6 1.8 1.9 1.3 3.1zm12.9 5.8h-.4c-1.3-.2-2.5-.5-3.7-.8-1.2-.3-2-1.5-1.7-2.7s1.4-2 2.7-1.7c1.2.3 2.3.5 3.5.7 1.3.2 2.1 1.4 1.9 2.6-.2 1.1-1.2 1.9-2.3 1.9zm15.8 1c-1.2.1-2.3.1-3.5.1-1.3 0-2.5-1-2.5-2.3s.9-2.3 2.1-2.3h.3c1.1 0 2.2 0 3.3-.1 1.2-.3 2.3.9 2.4 2.2.1 1.3-.9 2.4-2.1 2.4zm16-2.5c-1.2.3-2.4.7-3.7.9-.2 0-.3.1-.5.1-1.1 0-2-.7-2.2-1.8-.3-1.2.5-2.5 1.7-2.7 1.2-.3 2.3-.6 3.5-.9 1.2-.4 2.5.4 2.8 1.6.3 1.2-.4 2.4-1.6 2.8zm15-6.1c-1.1.6-2.3 1.2-3.4 1.7-.3.2-.7.2-1 .2-.9 0-1.7-.5-2.1-1.3-.5-1.1-.1-2.5 1.1-3 1.1-.5 2.1-1.1 3.2-1.6 1.1-.6 2.5-.2 3.1.9.6 1.1.2 2.5-.9 3.1zm13.3-9.3c-1 .8-1.9 1.6-2.9 2.4-.4.3-.9.5-1.4.5-.7 0-1.3-.3-1.8-.9-.8-1-.6-2.4.4-3.2.9-.8 1.9-1.5 2.8-2.3 1-.8 2.4-.7 3.2.2.7 1.1.6 2.5-.3 3.3zm10.9-11.9c-.7 1-1.5 2-2.3 3-.4.6-1.1.9-1.8.9-.5 0-1-.2-1.4-.5-1-.8-1.2-2.2-.4-3.2.8-.9 1.5-1.9 2.2-2.9.8-1 2.2-1.2 3.2-.5s1.2 2.1.5 3.2zm8-14.1c-.5 1.2-1 2.3-1.6 3.5-.4.8-1.2 1.3-2.1 1.3-.3 0-.7-.1-1-.2-1.1-.6-1.6-1.9-1.1-3.1l1.5-3.3c.5-1.2 1.9-1.8 3-1.2 1.2.5 1.8 1.8 1.3 3zM175.6 269.1c2.7-.5 5.7-.5 8.3.1-1.3-4.6-2.1-9.4-2.1-14.4 0-18.9 9.6-35.4 24.2-45.3 4.9-3.3 10.3-5.8 16.1-7.4l-.1-.1c.6-.2 1.2-.2 1.8-.4.8-.2 1.6-.3 2.4-.5v-.1c.4-.1.7 0 1.1-.1 6.1-1 12.5-1 18.9 0 .5.1 1 0 1.5.1s1 .3 1.5.5c.1 0 .2 0 .3.1 1.1.2 2.1.4 3.2.7l-.1.3c22.5 6.9 39 27.6 39 52.3 0 5.9-1.2 11.4-2.9 16.7 3.8-.6 8.7-.3 12.7 1.1.5.2.8.5 1.3.7 1.1.5 2.1 1 3 1.6-.1-4.6-.2-9.2-.2-13.8 0-2 .1-3.9.1-5.9h-.2v-.4c0-24.9-13.3-46.8-33.1-58.9-2.8-1.7-5.8-3.2-8.9-4.6-6.6-2.8-13.7-4.2-21.1-4.8-1.9-.2-3.7-.6-5.7-.6-4.7 0-9.3.5-13.8 1.4-2.1.4-4 1.2-6.1 1.9-2.2.7-4.6 1.2-6.7 2.1-2.9 1.2-5.6 2.8-8.3 4.4-1 .6-2.2 1.1-3.2 1.7-3.3 2.2-6.4 4.8-9.3 7.5-.2.2-.5.4-.8.6-12.8 12.5-20.8 29.9-20.8 49.2 0 .3.1.6.1 1 0 1.8-.1 3.5-.1 5.3 0 3.7.2 7.2.2 10.8.6-.4 1.3-.7 1.9-1 1.9-.8 3.7-1.5 5.9-1.8zM565.1 333.3H561.5c-1.3 0-2.2 1-2.2 2.2s1.1 2.3 2.4 2.3h3.5c1.3 0 2.3-1.1 2.2-2.3 0-1.2-1-2-2.3-2.2zM550 331.9c-1.2-.2-2.3-.5-3.5-.8-1.3-.3-2.5.4-2.8 1.7-.3 1.2.4 2.5 1.7 2.8 1.2.3 2.5.6 3.7.8h.4c1.1 0 2.1-.7 2.3-1.8.3-1.2-.5-2.4-1.8-2.7zM580.2 331.2c-1.2.3-2.3.5-3.5.8-1.2.2-2 1.5-1.8 2.7.2 1.1 1.1 1.8 2.2 1.8h.5c1.3-.2 2.5-.5 3.7-.8 1.2-.3 2-1.5 1.7-2.8-.3-1.2-1.6-2-2.8-1.7zM532.4 325.8c-1.1-.6-2.5-.2-3.1 1-.6 1.1-.1 2.5 1 3.1 1.1.6 2.3 1.1 3.4 1.7.3.1.6.2.9.2.9 0 1.7-.5 2.1-1.3.5-1.2 0-2.5-1.1-3-1.1-.7-2.2-1.2-3.2-1.7zM594.4 325.9c-1.1.5-2.1 1.1-3.2 1.6s-1.7 1.9-1.1 3c.4.8 1.2 1.3 2 1.4.3 0 .7-.1 1-.2 1.2-.5 2.3-1.1 3.5-1.7 1.1-.6 1.6-1.9 1-3.1-.7-1.2-2.1-1.6-3.2-1zM519.7 317.3c-1-.8-2.4-.7-3.2.3-.8 1-.7 2.4.3 3.2l3 2.4c.4.3.9.4 1.3.5.7 0 1.4-.3 1.9-.9.8-1 .6-2.4-.5-3.2-.9-.7-1.8-1.5-2.8-2.3zM607 317.5c-.9.7-1.9 1.5-2.8 2.2-1 .8-1.2 2.2-.4 3.2.4.6 1.1.9 1.8.9.5 0 1-.1 1.4-.5 1-.8 2-1.5 3-2.4 1-.8 1.1-2.2.3-3.2-.9-.9-2.3-1-3.3-.2zM509.3 306.3c-.7-1-2.2-1.2-3.2-.4-1 .8-1.2 2.2-.4 3.2l2.4 3c.4.5 1.1.8 1.7.8.5 0 1.1-.2 1.5-.5 1-.8 1.1-2.2.3-3.2s-1.6-1.9-2.3-2.9zM617.5 306.5c-.7.9-1.5 1.9-2.3 2.8-.8 1-.7 2.4.3 3.2.4.3.9.5 1.4.5.7 0 1.3-.3 1.8-.8.8-1 1.6-2 2.4-2.9.8-1 .6-2.4-.4-3.2-1-.8-2.4-.6-3.2.4zM501.5 293.3c-.5-1.1-1.9-1.7-3-1.1-1.2.5-1.7 1.9-1.1 3 .5 1.2 1.1 2.3 1.7 3.4.4.8 1.2 1.2 2 1.2.4 0 .8-.1 1.1-.3 1.1-.6 1.6-2 1-3.1-.6-1-1.2-2-1.7-3.1zM625.3 293.5c-.5 1.1-1 2.2-1.6 3.2-.6 1.1-.1 2.5 1 3.1.3.2.6.2 1 .3.9 0 1.7-.4 2.1-1.2.6-1.1 1.1-2.3 1.7-3.4.5-1.2 0-2.5-1.1-3-1.2-.7-2.6-.2-3.1 1z"/></svg>