<svg version="1.1" id="Calque_20" xmlns="http://www.w3.org/2000/svg" x="0" y="0" viewBox="0 0 800 800" style="enable-background:new 0 0 800 800" xml:space="preserve"><style>.st0{fill:#fff}.st1{fill:#b8b8b8}</style><path class="st0" d="M537.5 526.7c13.5-11.1 37-30.8 59.8-51.4 18.6-16.9 47.3-46 46.7-44.6 19.8-44.7 37.4-73.5 44.4-84.4v.1C641.5 376.9 583 446.7 537.5 526.7zm86.5-95.8c-.5.1-.9.2-1.4.2-2.7 0-5.1-1.8-5.8-4.5-.8-3.2 1.2-6.4 4.4-7.2 4.9-1.2 11.6-4.3 12.9-17.1.3-3.3 3.3-5.4 6.5-5.3 3.3.3 5.6 3.3 5.3 6.5-1.9 18.7-13 25.3-21.9 27.4zM309.2 534.7c43.5-14.1 88.5-28.5 196.2-6.1.5.1 1 .2 1.6.3 11.8-29.1 34.2-65.1 47.7-86.9 1.4-2.2 2.5-4 3.7-5.9-24.8 3.7-110.6 4.1-125.5 4.1-16.6 0-16.1.5-16.1 9 0-2.4 0-4.1.3-5.4v65.1c0 1.6-1.3 2.8-2.8 2.8-1.6 0-2.8-1.3-2.8-2.8v-59.7h-80l-2 64.2c0 1.5-1.3 2.7-2.8 2.7h-.1c-1.6 0-2.8-1.4-2.7-2.9l2.3-75.2s.1 0 .1.1c-19-10.5-22.5-17.6-24.5-27.1-.3-1.3-.5-3.1-.8-5.3v.1l-62.1 104.6c-.5.9-1.4 1.4-2.4 1.4s-1.9-.5-2.4-1.4L169 399.8v-11.2l67.4 114.9 63.7-107.3c-1.1-14.6-1.9-34.3-2.9-40.9-1.5-9.5-16.1-12.6-16.1-20.1h-76.9c-3 5.5-8.5 9.6-21.6 14.6-13.1 5-13.6 19.1-13.6 19.1v51.8l-50.3 28.6c12.1 42.7 22.6 64.3 59.8 90.5 10.1 7.1 22.1 11 35.3 12.8.5-.5 1.2-.8 2-.8 40.4-.1 66.1-8.4 93.4-17.1z"/><path class="st0" d="m698.5 426-54.2 4.6 5.9-.5c-33.9 40.7-119.8 109.6-120.7 110.3-.5.4-1.1.6-1.8.6-.6 0-1.3-.2-1.8-.6-1-.9-1.3-2.3-.7-3.5 48.2-88.6 113.9-167.7 164.6-198.6-4.8-6.4-16.9-15.6-16.9-15.6-53.8 30.2-82.4 79.9-108.6 112.1-1.6 2.5-41.8 69.6-53.1 98.5-.2.6-.7 1.1-1.3 1.4-.6.3-1.3.4-1.9.3-109-23.3-153.9-8.9-197.2 5.1-11.4 3.7-23.1 7.4-35.8 10.4 35.7-5.2 73.8-14.5 107.5-16.3 55.9-2.9 81.4 4.5 124.6 11.6s63.9 13.8 121.2-18.4c37.5-21.1 76.8-79.3 70.2-101.4zM297.4 304l-151.5-81.9-6.3 11.6 152.5 79.5zM204.7 328.1h73.4s3.3-8.8 8.2-12.8l-116.1-60.5c19.6 16.5 37.7 40.5 34.5 73.3z"/><path class="st1" d="m286.3 315.4 3.8 2 2.1-4.1-.1-.1-152.5-79.5h-.1l-2.1 4.1 32.8 17.1zM169 388.6v11.2l64.9 110.7c.5.9 1.4 1.4 2.4 1.4s1.9-.5 2.4-1.4l62.1-104.6v-.1c-.3-2.7-.6-6-.8-9.6l-63.7 107.3L169 388.6zM323.8 513.3c0 1.6 1.2 2.9 2.7 2.9h.1c1.5 0 2.8-1.2 2.8-2.7l2-64.2h-5.1s-.3-5.4-.2-8.7c0-1.1.1-2 .2-2.4 0 0-.1 0-.1-.1 0 0-.1 0-.1-.1l-2.3 75.3zM414.3 511.8c1.6 0 2.8-1.3 2.8-2.8v-65.1c-.3 1.3-.3 3-.3 5.4h-5.3V509c-.1 1.5 1.2 2.8 2.8 2.8z"/><path class="st1" d="M508.1 535c.7.1 1.4 0 1.9-.3.6-.3 1-.8 1.3-1.4 11.4-29 51.6-96 53.1-98.5-.4.2-1.1.4-1.9.6-.2.1-.3.1-.5.2-1.1.2-2.3.5-3.8.7-1.2 1.9-2.3 3.7-3.7 5.9-13.5 21.7-35.9 57.8-47.7 86.9-.5-.1-1-.2-1.6-.3-107.7-22.4-152.7-8-196.2 6.1-27.2 8.8-53 17.1-93.3 17.1-.8 0-1.5.3-2 .8 18.5 2.6 39.4 1.1 61.2-2.1 12.8-3.1 24.4-6.7 35.8-10.4 43.6-14.2 88.4-28.6 197.4-5.3zM525.3 536.9c-.6 1.2-.4 2.7.7 3.5.5.4 1.2.6 1.8.6.6 0 1.2-.2 1.8-.6.9-.7 86.8-69.6 120.7-110.3l-5.9.5h-.4c.6-1.4-28.1 27.7-46.7 44.6-22.8 20.7-46.2 40.3-59.8 51.4 45.5-80 104-149.8 150.8-180.4v-.1c2.1-3.2 3.3-5 3.3-5-.3-.9-.9-1.9-1.7-3-50.7 31-116.4 110.1-164.6 198.8z"/></svg>