<svg version="1.1" id="Calque_18" xmlns="http://www.w3.org/2000/svg" x="0" y="0" viewBox="0 0 800 800" style="enable-background:new 0 0 800 800" xml:space="preserve"><style>.st1{fill:#c2c2c2}.st2{fill:#fff}</style><path d="M299.1 522.7h9.1L324.5 246l.2-2.7 2.4-1.2c2.6-1.3 5.4-2.1 8-3.3 1.7-17.1 16-30.6 33.6-30.6 11 0 20.8 5.4 27 13.6 10.9-1.5 21.9-2.6 33.1-2.6 10.7 0 21.3.9 31.7 2.3l-.2-2.8c-28.6-13.6-60.5-21.2-94.3-21.2s-65.7 7.6-94.3 21.2l-18.5 315c8.9-9.8 25-11 45.9-11z" style="fill:#b5b5b5"/><path class="st1" d="M339.9 236.9c16.4-6.7 33.2-11.4 50.6-14.2-5.4-6-13.1-9.9-21.8-9.9-14.3.1-26.3 10.5-28.8 24.1zM301.8 606.2c.4.1.8.1 1.1.2h.4l.1-2.2 4.5-76.9H299c-8.2 0-15.3.2-21.4.9-18.3 2.2-27.4 9.1-27.4 30.7 0 0 2.5 2.5 6.5 6.4 3.9 3.8 9.2 9 14.7 14.4 11 10.7 22.7 22 25.9 24.6 1.5 1.1 3 1.6 4.5 1.9z"/><path class="st2" d="m477 287.1 15.3 260.1 57.2 53.9-19.7-334.9-1-17.2zM489.2 550.5H368.6l-57.2 54h234.9zM428.9 318.3c-18.2 0-32.9-14.4-33.8-32.3-3.3.6-6.6 1-9.8 1.9L370.1 546h117.6l-15.2-258.1c-3.2-.8-6.6-1.2-9.8-1.9-1 17.9-15.7 32.3-33.8 32.3zM383.6 283.6c3.8-1 7.7-1.6 11.6-2.3 1.6-17.2 16-30.9 33.6-30.9 17.7 0 32 13.6 33.6 30.9 3.9.7 7.8 1.3 11.6 2.3l52-38.3c-6.8-3.1-13.7-6.1-20.8-8.6-14.2-4.9-29.1-8.3-44.4-10.4-1.9-.3-3.7-.7-5.6-1-8.7-1-17.5-1.5-26.4-1.5-34.8 0-67.7 7.8-97.3 21.4l52.1 38.4zM365.4 547.2l15.3-260.1L329 249l-20.8 352.1z"/><path class="st2" d="M428.9 255c-16.2 0-29.3 13.2-29.3 29.3 0 16.2 13.2 29.3 29.3 29.3 16.2 0 29.3-13.2 29.3-29.3S445 255 428.9 255z"/><path d="M368.6 550.5h120.6l57.2 53.9h3.3l-.2-3.3-57.2-53.9L477 287.1l51.8-38.1-.2-2.7c-.8-.4-1.7-.6-2.5-1l-52 38.3c-3.8-1-7.7-1.6-11.6-2.3.1 1 .3 2 .3 3.1 0 .6-.1 1.1-.2 1.6 3.3.6 6.6 1 9.8 1.9L487.6 546H370.1l15.2-258.1c3.2-.8 6.6-1.2 9.8-1.9 0-.5-.2-1.1-.2-1.6 0-1 .2-2 .3-3.1-3.9.7-7.8 1.3-11.6 2.3l-52-38.3-1.1-.8-1.4 1.8-1.4 1.8 1.2.9 51.8 38.1-15.3 260.1-57.2 53.9-.2 3.3h3.3l57.3-53.9z" style="fill:#a1a1a1"/></svg>