<svg version="1.1" id="Calque_16" xmlns="http://www.w3.org/2000/svg" x="0" y="0" viewBox="0 0 800 800" style="enable-background:new 0 0 800 800" xml:space="preserve"><style>.st0{fill:#fff}</style><path class="st0" d="M177.3 329.7v146.1c0 27.8 22.6 50.4 50.3 50.4h39.9v-8.8c0-13.6 8.3-24.8 18.5-24.8h84.5c10.2 0 18.5 11.2 18.5 24.8v8.8h187.9c27.8 0 50.3-22.6 50.3-50.4V304.2H409.8c-83.2 0-117.6-15.6-142.7-26.9-3-1.4-8-3.6-14.2-6-30.5 1.3-48.5 11.8-58.5 21.3-10.9 10.2-17.1 23.7-17.1 37.1z"/><path class="st0" d="M649.8 304.2h-18v171.6c0 30.3-24.6 54.9-54.9 54.9h-188v20.8H267.5v-20.8h-39.9c-30.3 0-54.9-24.7-54.9-54.9V329.7c0-14.6 6.7-29.4 18.5-40.5 9.4-8.9 25.5-18.7 51.5-21.7-11.8-4.1-26.6-8.2-42.7-10.3-29.6 10.6-51.1 38.7-51.1 71.8v146.1c0 42.1 34.4 76.5 76.5 76.5h349.2c42.1 0 76.5-34.4 76.5-76.5V328.9c-.1-8.9.5-17.7-1.3-24.7z"/><path class="st0" d="M268.8 273c25 11.3 58.8 26.6 141 26.6H648c-.4-.8-.8-1.7-1.4-2.4-.1-.1-.3-.2-.4-.3-1-1.2-2.2-2.4-3.7-3.3-.5-.3-1.3-.5-1.9-.8-1.3-.6-2.4-1.2-4-1.6-2.4-.6-5.1-.9-8.3-.9H407.5c-16.1 0-30.4-.6-43-1.6-18.9-1.6-34.2-4.1-46.9-7.2-8.5-2-15.9-4.3-22.4-6.6-3.3-1.2-6.4-2.3-9.3-3.5-23.4-9.5-36.7-18.9-60.5-18.9-4.1 0-8.1.5-12 1.2-1.1.2-2.3.1-3.4.4 27.8 5 50.3 15.1 58.8 18.9z"/><path d="M649.8 304.2c-.4-1.7-1.1-3.2-1.8-4.6H409.8c-82.2 0-116-15.3-141-26.6-8.4-3.8-31-13.9-58.9-18.9-2 .4-3.9 1.2-5.8 1.8-1.4.5-2.8.8-4.1 1.3 16.2 2.1 30.9 6.3 42.7 10.3-26 3-42 12.8-51.5 21.7-11.8 11.1-18.5 25.9-18.5 40.5v146.1c0 30.3 24.6 54.9 54.9 54.9h39.9v20.8h121.4v-20.8h187.9c30.3 0 54.9-24.7 54.9-54.9V304.2h18.1zm-22.6 171.6c0 27.8-22.6 50.4-50.3 50.4h-188v-8.8c0-13.6-8.3-24.8-18.5-24.8H286c-10.2 0-18.5 11.2-18.5 24.8v8.8h-39.9c-27.8 0-50.3-22.6-50.3-50.4V329.7c0-13.4 6.2-26.9 17.1-37.1 10-9.4 28-20 58.5-21.3 6.2 2.4 11.2 4.6 14.2 6 25.1 11.4 59.5 26.9 142.7 26.9h217.5v171.6z" style="fill:#c2c2c2"/></svg>