<svg version="1.1" id="Calque_19" xmlns="http://www.w3.org/2000/svg" x="0" y="0" viewBox="0 0 800 800" style="enable-background:new 0 0 800 800" xml:space="preserve"><style>.st0{fill:#fff}.st1{fill:#c2c2c2}</style><path class="st0" d="m526.3 426.7.9-3.3c.4-1.3.4-2.7.3-4l-34.3-9.9c-.8 1.1-1.5 2.2-1.8 3.5l-1.1 3.9c-62.1-7.6-122.4 30.6-140.3 92.7-19.9 68.8 19.8 140.7 88.7 160.6 68.8 19.9 140.7-19.8 160.6-88.7 18.4-63.4-13.9-129.3-73-154.8zm59.3 150.9c-8.5 29.6-28.1 54.1-55.1 69-17.3 9.5-36.3 14.4-55.6 14.4-10.8 0-21.6-1.5-32.2-4.6-29.6-8.5-54.1-28.1-69-55.1-14.9-27-18.4-58.1-9.8-87.8 17.6-61.1 81.7-96.5 142.8-78.9 61.1 17.8 96.5 81.9 78.9 143z"/><path class="st0" d="M505.5 439.1c-10.2-3-20.5-4.4-30.7-4.4-48.1 0-92.5 31.6-106.5 80.1-8.2 28.4-4.9 58.4 9.5 84.3C392 625 415.6 643.8 444 652c28.4 8.2 58.4 4.9 84.3-9.5 25.9-14.3 44.7-37.8 52.9-66.3 16.9-58.6-17.1-120.1-75.7-137.1zm58.7 57.1c13.2 23.9 16.3 51.5 8.7 77.7-12.9 44.7-53.9 73.9-98.3 73.9-9.4 0-18.9-1.3-28.3-4-26.2-7.6-48-24.9-61.1-48.8-13.2-23.9-16.3-51.5-8.7-77.7 7.6-26.2 24.9-48 48.8-61.2 23.9-13.2 51.5-16.3 77.7-8.7 26.3 7.5 48 24.9 61.2 48.8zM515.1 362l-.7 2.6L533 370l.7-2.6c1-3.4-1-6.9-4.3-7.9l-6.4-1.9c-3.4-.9-6.9 1-7.9 4.4zM526.3 414.3l3.5 1c.6.2 1.1 0 1.6-.2.2-.1.4-.1.5-.2.5-.3 1-.8 1.2-1.5l.8-2.7c.4-1.4-.4-2.9-1.8-3.3l-36.4-10.5c-.6-.2-1.1 0-1.6.2-.2.1-.4.1-.5.2-.5.3-1 .8-1.2 1.5l-.8 2.7c-.2.7-.1 1.4.2 2 .3.6.9 1.1 1.6 1.3l3.9 1.1 29 8.4z"/><path class="st0" d="M347 377.6c0-.1 0-.2.1-.2 1.3-.9 2.5-2 3.3-3.5l12.6-25.8c.5-1 .7-2.1.8-3.1.2-.3.5-.4.7-.8l12.6-25.8c.3-.5.3-1.1.5-1.7l16.4-21.9c1.5-2 2.1-4.3 2-6.8l15.9-10.8c.8.2 1.5.7 2.4.7 1 0 2-.2 3-.5l24.9-8.6 21.9 15.1c1.6 1.1 3.4 1.6 5.2 1.6.5 0 1-.1 1.4-.1l6.7 15.7c-.6.9-1.5 1.6-2 2.6-2.8 5.7-3.2 12.2-1.1 18.2 1.9 5.4 5.7 9.7 10.6 12.6-3.6 14.1-.4 28.3 7.5 39.4 1.1 1.5 2.2 3 3.5 4.4l-1.6 5.7c-.4 1.3-.5 2.6-.3 3.8.2 1.6.9 3.1 1.9 4.4h.5l.6.2 36.4 10.5c.1 0 .1.1.2.1.8-.3 1.6-.3 2.3-.7.3-.2.5-.4.8-.6 1.4-1.2 2.6-2.7 3.2-4.5l1.3-4.5c1.7-.4 3.5-.7 5.1-1.2 14.4-4.8 26.2-16.3 30.7-32 7.3-25.3-7.3-51.8-32.6-59.1-9.6-2.8-19.3-2.4-28.1.5-2.3-3.3-5-6.2-8.9-8.1-1.8-.9-3.8-1.1-5.8-1.5l-10.3-24c-1-2.3-2.8-4-5-4.9-2.3-.9-4.8-.9-7.1.1l-.2.1-.1-.1-24.9-17.2c-2.5-1.7-5.6-1.9-8.3-.9-2.4-1.7-5.4-2.4-8.3-1.4l-25 8.6c-.9-.6-1.9-1.1-3-1.4-2-.5-4.1 0-5.7 1.2l-25.1 16.9c-3.3 2.2-4.8 5.9-4.5 9.6L357 300.8c-.6.8-.9 1.8-1.3 2.7-.2.2-.4.4-.5.7l-13.9 28.6c-.3.6-.3 1.2-.5 1.8l-13.6 27.9c0 .1 0 .2-.1.3-1.3.9-2.5 2-3.2 3.5l-13.3 27.2c-.9 1.8-1 3.7-.6 5.6-.8.8-1.5 1.8-1.9 3l-8.8 28.9c-.3.9-.2 1.9-.3 2.8-1 .8-2.1 1.4-2.7 2.6l-11.8 26.9c-.8.7-1.9 1.2-2.4 2.3l-12.8 29-19 6.5-14.6-20.1c.2-.8.4-1.6.4-2.5L235 453c1.5-1.3 2.6-3 3-5.1l5.2-25.9c1.3-.9 2.4-2 3.1-3.4l13.3-27.2c.8-1.6.9-3.2.7-4.9.1-.2.4-.4.5-.6l13.3-27.2c.9-1.9 1-4.1.6-6.1.1-.4.5-.6.6-.9l7.5-29.3c.1-.6.1-1.2.1-1.8.6-1.2 1.1-2.5 1-4l-2.1-30.2c0-.4-.2-.7-.3-1.1.5-.7.9-1.5 1.1-2.3.5-2 .2-4.1-.9-5.8L264.9 250c-1.2-2-3.1-3.3-5.2-3.9l-3.6-21.9c-.3-2-1.4-3.7-2.6-5.2l7.7-13.1c.5 0 .9.3 1.4.3 1.9 0 3.8-.3 5.6-.9 4.4-1.5 7.9-4.6 9.9-8.8 2.8-5.6 1.9-11.9-1.3-16.8l57.8 28.2c2.2 1.1 4.8.1 5.9-2l2-4.2c1.1-2.2.1-4.8-2-5.9l-136.6-66.6c-2.2-1.1-4.8-.2-5.9 2l-2 4.2c-1.1 2.2-.2 4.8 2 5.9l63.2 30.8c-5.8.5-11.3 3.7-14.1 9.3-.5 1-.5 2-.8 3h-.1c-2 .5-3.6 1.8-4.7 3.5l-16.1 27.4c-2.6 4.4-1.1 10 3.3 12.6l1.8 1.1 4.3 26.2c.5 2.8 2 5.3 4.4 7 1.1.8 2.4 1.3 3.6 1.6l12.6 20.7c0 .2-.1.4-.1.5l2.1 30.2c0 .1.1.2.1.3 0 .1-.1.2-.2.3l-7.5 29.3c-.3 1.2-.3 2.5-.1 3.7l-12.5 25.6c-.8 1.6-.9 3.2-.7 4.9-.1.2-.4.4-.5.6L223.3 406c-.5.2-1 .3-1.4.6-1.7 1.1-2.9 2.9-3.3 4.9l-5.8 28.9c-2.5 1.3-4.3 4-4.2 7l1 31.8c0 1.7.7 3.2 1.6 4.5-1.4 2.9-1.3 6.5.8 9.3l17.8 24.5c1.8 2.5 4.6 3.8 7.5 3.8.8 0 1.5-.5 2.3-.7l1.1 3.1c.7 2 2 3.5 3.9 4.4 1.1.5 2.2.8 3.4.8.8 0 1.7-.1 2.5-.4l30.1-10.3c3.5-1.2 5.8-4.4 6.1-7.9.4-.1.7-.1 1.1-.2 2.3-.9 4.1-2.6 5.1-4.9l11.4-25.8c1.1-.9 2.2-1.9 2.9-3.3l11.6-26.3c.5-1.2.8-2.5.8-3.8 1.7-1 3-2.5 3.6-4.4l8.8-28.9c.6-1.9.4-3.8 0-5.6.7-.7 1.5-1.2 1.9-2.1l13.1-27.4zm171.9-71.7c7.5-2.2 15.7-2.5 23.8-.2 22.4 6.5 35.3 29.9 28.9 52.3-3.7 12.8-13 22.3-24.4 27.1-1.5.6-3 1.3-4.6 1.7.2-1.1.4-2.1.3-3.1-.4-3.7-3.1-7-6.9-8.1l-27-7.8c-1-.3-2-.3-3-.3-1.8.1-3.5.7-4.9 1.6-.3.2-.5.4-.8.6-.9.8-1.5 1.9-2.1 3-1.1-1.4-2.1-2.9-3-4.4-5.6-9.1-7.7-20.3-5.2-31.4 2.2.7 4.5 1.1 6.8 1.1 2.6 0 5.2-.4 7.8-1.3 6-2.1 10.9-6.4 13.7-12.1 2.9-6 2.9-12.8.6-18.7zm-4.3 17.1c-2.3 4.7-6.4 8.3-11.4 10-4 1.4-8.2 1.1-12.2-.1 4.1-12.1 13.1-21.1 24.1-25.6 2 4.9 2 10.6-.5 15.7zm-11.4-27.1c.7.3 1.5.2 2.2.5 2.9 1.4 5.2 3.6 7 6.1-12 5.1-21.8 15-26.4 28.1-3.7-2.4-6.6-5.7-8.1-9.9-1.7-5-1.4-10.4.9-15.1 0-.1.1-.1.2-.2 1.5 3.5 4.9 5.6 8.5 5.6 1.2 0 2.4-.2 3.6-.8l7-3c4.5-1.9 6.6-6.8 5.1-11.3zm-4.6-1 .8 1.8c1.1 2.6-.1 5.7-2.7 6.9l-7 3c-2.7 1.1-5.7-.1-6.8-2.7l-.9-2.1c2.3-2.7 5-5 8.4-6.1 2.1-.7 4.3-1.1 6.5-1.1.5-.2 1.1.2 1.7.3zm-17.5-19.5c1.4-2 1.9-4.5 1.5-6.9-.2-.9-.6-1.7-1-2.5.4-.1.7-.2 1.1-.2.7 0 1.3.1 1.9.4 1.3.5 2.3 1.5 2.8 2.8l9.4 21.8c-2.6 0-5.2.2-7.8 1.1-3.5 1.2-6.4 3.3-8.9 5.8l-5.8-13.5c.9-.6 1.8-1.4 2.4-2.4l4.4-6.4zm-2.5-6.2c.3 1.4 0 2.7-.8 3.9l-4.3 6.3c-.2.3-.6.3-.9.6l-1.7-3.9c-.6-1.3-.6-2.7-.1-4 .5-1.3 1.5-2.3 2.8-2.8l3.9-1.7c.4.5 1 .9 1.1 1.6zm-30-21.4c1 0 2 .3 2.9.9l22.9 15.7-2.4 1c-2.3 1-4 2.8-4.9 5s-.9 4.8.1 7.1l1.6 3.6c-.9-.1-1.8 0-2.5-.5l-19.7-13.5c4.2-2 6.4-6.7 4.8-11.2l-2.5-7.2c-.1-.3-.4-.6-.5-.9h.2zm-3.8 1.8c.1.2.3.3.3.5l2.5 7.2c.9 2.7-.5 5.7-3.2 6.6l-1.7.6-1.4-.9c-1.1-.8-1.9-2-2.2-3.3s0-2.7.8-3.9l4.3-6.3c.2-.3.4-.3.6-.5zm-6.3-2.8c.6-.2 1.1-.3 1.7-.3.5 0 1 .3 1.5.5-.2.3-.5.4-.7.7l-4.3 6.3c-1.4 2-1.9 4.5-1.5 6.9.4 2 1.5 3.7 3 5.1l-21.3 7.3c1.5-1.5 2.7-3.3 3.1-5.4.5-2.8 0-5.7-1.6-8.1l-3.3-4.9 23.4-8.1zm-28.6 9.9 1.2-.4 3.9 5.8c1 1.5 1.4 3.3 1 5.1-.3 1.8-1.4 3.3-2.9 4.3l-2 1.3c-.8-.6-1.7-1.3-2-2.3l-2.5-7.2c-.8-2.7.6-5.7 3.3-6.6zm-29.3 15 24.5-16.5c-2.4 2.4-3.4 6-2.2 9.4l2.5 7.2c.5 1.4 1.5 2.3 2.5 3.3l-13 8.7c-.7-1.6-1.7-3.1-3.2-4.1l-6.1-4.6c-1.6-1.2-3.7-1.8-5.7-1.5-.5.1-.9.3-1.4.5.5-.9 1.2-1.8 2.1-2.4zm-2.5 7.4c.6-.8 1.4-1.3 2.4-1.4h.5c.8 0 1.5.3 2.2.7l6.1 4.6c1.1.8 1.5 2.1 2 3.3l-3.1 2.1c-1.7 1.1-3.9.7-5.1-1l-4.3-6.3c-.4-.6-.6-1.3-.7-2zm-2.8 3.7c.1.2.1.3.2.5l4.3 6.3c1.5 2.2 3.9 3.4 6.4 3.4 1.5 0 3-.4 4.3-1.3l.8-.6c-.2.4-.3.8-.6 1.2L377.4 310c-1-2.6-2.9-4.8-5.4-6l-6.9-3.3c-.9-.4-1.8-.6-2.7-.7l12.9-17.2zm-16.5 22.9c.7-1.1 1.8-1.7 3-1.7.5 0 1.1.1 1.6.4l6.9 3.3c1.6.8 2.8 2.2 3.4 3.9.4 1.1.4 2.2.2 3.3l-1.4 1.8c-.6.8-1.4 1.3-2.4 1.4-1 .1-1.9-.1-2.7-.7l-6.1-4.6c-1.4-1.1-2.4-2.7-2.6-4.4-.2-1-.1-1.9.1-2.7zm-3.1 6.1c.7 1.6 1.7 3.1 3.2 4.2l6.1 4.6c1.3 1 2.9 1.5 4.6 1.5.4 0 .7 0 1.1-.1h.1l-8.1 16.7c-1-2-2.5-3.8-4.7-4.9l-6.9-3.3c-1.3-.7-2.8-.7-4.1-.6l8.7-18.1zm-11.2 23.8c.6-1.2 1.9-2 3.2-2 .5 0 1.1.1 1.6.4l6.8 3.3c2.3 1.2 3.7 3.5 3.7 5.9-1.5 1.8-3.8 2.6-6 1.6l-6.9-3.3c-1.2-.6-2.2-1.7-2.6-3-.3-.9-.1-2 .2-2.9zm-3 6c.9 1.5 2.1 2.7 3.7 3.5l6.9 3.3c1.3.6 2.7.9 4 .9.7 0 1.3-.4 2-.6l-10.6 21.8c-.8-2.3-2.5-4.2-4.7-5.3l-6.9-3.3c-1.3-.6-2.6-.8-3.9-.9l9.5-19.4zm-11.1 23.9c.5-.1.9-.4 1.5-.4.8 0 1.5.2 2.3.5l6.9 3.3c1.2.6 2.2 1.7 2.6 3 .3.9 0 1.9-.2 2.8-1.2.3-2.5.4-3.7-.2l-6.9-3.3c-1.2-.6-2.2-1.7-2.6-3-.4-.9-.1-1.8.1-2.7zm-57.8 132 .7-.2c.6-.2 1.1-.3 1.7-.3 2.2 0 4.2 1.4 4.9 3.5l1.8 5.4-6.4-2.8c-1.3-.6-2.2-1.6-2.7-2.9-.4-.9-.1-1.8 0-2.7zm3.4-186.4-7.4-1.9c-2.4-.6-4.9-.3-7 1-.2.1-.3.3-.4.4l-1.4-20.4c2 1.8 4.4 3.1 7 3.1 1.9 0 3.9-.5 5.6-1.6l5.3-3.2 1.7 24.4c-1-.8-2.1-1.4-3.4-1.8zm2.5 8.6c-.6.6-1.3 1-2.2 1.1l-7.6.5c-1.8 0-3.5-.5-4.9-1.6-1-.9-1.7-2.1-2-3.5.4-1 .9-1.9 1.9-2.5 1.2-.7 2.6-.9 3.9-.6l7.4 1.9c1.3.3 2.5 1.2 3.2 2.4.4.7.3 1.5.3 2.3zm-18.8-35.8c.1-.6.2-1.2.6-1.7.6-.7 1.5-1.2 2.5-1.3l7.6-.5c1.7-.1 3.5.5 4.9 1.6.7.6.8 1.6 1.2 2.4l-6.2 3.8c-3.2 1.9-7.4.9-9.3-2.3l-1.3-2zm-9-100.7c1.5-3.2 4.2-5.5 7.6-6.7 1.4-.5 2.9-.7 4.3-.7 2 0 3.9.4 5.8 1.3 6.6 3.2 9.3 11.1 6.1 17.7-1.5 3.2-4.2 5.5-7.6 6.7-1.2.5-2.5.5-3.8.6.7-2 1-4.2.5-6.3-.7-2.8-2.5-5.1-5-6.6l-6.6-3.9c-.5-.3-1.1-.4-1.7-.6.2-.5.2-1 .4-1.5zm-.8 5.6 6.6 3.9c1.6.9 2.7 2.4 3.1 4.1.4 1.6.2 3.3-.6 4.7-.8-.2-1.5-.3-2.3-.6-4.8-2.3-7.4-7.2-7.3-12.2.2.1.4 0 .5.1zm-20 34.8c-1.6-1.6-2.3-4-1.1-6.1l16.1-27.4c.1-.2.4-.3.6-.5.2 6.1 3.5 12 9.4 14.9.7.3 1.4.3 2.1.5l-6.8 11.6c-2-1-4.2-1.6-6.6-1.2l-7.5 1.3c-3.5.5-5.9 3.5-6.2 6.9zm4.3 3-.3-1.8c-.3-2 1-3.9 3-4.2l7.5-1.3c1.4-.2 2.7.1 3.9.7l-3.9 6.6c-1.5 2.5-4.6 3.3-7.1 1.9l-3.1-1.9zm7.4 30c-.2.8-.1 1.5-.1 2.3-1.4-1-2.4-2.5-2.7-4.3l-3.8-22.8.2.1c1.5.9 3.1 1.3 4.6 1.3 3.2 0 6.3-1.6 8-4.6l3.4-5.9c.4.7.7 1.3.8 2.1l3.5 20.8c-1.2.2-2.3.6-3.4 1.2l-6.5 4c-2 1.4-3.5 3.4-4 5.8zm4.3 3.6c-.2-.9-.6-1.7-.4-2.6.3-1.4 1.2-2.5 2.3-3.2l6.5-4c.6-.4 1.3-.2 2-.3l.8 4.7c.3 2-1 3.9-3 4.2l-7.5 1.2c-.2 0-.5-.1-.7 0zm11.4 19.4s0 .1-.1.1l-9.5-15.6 7.1-1.2c4.2-.7 7-4.7 6.3-8.8l-.4-2.6c.2.3.6.3.8.6l16.4 26.8c-2.2-1.9-4.8-2.7-7.7-2.6l-7.6.5c-2.1.3-4 1.2-5.3 2.8zm2.9 41.8c2 2.3 4.8 3.9 8.1 3.9h.8l7.6-.5c.5 0 .9-.3 1.4-.4l-6 23.7c-.7-.6-1.3-1.2-2.2-1.6l-6.8-3.3c-2.2-1.1-4.7-1.3-7.1-.4-.5.2-.9.5-1.3.8l5.5-22.2zm-3 25c1.3-.4 2.7-.4 4 .3l6.9 3.3c1 .5 1.5 1.4 2 2.3-1.2 1.5-3 2.6-5.1 2.1l-7.4-1.9c-1.4-.3-2.5-1.2-3.2-2.4-.2-.3 0-.7-.2-1.1.6-1.2 1.7-2.1 3-2.6zm-5.1 7.1c1.2 1.4 2.7 2.5 4.5 3l7.4 1.9c.8.2 1.5.3 2.3.3 1.5 0 2.7-.7 4-1.4l-11.9 24.4c-.8-1-1.8-1.9-3.1-2.5l-6.8-3.3c-2.2-1.1-4.7-1.2-7-.4l10.6-22zm-9.4 25.6c1.3-.4 2.7-.4 4 .3l6.8 3.3c1.1.6 1.8 1.6 2.3 2.6-.5.5-.9 1.2-1.7 1.5-1.3.4-2.7.4-4-.3l-6.8-3.3c-1.1-.6-1.8-1.5-2.3-2.6.6-.5 1-1.2 1.7-1.5zm-4.2 5.2c.8 1 1.8 1.9 3.1 2.5l6.8 3.3c1.3.6 2.7.9 4 .9 1 0 2-.2 3-.5l-12 24.6c-.3-1.2-.7-2.4-1.5-3.5-1.6-2.4-4-4-6.9-4.6l-7.1-1.4 10.6-21.3zm-11.6 25.2 7.5 1.5c3.6.7 6 4.3 5.3 7.9l-.1.5c-1.3.4-2.6.4-3.9-.2l-6.8-3.3c-2.4-1.2-3.2-3.9-2.4-6.3.1 0 .2-.1.4-.1zm-4.6 4.3c.7 2.4 2.3 4.6 4.7 5.8l6.8 3.3c1.3.6 2.7.9 4 .9.2 0 .5-.1.7-.1l-4.6 22.9c-1.5-4.2-5.4-7.3-10-7.3h-.4l-6.6.2 5.4-25.7zm1.6 29.6h.2c3.6 0 6.6 2.9 6.7 6.5v.7c-.9.4-1.9.8-2.9.6l-7.5-1.5c-1.4-.3-2.5-1-3.3-2.2-.8-1.2-1-2.5-.8-3.9l7.6-.2zm-10.1 35.7-1-31.8v-.1c.3.9.5 1.7 1 2.5 1.4 2 3.4 3.4 5.9 3.9l7.5 1.5c.6.1 1.2.2 1.8.2.7 0 1.4-.2 2.1-.4l.7 21.5c-1.3-1.2-2.8-2.1-4.6-2.3-2.4-.4-4.9.2-6.9 1.6l-6 4.4c-.2-.3-.5-.6-.5-1zm16.9 2.2c-.9 1.4-2.2 2.5-4 2.6l-7.6.3h-.2c-.8 0-1.5-.5-2.2-.9l5.9-4.3c.9-.6 2-1 3-1 .3 0 .5 0 .8.1 1.4.2 2.6.9 3.4 2.1l.9 1.1zm8 27c-1.3 2.6-1.5 5.5-.5 8.3l.1.4c-1.9.4-4 .1-5.2-1.6l-17.8-24.5c-.8-1.2-1.1-2.6-.9-3.9 1.4.8 2.9 1.4 4.5 1.4h.3l7.6-.3c2.6-.1 4.9-1.2 6.5-3l12.7 17.4-1.2.4c-2.7.8-4.9 2.8-6.1 5.4zm3.3 6.9c-.6-1.7-.5-3.5.3-5.2.8-1.6 2.2-2.8 3.9-3.4l1.8-.6c.3.8.7 1.6.6 2.5-.2 1.4-.9 2.6-2.1 3.4l-4.5 3.3zm37.2-.9-30.1 10.3c-.9.3-1.9.2-2.8-.2-.9-.4-1.5-1.2-1.8-2.1l-1.1-3.2 5.5-4c2-1.4 3.3-3.6 3.7-6 .3-1.6 0-3.1-.6-4.6l16.3-5.6c.1.9.1 1.8.5 2.7.9 2.3 2.6 4.1 4.9 5.1l7 3.1c.5.2 1 .2 1.6.3-.4 1.9-1.3 3.6-3.1 4.2zm9.9-10.8c-.6 1.3-1.6 2.2-2.9 2.7h-.1l-2.4-7c-1.4-4.1-5.6-6.5-9.7-6l9.1-20.6c.9 2.3 2.6 4 4.8 5l7 3.1c1.2.5 2.5.8 3.7.8.1 0 .2-.1.3-.1l-9.8 22.1zm7.4-26.5-7-3.1c-1.3-.6-2.2-1.6-2.7-2.8-.5-1.3-.5-2.7.1-4l.8-1.9c.4-.1.7-.2 1.1-.2.5 0 1 .1 1.5.3l7 3.1c3.3 1.4 4.7 5.2 3.6 8.5-1.4.5-2.9.7-4.4.1zm18.4-28.9-10.2 23.2c-.9-2.9-2.9-5.4-5.8-6.7l-7-3.1c-.8-.3-1.6-.5-2.4-.5l10-22.6c.1.3.1.6.3.8 1.4 2.5 3.6 4.4 6.4 5.2l7.3 2.2c.6.2 1.2.2 1.8.3-.2.4-.2.8-.4 1.2zm-12-12.3h.2c.5 0 1 .1 1.5.3l7 3.1c1.6.7 2.8 2 3.5 3.6-.1 0-.2.1-.3 0l-7.3-2.2c-1.7-.5-3.1-1.7-4-3.3-.4-.5-.5-1-.6-1.5zm16.2 4.5c-.1.3-.4.4-.6.7-1-2.4-2.9-4.5-5.5-5.6l-7-3.1c-1-.4-2.1-.6-3.2-.6l8.6-28.4c.8 1 1.8 1.8 3 2.4l6.9 3.3c1.3.6 2.7.9 4 .9.8 0 1.6-.4 2.3-.7 0 .7.4 1.4.2 2l-8.7 29.1zm-4.1-39.7h.1c.3 0 .7.1 1 .2l7.3 2.2c1.4.4 2.4 1.5 3.3 2.7-1.2.3-2.4.3-3.6-.2l-6.8-3.3c-.6-.4-.9-1-1.3-1.6zm15.1 2.5s-.1 0 0 0c-1.5-1.8-3.2-3.3-5.5-4l-7.3-2.2c-1.2-.3-2.4-.3-3.5-.1.1-.6-.2-1.1.1-1.6l12.5-25.6c.8 2.3 2.5 4.2 4.7 5.3l6.8 3.3c1.2.6 2.5.9 3.9.9l-11.7 24zM474.6 447.9c-16.3 0-32.4 4.1-47.1 12.2-22.8 12.6-39.4 33.4-46.6 58.4-7.2 25.1-4.3 51.4 8.3 74.3 12.6 22.8 33.4 39.4 58.4 46.6 51.7 14.9 106-15 120.9-66.7 7.2-25 4.3-51.4-8.3-74.3-12.6-22.8-33.4-39.4-58.4-46.6-9-2.6-18.1-3.9-27.2-3.9zm-85.4 70.6 22.9 6.6c1.2.4 1.9 1.6 1.6 2.8-.3 1-1.2 1.7-2.2 1.7-.2 0-.4 0-.6-.1l-22.9-6.6c-1.2-.4-1.9-1.6-1.6-2.8.3-1.3 1.5-1.9 2.8-1.6zm15.1 46.2-16.2 4c-.1 0-.3.1-.4.1-.7 0-1.4-.5-1.6-1.3-.2-.9.3-1.8 1.2-2l16.2-4c.9-.3 1.8.3 2 1.2.2.9-.4 1.8-1.2 2zm19 32.7-12 11.6c-.3.3-.7.5-1.1.5-.4 0-.9-.2-1.2-.5-.6-.7-.6-1.7 0-2.3l12-11.6c.7-.6 1.7-.6 2.3 0 .7.6.6 1.6 0 2.3zm2-103.3c-.3.3-.7.5-1.1.5-.4 0-.9-.2-1.2-.5l-11.6-12c-.6-.7-.6-1.7 0-2.3.7-.7 1.7-.6 2.3 0l11.6 12c.6.7.6 1.7 0 2.3zm72.1-35.3c.3-1.2 1.6-1.9 2.8-1.6 1.2.4 1.9 1.6 1.6 2.8l-6.6 22.9c-.3 1-1.2 1.7-2.2 1.7-.2 0-.4 0-.6-.1-1.2-.4-1.9-1.6-1.6-2.8l6.6-22.9zm-44.6-1.9c.9-.3 1.8.3 2 1.2l4 16.2c.2.9-.3 1.8-1.2 2-.1 0-.3.1-.4.1-.7 0-1.4-.5-1.6-1.3l-4-16.2c-.2-.9.3-1.8 1.2-2zm-.7 175.5c-.3 1-1.2 1.6-2.2 1.6-.2 0-.4 0-.6-.1-1.2-.4-1.9-1.6-1.6-2.8l6.6-22.9c.3-1.2 1.6-1.9 2.8-1.6 1.2.4 1.9 1.6 1.6 2.8l-6.6 23zm44.6 1.8c-.1 0-.3.1-.4.1-.7 0-1.4-.5-1.6-1.3l-4-16.2c-.2-.9.3-1.8 1.2-2 .8-.3 1.8.3 2 1.2l4 16.2c.2.9-.3 1.8-1.2 2zm64.2-61.5c-.2 0-.4 0-.6-.1l-22.9-6.6c-1.2-.4-1.9-1.6-1.6-2.8.3-1.2 1.5-2 2.8-1.6l22.9 6.6c1.2.4 1.9 1.6 1.6 2.8-.3 1.1-1.2 1.7-2.2 1.7zm-15.7-46.3 16.2-4c.9-.3 1.8.3 2 1.2.2.9-.3 1.8-1.2 2l-16.2 4c-.1 0-.3.1-.4.1-.7 0-1.4-.5-1.6-1.3-.2-.8.3-1.7 1.2-2zm-19-32.6 12-11.6c.7-.6 1.7-.6 2.3 0 .6.7.6 1.7 0 2.3l-12 11.6c-.3.3-.7.5-1.1.5-.4 0-.9-.2-1.2-.5-.7-.7-.7-1.7 0-2.3zm-2 103.2c.7-.7 1.7-.6 2.3 0l11.6 12c.6.7.6 1.7 0 2.3-.3.3-.7.5-1.1.5-.4 0-.9-.2-1.2-.5l-11.6-12c-.7-.7-.6-1.7 0-2.3zm-12.5-41.3c-.3 1-1.2 1.7-2.2 1.7-.2 0-.4 0-.6-.1L480 549c-1.5 2.3-4.2 3.5-7 2.7-.7-.2-1.4-.6-2-1l-37.3 33.4c-.3.2-.6.4-.9.4-.4 0-.8-.2-1-.5-.5-.6-.5-1.4.1-1.9l37.3-33.4c-.8-1.4-1-3.1-.5-4.8 1-3.4 4.5-5.3 7.8-4.3 2.4.7 4 2.6 4.4 4.9l29.3 8.5c1.2.2 1.9 1.5 1.5 2.7z"/><path class="st1" d="M506.7 434.7c-61.2-17.6-125.2 17.8-142.8 78.9-8.5 29.6-5 60.8 9.8 87.8 14.9 27 39.4 46.5 69 55.1 10.6 3.1 21.4 4.6 32.2 4.6 19.2 0 38.3-4.9 55.6-14.4 27-14.9 46.5-39.4 55.1-69 17.6-61.2-17.8-125.3-78.9-143zm74.5 141.6c-8.2 28.4-27 52-52.9 66.3-25.9 14.3-55.9 17.6-84.3 9.5-28.4-8.2-52-27-66.3-52.9-14.3-25.9-17.7-55.8-9.5-84.3 14-48.5 58.4-80.1 106.5-80.1 10.1 0 20.5 1.4 30.7 4.4 58.7 16.9 92.7 78.4 75.8 137.1z"/><path class="st1" d="M492.4 484.5c.2.1.4.1.6.1 1 0 1.9-.6 2.2-1.7l6.6-22.9c.3-1.2-.3-2.5-1.6-2.8-1.3-.3-2.5.3-2.8 1.6l-6.6 22.9c-.4 1.2.3 2.4 1.6 2.8zM457.1 606.6c-1.3-.3-2.5.3-2.8 1.6l-6.6 22.9c-.3 1.2.3 2.5 1.6 2.8.2.1.4.1.6.1 1 0 1.9-.6 2.2-1.6l6.6-22.9c.3-1.2-.4-2.5-1.6-2.9zM561.5 568.2l-22.9-6.6c-1.3-.4-2.5.3-2.8 1.6-.3 1.2.3 2.5 1.6 2.8l22.9 6.6c.2.1.4.1.6.1 1 0 1.9-.6 2.2-1.7.3-1.1-.4-2.4-1.6-2.8zM387.9 522.9l22.9 6.6c.2.1.4.1.6.1 1 0 1.9-.6 2.2-1.7.3-1.2-.3-2.5-1.6-2.8l-22.9-6.6c-1.3-.3-2.5.3-2.8 1.6-.3 1.2.4 2.4 1.6 2.8zM457.2 476.4c.1 0 .3 0 .4-.1.9-.2 1.4-1.1 1.2-2l-4-16.2c-.2-.9-1.1-1.5-2-1.2-.9.2-1.4 1.1-1.2 2l4 16.2c.2.7.8 1.3 1.6 1.3zM491.9 614.8c-.9.2-1.4 1.1-1.2 2l4 16.2c.2.8.9 1.3 1.6 1.3.1 0 .3 0 .4-.1.9-.2 1.4-1.1 1.2-2l-4-16.2c-.3-.9-1.2-1.4-2-1.2zM546 529.6l16.2-4c.9-.2 1.4-1.1 1.2-2-.2-.9-1.1-1.5-2-1.2l-16.2 4c-.9.2-1.4 1.1-1.2 2 .2.8.9 1.3 1.6 1.3.1 0 .2 0 .4-.1zM403.5 561.5l-16.2 4c-.9.2-1.4 1.1-1.2 2 .2.8.9 1.3 1.6 1.3.1 0 .3 0 .4-.1l16.2-4c.9-.2 1.4-1.1 1.2-2-.3-.9-1.1-1.5-2-1.2zM411.4 479.8c-.7.6-.7 1.7 0 2.3l11.6 12c.3.3.8.5 1.2.5.4 0 .8-.1 1.1-.5.7-.6.7-1.7 0-2.3l-11.6-12c-.6-.7-1.6-.7-2.3 0zM536.9 611.8c.4 0 .8-.1 1.1-.5.7-.6.7-1.7 0-2.3l-11.6-12c-.6-.7-1.7-.7-2.3 0-.7.6-.7 1.7 0 2.3l11.6 12c.3.4.8.5 1.2.5zM528.5 496.1l12-11.6c.7-.6.7-1.7 0-2.3-.6-.7-1.7-.7-2.3 0l-12 11.6c-.7.6-.7 1.7 0 2.3.3.3.8.5 1.2.5.3 0 .8-.1 1.1-.5zM409 606.6c-.7.6-.7 1.7 0 2.3.3.3.8.5 1.2.5.4 0 .8-.1 1.1-.5l12-11.6c.7-.6.7-1.7 0-2.3-.6-.7-1.7-.7-2.3 0l-12 11.6z"/></svg>