<svg version="1.1" id="Calque_11" xmlns="http://www.w3.org/2000/svg" x="0" y="0" viewBox="0 0 800 800" style="enable-background:new 0 0 800 800" xml:space="preserve"><style>.st0{fill:#fff}.st1{fill:#c2c2c2}.st2{fill:none}</style><path class="st0" d="m282.9 422.4.2 26.8v.5c.5.5 28.8-2.7 28.8-2.7v.7c.1-2.1.3-4 .6-5.4 2.4-9.6 14.3-12.4 14.3-12.4s.1 0 4.2-.5c-1.6.2-3 .3-4.1.4 6.1-3 60.6-7.3 70.2-8.4 15.8-1.9 28.6-3.4 28.6-3.4l-.6-6.7-142.2 11.1zM476.4 345.5l-3.5.1-.1 7.3H470l.1-7.2-4.5.1.1-1.7c1-9.9-.3-19.4-1-23.2h-33.9l-.7-4.6h33.7v-.1h1.2c-.3-8.7-.7-16.2-.7-16.3l2.4-.2h-2.4c-.5-9.7-23.5-9.7-23.5-9.7s-97.5 1.4-112.7 2.8c-2.4.2-4.3.7-6.1 1.3-2.1 1.8-8.5 8.2-7.4 14.5 7.7-3 20.2-3.8 24.2-3.9l-.1 2.2.3-5.8 86.7-1.9c5.7 17.1 7.1 36.1 7 53.6h33.9v.2l11.1-.2h-1.5l.2-7.3z"/><path class="st0" d="M324.4 364c-11.2-1.4-26.5-3.3-27.4-22.9-.2-5.6 1.5-10.3 5.1-14.2 7.2-7.6 19.8-9.3 24.9-9.7l.3-7c-5 .7-10.1 1.8-13 3.4h-.1c-12.5 6.3-23.2 16.4-18.4 46.4l5.8 2.5.2 1.3c.1.8 3.3 18.2 27.8 20.6l-.7-19.8-4.5-.6zM686.6 320.8c4.1-14.7-3.7-20.7-3.7-20.7s-183.2-.4-214-.4c0 .4.5 7.8.8 16.5h217.9l-.9 4.6H469.4c.7 4.1 1.7 12.3 1.1 21.3H505.3l143.3.7v-.2h9.2v.2l28.8.1c8.3-11 0-22.1 0-22.1zM431.6 380.6h25.6c.1-.5.2-1 .3-1.4 2.4-9.1 7.8-13.4 8.8-21.8h-33.4c-.2 8.3-.7 16.2-1.3 23.2zm19.1-19.8c2.3 0 4.1 1.9 4.1 4.1s-1.9 4.1-4.1 4.1c-2.3 0-4.1-1.9-4.1-4.1s1.8-4.1 4.1-4.1zM485.1 352.6l3.2-.1c4.6-1.4 2.8-7.4 2.8-7.4.2 0 .3 0 .5-.1l-6.4.2v7.4zM479.2 345.4l-.1 7.3h3.2v-7.3z"/><path class="st0" d="M338.8 309.3c-1.7 0-4.2.2-7 .4l-.4 12h-2.2c-.2 0-16.2.4-23.8 8.4-2.8 3-4 6.5-3.8 10.8.7 15.7 12.2 17.2 23.3 18.5 2.3.3 4.5.6 6.6.9l1.8.4.9 24 5.1.1-.4-77.8-.1 2.3zM353.4 428.4l9 1.6c4.2 1.2 16 1.2 18.3 16 2.3 14.7-3.2 25.8-15.6 29-12.4 3.2-29.4 7.4-41.4-.5-5.7-3.7-8.8-9.8-10.4-15.7.1.2.1.4.1.7l-9.3.2c1.2 2.1 2.7 4.7 4.8 8.4 10.6 18.4 26.2 18.4 42.3 15.2 12.7-2.5 35.9-3.7 36.8-27.1 1.1-29 6.4-20.7 9.7-29.9 0-.1-26 3.8-44.3 2.1zM310.3 310.5c-.5-1.9-.3-3.6.1-5.2l-11.1 4c-20.2 2.3-30.4-17.5-46-14.7-7.8 1.4-4.1 4.6-4.1 4.6 27.6 1.4 20.2 26.7 38.2 31.7-3.1 5.2-6.4 22.7-2.5 32.4 1.9-.9 4-1.7 6.4-2.4-4.4-25.6 1.4-40.8 19-50.4z"/><path class="st0" d="m430.8 390.3-91.4 3.2v-4l-7.4-.1h-2.1v-.2c-24.7-2.1-31-18.5-32.2-23.3l-2.4-1.1-.8.2c-4.9 1.1-8.2 2.3-10.7 3.8l-1 24.4h.2l.2 24.8 148.2-11.7-1.7 8.1c19.5-4.5 24.1-14.5 26-23.8-.6-2-24.9-.3-24.9-.3zm-132 7.8c-2 0-3.7-1.6-3.7-3.7 0-2 1.6-3.7 3.7-3.7 2 0 3.7 1.6 3.7 3.7s-1.6 3.7-3.7 3.7zm37.3 10.1c-2 0-3.7-1.6-3.7-3.7 0-2 1.6-3.7 3.7-3.7 2 0 3.7 1.6 3.7 3.7s-1.7 3.7-3.7 3.7zM278.7 372.5c-1.8 2.2-2.8 4.6-4.2 7-2.3 4.1-3.8 5.9-6.2 6.5v.1c-.3 0-.6.1-.9.1-.2 0-.4.1-.6.1v-.1c-27.5 2.6-38.2 6.2-41.4 7.5l52.3-.7 1-20.5zM335.2 471.3c4.3 1.2-2.6-21.8 2.2-36.4-.3.8-.6 1.5-.8 2.3-2.7-.4-5-.4-7.2 0-2.3 15.2 2.1 30.1 5.8 34.1zM182 478.8c0 6.9 5.6 12.4 12.4 12.4 1.3 0 2.4-.4 3.5-.7L185.8 470c-2.3 2.2-3.8 5.3-3.8 8.8zM194.5 466.4c-1.7 0-3.4.4-4.8 1l12.5 21c2.9-2.3 4.8-5.6 4.8-9.6-.1-6.8-5.7-12.4-12.5-12.4zM664 295.6c1.4-14.7-20.6-14.1-25.2-15.1-4.6-1-11.7.9-9.4 15.1H664zM648.6 346.9h9.2v10.5h-9.2z"/><path class="st1" d="M648.6 342.5v4.4h9.2v-4.4z"/><path class="st0" d="M380.3 337.3v-1c0-5 4.1-9.2 9.2-9.2h38.9c-.7-7.4-1.6-13-2.4-17h-38.7c-4.2 0-7.6-2.9-8.7-6.8 9.5-.2 19.2-.4 27.3-.6-23.8.5-62.7 1.4-63.7 1.4l.1 9.7 30.3-.9v6.4l-30.2.9.2 41.8v-4l30.4-.5v6.4l-30.4.5.1 26.2 43-1.6c-3.4-1.4-5.7-4.7-5.7-8.5v-1c0-5 4.1-9.2 9.2-9.2h40c.3-10.8.5-22.5.5-23.9h-40c-5.3.1-9.4-4.1-9.4-9.1z"/><path class="st2" d="M194.5 466.4c-1.7 0-3.4.4-4.8 1l12.5 21c2.9-2.3 4.8-5.6 4.8-9.6-.1-6.8-5.7-12.4-12.5-12.4zM324.4 364c-11.2-1.4-26.5-3.3-27.4-22.9-.2-5.6 1.5-10.3 5.1-14.2 7.2-7.6 19.8-9.3 24.9-9.7l.3-7c-5 .7-10.1 1.8-13 3.4h-.1c-12.5 6.3-23.2 16.4-18.4 46.4l5.8 2.5.2 1.3c.1.8 3.3 18.2 27.8 20.6l-.7-19.8-4.5-.6z"/><path class="st2" d="M338.8 309.3c-1.7 0-4.2.2-7 .4l-.4 12h-2.2c-.2 0-16.2.4-23.8 8.4-2.8 3-4 6.5-3.8 10.8.7 15.7 12.2 17.2 23.3 18.5 2.3.3 4.5.6 6.6.9l1.8.4.9 24 5.1.1-.4-77.8-.1 2.3zM182 478.8c0 6.9 5.6 12.4 12.4 12.4 1.3 0 2.4-.4 3.5-.7L185.8 470c-2.3 2.2-3.8 5.3-3.8 8.8zM300.5 453.3s.1 0 0 0c.1 0-.3-.5 0 0zM380.3 337.3v-1c0-5 4.1-9.2 9.2-9.2h38.9c-.7-7.4-1.6-13-2.4-17h-38.7c-4.2 0-7.6-2.9-8.7-6.8 9.5-.2 19.2-.4 27.3-.6-23.8.5-62.7 1.4-63.7 1.4l.1 9.7 30.3-.9v6.4l-30.2.9.2 41.8v-4l30.4-.5v6.4l-30.4.5.1 26.2 43-1.6c-3.4-1.4-5.7-4.7-5.7-8.5v-1c0-5 4.1-9.2 9.2-9.2h40c.3-10.8.5-22.5.5-23.9h-40c-5.3.1-9.4-4.1-9.4-9.1z"/><path class="st1" d="M312.2 453c0-.3 0-.5-.1-.8-.1-1.6-.2-3.1-.1-4.6v-.7s-28.3 3.2-28.8 2.7c4.8.2 14.9 1.2 17.3 3.6-.3-.5.1 0 .1 0h-.1c.1.2.4.8.8 1.5.1.2.3.6.5.9.4.8 1 1.8 1.7 3.1.2.3.3.5.5.8l9.3-.2c-.1-.2-.1-.4-.1-.7-.5-1.8-.8-3.8-1-5.6zM687.5 316.1H469.6c-.3-8.6-.7-16-.8-16.5v-.1l-2.1.1-2.4.2c0 .1.5 7.6.7 16.3h-1.2v.1h-33.7l.7 4.6h33.9c.7 3.9 2 13.3 1 23.2l-.1 1.7 4.5-.1-.1 7.2h2.8l.1-7.3 3.5-.1-.1 7.3h2.8l.1-7.3 3.1-.1v7.3h2.8V345.2l6.4-.2h1l1.8-.4 4.9-1 8.9-1.8h-37.6c.6-9-.4-17.2-1.1-21.3h217.2l.9-4.4zM446.5 365c0 2.3 1.9 4.1 4.1 4.1 2.3 0 4.1-1.9 4.1-4.1s-1.9-4.1-4.1-4.1c-2.2-.1-4.1 1.8-4.1 4.1zM295.1 394.4c0 2 1.6 3.7 3.7 3.7 2 0 3.7-1.6 3.7-3.7 0-2-1.6-3.7-3.7-3.7-2 0-3.7 1.7-3.7 3.7zM336.1 400.9c-2 0-3.7 1.6-3.7 3.7 0 2 1.6 3.7 3.7 3.7 2 0 3.7-1.6 3.7-3.7s-1.7-3.7-3.7-3.7z"/><path class="st1" d="m425.9 299.2-86.7 1.9-.3 5.8.1-2.2c-4 .1-16.5.9-24.2 3.9-1.1-6.4 5.3-12.7 7.4-14.5.4-.3.7-.6.7-.6-.2.1-1.3.6-2.9 1.5-.6.3-1.2.7-1.8 1.1-.3.2-.5.3-.8.5-.3.2-.7.5-1 .7-2.6 1.9-5.1 4.6-6 8.1-.4 1.6-.6 3.3-.1 5.2-17.5 9.6-23.3 24.8-19.1 50.5-2.4.6-4.5 1.5-6.4 2.4-11.1 5.3-14.6 14.4-16.6 19.8-.5 1.3-1.1 2.9-1.2 3.2v.1c.2 0 .4-.1.6-.1.3 0 .6-.1.9-.2 2.4-.6 3.8-2.4 6.2-6.5 1.4-2.4 2.4-4.8 4.2-7l-.9 20.6-52.3.7c-.8.3-1.2.6-1.2.6-64.4 25.8-83.7 126.5-114.6 169.3l128.8-1.4c0-4.1-7.4-37.3-3.2-66.3 5.8-40.8 33.6-42.8 47.4-46.9h.4l-.2-26.8 142.2-11.2.6 6.7 3.7-3.7 1.7-8.1L283.1 418l-.2-24.8h-.2l1-24.4c2.5-1.4 5.9-2.7 10.7-3.8l.8-.2 2.4 1.1c1.3 4.8 7.5 21.2 32.2 23.3v.2h2.1l7.4.1v4l91.4-3.2s24.3-1.7 24.6.2h.1c.1-.6.2-1.1.3-1.7.1-.6.2-1 .3-1.6.4-2.3.8-4.6 1.2-6.6h-25.6c.6-7 1.1-14.9 1.3-23.2h33.9V352.8h-33.9c.1-17.5-1.3-36.5-7-53.6zM194.5 491.3c-6.9 0-12.4-5.6-12.4-12.4 0-3.5 1.5-6.6 3.8-8.9l12.2 20.6c-1.2.3-2.4.7-3.6.7zm7.6-2.9-12.5-21c1.5-.6 3.1-1 4.8-1 6.9 0 12.4 5.6 12.4 12.4.1 4-1.9 7.3-4.7 9.6zm99.6-124.6-.2-1.3-5.8-2.5c-4.8-30 5.9-40.1 18.4-46.4h.1c2.9-1.6 8-2.7 13-3.4l-.3 7c-5.1.4-17.7 2.1-24.9 9.7-3.6 3.8-5.3 8.6-5.1 14.2.9 19.6 16.2 21.5 27.4 22.9l4.5.6.7 19.8c-24.5-2.3-27.6-19.8-27.8-20.6zm32.5 21-.9-24-1.8-.4c-2-.4-4.2-.7-6.6-.9-11.1-1.4-22.7-2.8-23.3-18.5-.2-4.3 1.1-7.9 3.8-10.8 7.6-8 23.6-8.4 23.8-8.4h2.2l.4-12c2.7-.2 5.2-.4 7-.4l.1-2.2.4 77.8-5.1-.2zm94.8-14.4h-40c-5 0-9.2 4.1-9.2 9.2v1c0 3.8 2.4 7.1 5.7 8.5l-43 1.6-.1-26.2 30.4-.5v-6.4l-30.4.5v4l-.2-41.8 30.2-.9V313l-30.3.9-.1-9.7c1 0 39.8-.9 63.7-1.4-8.1.2-17.8.4-27.3.6 1.1 3.9 4.5 6.8 8.7 6.8h38.7c.8 4 1.7 9.6 2.4 17h-38.9c-5 0-9.2 4.1-9.2 9.2v1c0 5 4.1 9.2 9.2 9.2h40c.2 1.3 0 13-.3 23.8z"/><path class="st1" d="M326.9 429.7c1.1-.1 2.6-.2 4.1-.4-1.4 1.6-1.4 5.9-1.7 7.8 2.2-.4 4.5-.4 7.2 0 .2-.8.5-1.5.8-2.3.2-.6.4-1.3.6-1.9.8-1.8 1.7-3.5 3-4.9 3.1-.4 5.7-.6 6.4-.5 1.8.4 3.9.6 6 .8 18.3 1.7 44.2-2.2 44.2-2.2l-.5-4.9c-9.5 1.2-64 5.5-70.1 8.5z"/></svg>