<svg version="1.1" id="Calque_5" xmlns="http://www.w3.org/2000/svg" x="0" y="0" viewBox="0 0 800 800" style="enable-background:new 0 0 800 800" xml:space="preserve"><style>.st0{fill:#fff}</style><path class="st0" d="M362.8 175.1c-56.6 34.9-95.1 103.7-95.1 182.6 0 24.9 4 48.7 11.1 70.8l-2.6-18.4L286 448c.5 1.3 1.1 2.6 1.6 3.9.3.3.5.6.8.6.2 0 .3.1.5.1h.1c1-.3 1.6-1.3 1.3-2.2l-12.9-49.9 17.9 49.2c.3.9 1.2 1.3 2 1.2.1 0 .2 0 .3-.1.9-.3 1.4-1.4 1.1-2.3l-15.3-42 18.5 38.2c.3.6.9.8 1.5.9.3 0 .7.1 1-.1.9-.4 1.3-1.5.9-2.5l-32.6-67.2c7.3-105.6 46.3-166 90.1-200.7zM555.7 524.7c-10.5 11.7-22 22.1-34.5 30.7 12.2-7.5 23.6-16.4 34.1-26.5.1-1.4.2-2.8.4-4.2z"/><path class="st0" d="M555 537.5c0-1.4-.2-2.9-.1-4.3-16 14.9-34.2 26.9-53.8 35.7 18.5-6.1 35.9-15.3 51.7-27.1 0-.5-.2-.9-.2-1.3l-.2-2.7 2.6-.3zM631.5 292.4c-3.8-13.8-8.7-27-14.6-39.4-3-6.2-6.2-12.3-9.7-18.1-17.3-29.3-40.7-53.5-68-70.5-7-4.3-14.3-8-21.8-11.3 44.8 25.6 80 69.4 98 122.8.7 2 1.3 4 2 6 .8 2.5 1.7 5 2.4 7.6 2.6 8.5 4.8 17.2 6.4 26.1 2.4 13.7 3.7 27.8 3.7 42.2s-1.3 28.6-3.7 42.2c-3.7 20.5-9.9 39.9-18.3 57.7-.3.7-.7 1.3-1 1.9-1.9 4.3-4 8.5-6.2 12.7-.1 1.7-.4 3.3-.5 5-.4 3.6-.7 7.3-1.2 10.9-.2 1.6-.3 3.2-.5 4.8.1.2.1.4.2.6 6.7-9.8 12.9-20.1 18.1-31.1 14.8-31.2 23.3-66.9 23.3-104.8 0-22.7-3-44.6-8.6-65.3zM580.1 508.2c.2-1.3.5-2.6.7-4-2.1 2.9-4.4 5.6-6.7 8.3-1.2 4.6-2.1 9.2-2.8 13.5 2.3-2.2 4.4-4.5 6.6-6.8.8-3.6 1.5-7.3 2.2-11zM355.7 164.3c-27.3 17-50.6 41.2-68 70.5-3.5 5.9-6.7 11.9-9.7 18.1-2.1 4.4-3.9 8.9-5.7 13.4-10.5 27.5-16.5 58-16.5 90.4 0 58.6 19.3 111.8 50.5 150.3.1.1.1.2.2.2 22.1 27.3 50.3 46.9 81.7 56.2 1.9.1 3.7.3 5.6.3 5.3 0 10.5-.4 15.7-.9-11.4-2.8-22.4-6.7-33-11.9-65.5-31.7-111.6-106.3-111.6-193.1S311 196.3 376.5 164.4c5.9-2.9 12.1-5.4 18.3-7.5-.3 0-.7-.1-1-.1-10.2 0-20.1 1.2-29.8 2.9-2.8 1.6-5.6 3-8.3 4.6zM580.5 490.9l-.3.9-.4 1.2c-1.3 4.2-2.6 8.5-3.9 12.8 2-2.5 4-5 5.9-7.7.2-1.4.4-2.9.6-4.3-.4-1.4-.8-2.6-1.2-4.1-.2.4-.5.8-.7 1.2z"/><path class="st0" d="M309.6 179.7c-8.1 4.7-15.8 10-23.1 15.9-5.1 5.6-9.9 11.4-14.5 17.6-11 15.1-20.2 31.9-27.4 49.8-1.7 4.1-3.2 8.4-4.7 12.6-3.9 11.5-7.2 23.3-9.5 35.6-2.7 14.7-4.1 29.9-4.1 45.4 0 15.1 1.4 29.8 3.9 44.1.9 4.8 1.9 9.6 3.1 14.3.1.4.2.7.3 1.1 12.3 46.1 37.7 85.5 71 112.2-15.2-16.2-28.3-35.3-38.6-56.6-5.6-10-10.6-20.3-14.7-31.3-.4-1.2-.7-2.4-1.2-3.6l-1.5-4.5c-.6-1.9-1.3-3.8-1.8-5.7-.6-1.9-1.3-3.8-1.8-5.7-.5-1.9-.9-3.8-1.3-5.7-.4-1.4-.7-2.9-1-4.4-.4-1.6-.8-3.3-1.1-4.9-.3-1.2-.6-2.4-.8-3.7-.1-.8-.4-1.5-.5-2.3-2.5-14-3.9-28.5-3.9-43.4 0-42.4 11-81.8 29.6-115.2 11.5-23.3 26.2-44.3 43.6-61.6zM616.7 356.8c0 31-5.2 60.5-14.4 87.4-.1 6-.3 12-.7 18-.1 1 0 2-.1 2.9 15.6-32.2 24.6-69.1 24.6-108.3 0-85.6-42.4-160.2-104.7-198.5-.1 0-.1-.1-.2-.1 56.9 39.3 95.5 113.5 95.5 198.6z"/><path class="st0" d="M589.1 270.8c1.3 3.7 2.4 7.5 3.6 11.3.4 1.4.9 2.8 1.3 4.3.6 2.2 1.4 4.2 1.9 6.4 5.1 20.2 7.9 41.8 7.9 64 0 13.2-1.1 26.1-3 38.7 1.1 12.5 1.8 25.2 1.8 38.3 7.2-24.1 11.3-49.9 11.3-76.9 0-70-26.3-132.7-67.6-174.1-4.6-4.6-9.3-8.9-14.3-13-9.9-8.1-20.4-15.1-31.5-20.8-5.5-2.9-11.2-5.4-17-7.6-6.8-2.6-13.9-4.6-21-6.2 58.1 20 104.8 70.6 126.6 135.6zM374.4 561.8c-21.2-8.5-40.7-21.7-57.5-38.7-4.3-4.4-8.5-9-12.5-13.9-7.9-9.8-15.1-20.5-21.4-31.9s-11.7-23.7-16.2-36.6c-4.4-12.9-7.9-26.4-10.2-40.4-2.3-14-3.6-28.5-3.6-43.4 0-44.6 11.1-86 30-120.5 6.3-11.5 13.5-22.2 21.4-31.9 4-4.9 8.1-9.5 12.5-13.9 11.3-11.4 23.8-21 37.1-28.7-12 3-23.6 7.2-34.6 12.7-7.8 7-15.3 14.4-22.2 22.8-2.7 3.3-5.1 6.8-7.7 10.3-7.9 10.9-15 22.7-21.1 35.3-6.2 12.8-11.4 26.4-15.4 40.7-.9 3.3-1.9 6.6-2.7 10-4.8 20.1-7.6 41.3-7.6 63.3 0 13.1 1.1 25.8 2.9 38.3.2 1.4.3 2.8.5 4.2.3 1.8.6 3.5.9 5.3l.6 2.7c.4 2 .8 3.9 1.2 5.9.4 1.7.7 3.5 1.1 5.2.5 2.2.9 4.4 1.5 6.6l.9 3c.6 2.3 1.4 4.6 2.1 6.9.7 2.2 1.3 4.4 2 6.5.9 2.6 1.8 5.1 2.7 7.6 1.1 2.9 2.2 5.7 3.4 8.5 1.9 4.5 3.8 9 5.9 13.3 6.1 12.6 13.2 24.4 21.1 35.3 9.1 12.5 19.2 23.7 30.3 33.5 16.9 10.4 35.3 17.9 54.6 22zM562.9 495c-6.9 10.2-14.6 19.7-23 28.1-7.6 7.7-15.8 14.4-24.3 20.5-6.7 4.8-13.7 9-20.9 12.7-2 1.2-4 2.3-6 3.4-10.6 7.9-21.8 14.7-33.6 20.3l1.8-.3h.1c38.3-7.2 72.8-28.7 99.6-59.9 1.5-8.4 3.8-16.8 6.3-24.8z"/><path class="st0" d="M206.2 424.3c.4 1.3.8 2.5 1.2 3.8 1.5 5 3.1 9.9 4.9 14.7 2.1 5.6 4.4 11 7 16.3l.3.6c20.3 42.1 53.1 75.2 92.7 93.3-23.3-14.8-43.7-35-60-59.1-.7-.9-1.4-1.7-2.1-2.5-7.6-10.2-14.3-21.2-20.1-32.9-14.3-29.2-22.5-62.7-22.5-98.2 0-17.7 2.2-34.9 6.1-51.3 5-29.7 15.1-57.3 29-81.6-27.4 36.6-44.2 84-45.1 135.9.2 13.9 1.4 27.4 3.9 40.5 1.3 7 2.9 13.8 4.7 20.5zM545.2 222.8c-1.7-2.3-3.7-4.4-5.5-6.6 4.2 6.7 8.3 13.4 12 20.7 11.5 18.6 21.3 39.3 29.2 61.9-1.7-7.7-3.8-15.2-6.2-22.5-7.5-19.4-17.5-37.4-29.5-53.5zM572.8 425.1c-2.6 11.7-5.9 23.1-10 33.9 3.7-7.5 7.1-15.1 10-23.1v-10.8zM305.1 179c4.2-2.5 8.5-4.7 12.8-6.9 2.9-1.4 5.9-2.8 8.9-4 3.9-1.7 7.7-3.4 11.7-4.7 15.7-5.4 32.4-8.4 49.6-9-2.5-.1-5-.4-7.5-.4-19.9 0-38.9 3.8-56.9 10.7-9.3 5.7-18.2 12.3-26.5 19.7 2.7-1.8 5.2-3.7 7.9-5.4z"/><path class="st0" d="M508.8 175c14.7 11.6 27.8 25.6 39 41.5 11.2 15.9 20.5 33.8 27.5 53 .7 1.9 1.2 3.9 1.8 5.9 3.7 11.1 6.8 22.5 8.9 34.4.5 2.9.7 5.8 1.1 8.7 5.2 18.2 9 37.5 11.6 57.5.7-7.6 1-15.2 1-23 0-31-5.4-60.6-15.2-87.5-4.9-13.5-10.9-26.2-17.9-38.2-13.9-23.9-31.7-44.6-52.3-60.8-28.4-22.3-62.3-35.9-98.7-37.9 28.8 5.9 54.8 17.8 77.4 35.2 5.6 3.5 10.8 7.2 15.8 11.2zM569.4 472.3c-.9-.9-1.5-2-1.3-3.4.2-1.4 1.2-2.3 2.3-2.9-1.1-.9-1.9-2.1-1.7-3.6.3-1.8 1.6-2.9 3.3-3.3l.8-9.5c.1-2.3 0-4.3 0-6.6-1.7 4.2-3.2 8.4-5.1 12.4-4.8 10.3-10.4 19.9-16.5 29.1-12.7 24.4-29.1 45.9-48.4 63.4 25.8-17.3 47.9-41.2 64.5-69.9-.5-.8-.8-1.7-.7-2.7.1-1.5 1.3-2.6 2.8-3zM212.7 353.2c0 31 5.4 60.6 15.2 87.5 6.8 18.7 15.8 35.9 26.5 51.6 7.5 11.1 15.9 21.2 25 30.5 15.1 15.2 32.1 27.9 50.7 37.2 16.1 5.2 32.9 8.2 50.5 8.2 4.8 0 9.4-.4 14.1-.8-70.9-5.2-131.1-57.5-157.5-130.6-2.3-6.4-4.4-13-6.2-19.7-5.4-20.2-8.3-41.6-8.3-63.8s2.9-43.7 8.3-63.8c1.8-6.7 3.9-13.3 6.2-19.7 14.9-41.3 40.7-75.8 73-99.1-20.1 9.8-38.2 23.8-53.9 40.7-3.7 5.2-7.2 10.6-10.4 16.2-7 12-13 24.8-17.9 38.2-9.9 26.8-15.3 56.3-15.3 87.4z"/><path class="st0" d="M347 567.3c-6.1-1.3-12.1-2.8-17.9-4.8-11.6-3.8-22.7-8.8-33.2-14.9-33.3-19.3-60.8-49.5-78.7-86.6-.1-.2-.1-.3-.2-.5-2.6-5.4-5-11-7.2-16.7-.1-.3-.2-.5-.3-.8 24.1 74 82.4 128.6 152.4 137 6.2.7 12.4 1.1 18.7 1.1 6.3 0 12.6-.4 18.7-1.1 70-8.3 128.3-62.9 152.4-136.9-7 18.7-16.4 36-27.7 51.4-11.4 15.6-24.7 29.2-39.5 40.6-6.3 4.8-13.1 9.1-19.9 13-8.3 4.8-16.9 8.9-25.8 12.2-3.2 1.2-6.4 2.2-9.6 3.1-5.7 1.7-11.4 3.2-17.3 4.3-10.2 2-20.6 3.2-31.2 3.2-11.6 0-22.8-1.3-33.7-3.6z"/><path class="st0" d="M184.5 367.5c0 28.3 4.7 55.3 13 80.3 7.7 23.2 18.4 44.8 31.8 63.6 8 11.2 16.9 21.5 26.6 30.7.7.6 1.4 1.2 2 1.8 7.7 7.1 15.9 13.5 24.4 19.3 28.9 19.4 62.4 30.8 98.2 30.8 94.9 0 174.3-78.4 192.2-182-1.6-69.2-13.6-126.1-35.8-169.8-1.8-2.8-3.4-5.7-5.2-8.4.1 0 .2-.1.3-.1-7.8-13.8-16.5-26.6-26.5-37.5-16-17.5-34.9-31-56.2-40.4-.9-.4-1.9-.8-2.8-1.2-4-1.7-8.1-3.2-12.2-4.6-3.2-1-6.3-2-9.6-2.8-2.1-.6-4.2-1.2-6.3-1.7-12.2-2.8-24.8-4.3-37.8-4.3-17.5 0-34.3 2.9-50.4 7.9C266.3 171.6 214 236 188.9 320.7c-2.6 14.1-4 28.7-4.1 43.7-.1 1-.3 2-.3 3.1zm42-120.8c33.4-57.6 90-95.5 154.1-95.5s120.7 37.9 154.1 95.5c20.1 34.5 31.8 76.1 31.8 120.9 0 14.9-1.3 29.5-3.8 43.5-5 28.1-14.6 54.3-28 77.3-33.4 57.6-90 95.5-154.1 95.5S259.9 546 226.5 488.4c-13.4-23-23-49.2-28-77.3-2.5-14.1-3.8-28.6-3.8-43.5 0-44.8 11.7-86.4 31.8-120.9z"/><path class="st0" d="M571.6 572.3c-1.8-1.1-3.3-2.4-4.8-3.6-30.7 84.7-89.2 145.9-158.5 159.2-6.8 1.3-13.7 2.2-20.8 2.5-2.5.1-5 .5-7.6.5-115.7 0-209.9-133.1-209.9-296.8 0-51.1 9.2-99.2 25.3-141.2 3.2-8.4 6.7-16.6 10.5-24.4 7.5-15.8 16.1-30.5 25.6-43.9 19-26.9 41.5-48.6 66.5-63.7 11.1-6.7 22.8-11.8 34.7-15.7 1.5-.5 3-1.2 4.6-1.7 13.6-4 27.7-6.1 42.1-6.2 51.3 1.9 95.6 21.5 128.1 57 48.7 53.1 71.3 139.3 68.1 255.5l-.8 9.4 10.5 1.7c5.1-124.4-18.3-216.6-70.3-273.4-34.7-37.8-81.9-58.7-135.6-60.2h-.4c-1 0-2 .2-3.1.2-25.1.6-49.1 7.3-71.5 18.8-6.2 3.2-12.2 6.7-18.1 10.6-13.4 8.8-26 19.5-37.8 31.8-14.2 14.8-27.2 31.6-38.4 50.7-4.5 7.6-8.7 15.5-12.6 23.6-23.7 49-37.5 107.9-37.5 171.3 0 169.3 98.7 307 220 307 2.6 0 5.1-.4 7.6-.5 14.7-.7 29.1-3.4 42.9-8 63.4-20.9 116.2-80.1 145.2-159-.3 0-.5 0-.8-.1l-3.2-1.4z"/><path class="st0" d="M598.9 461.8c.6-9.1 1-18.3 1-27.7 0-3.6-.3-7.1-.4-10.7-1.4-60.4-14.3-114.8-36.1-159.6 13.4 35.7 21.2 78.1 23.9 126.4 1.1 10.8 1.7 21.7 2 32.9.1 3.7.4 7.3.4 11 0 16-.9 31.7-2.7 47-1.8 15.3-4.4 30.2-7.7 44.7-1.5 6.3-3 12.6-4.8 18.8 1.2 3.6 2.8 6.6 5.7 8.7h.9c.5 0 1-.1 1.4-.2 2-6.7 3.7-13.5 5.4-20.4 1.9-7.7 3.6-15.6 5.1-23.6 1-5.4 1.7-10.9 2.5-16.4.8-5.5 1.4-11 2-16.5.5-4.8 1.1-9.6 1.4-14.4z"/><path class="st0" d="M577.2 492.2c1.1-3.6 2.2-7.1 3.2-10.5l-10.1-1.5c-.9 2.9-1.8 5.9-2.8 9-4.9 15.5-10.2 33-9.8 48.2l10.1-.8c-.3-13.3 4.7-29.4 9.4-44.4zM584.1 482.2l-2.7-.4c.7 2.1 1.3 3.9 1.9 5.9.3-1.9.6-3.7.8-5.5zM592.8 523.1c1 5.7 1.4 10.4 1.5 14.4l10.2.2c-.2-10.3-2.6-23.2-7.1-39.1-1.3 8.3-2.8 16.5-4.6 24.5z"/><path d="M587.7 554.1c-.8.7-1.9 1.2-3.2 1.5-.4.1-.9.1-1.3.2-.7.1-1.3.3-2.1.3-.6 0-1.2 0-1.8-.1-2.7-1.8-4.8-4.1-6.3-6.9s-2.3-6.1-2.6-10.1l-8.7.7c.6 7.7 6.8 28.3 21 29.5-18.3.5-23.4-21.4-24.8-29.2l-2.6.2c.3 3.4.8 6.5 1.7 9.5 1.8 5.9 4.7 10.8 8.9 14.9 2.1 2 4.5 3.8 7.1 5.3l2.8.9c1.9.2 3.7.4 5.4.4 6.6 0 12.2-1.9 16.5-5.6 2-1.7 3.6-4 5-6.4 2.7-4.8 4.2-10.7 4.4-18.1 0-.2.1-.4.1-.7l-15.2-.3c-.3 7-1.7 11.8-4.3 14z" style="fill:#c2c2c2"/><path class="st0" d="m585.9 462.8-12.7-2.1c-.5-.1-.9.1-1.3.3-.7.3-1.2.8-1.3 1.6-.2 1.3.7 2.4 1.9 2.6l5.9 1 7.1 1.1c.1-1.5.2-3 .4-4.5zM585.3 469.1l-12.8-1.9c-.5-.1-.9.1-1.3.3-.7.3-1.2.8-1.3 1.6-.2 1.3.7 2.4 1.9 2.6l13.1 2c.2-1.5.3-3 .4-4.6zM584.7 475.8l-13.8-2.1c-.5-.1-.9.1-1.3.3-.7.3-1.2.8-1.3 1.6 0 .1.1.1.1.2-.1 1.2.7 2.2 1.9 2.4l.6.1 13.5 2 .3-4.5z"/></svg>