<svg version="1.1" id="Calque_8" xmlns="http://www.w3.org/2000/svg" x="0" y="0" viewBox="0 0 800 800" style="enable-background:new 0 0 800 800" xml:space="preserve"><style>.st0{fill:#c2c2c2}.st1{fill:#fff}</style><path class="st0" d="M634.1 204.3c-6.1-5-11.3-4.6-14.6-3.4-10.7 3.9-18.3 22.2-26.4 63.4-10.7-4.4-33.4-7.3-74.3-8.7-38.4-1.3-59.2-1.5-70.4 0 3.3-7.5 6.9-15 10.6-22.5 12.1-24.6 18.2-37.8 14.3-45.2-1.3-2.5-3.6-4-6.6-4.4-3-.4-7.5-.1-12.3 4.1-11.4 9.9-19.1 37.3-20.2 71.1 20.8 10.4 84 14.7 129.4 14.1 16.5-.2 30.5-1.1 39.3-2.6 4.9-10.2 13-19.4 20.5-27.7 9.6-10.7 17.3-19.1 16.6-27.9-.5-4-2.4-7.4-5.9-10.3zm-173.8-9.9c2.7-2.3 4.4-2 4.7-2.3 1.8 4-7.9 23.8-14.4 36.9-2.1 4.3-4.3 8.7-6.4 13.1 2.9-25.5 9.7-42.1 16.1-47.7zm156.1 41.8c-3.5 3.9-7.2 7.9-10.7 12.3 4.1-17.6 10-36.5 16.9-39.1.2-.1.6-.2 1.2-.2.9 0 2.4.4 4.5 2.1 2 1.7 2.3 3 2.4 3.8.3 4.9-7.1 13.2-14.3 21.1z"/><path class="st1" d="M442.1 413.8c-6.4 23.3-11.8 43.4 2.3 53.5 1 .7 2.2 1.2 3.4 1.7v-.1c2.7-7.1 25-150.9 27.2-196.1-3.6-.5-7.1-1-10.5-1.5l-2.8 20.8c-.1.6-7.2 68.7-14.3 101.1-1.6 7-3.5 13.9-5.3 20.6zM505.4 462.4c0-.1-.1-.3 0-.4 6.7-22.2 19.7-148.5 23.4-185.1-3.9-.1-7.9-.3-11.8-.5-4.1 39.4-21.7 165.2-27.8 191.1 5.2-1.4 10.6-3.1 16.2-5.1z"/><path class="st1" d="M599.8 275.8c0-.2.1-.4.1-.6-8.6 1.2-20.5 1.9-34.2 2.1 0 4.2-.2 6.6-.5 11-.6 8.7-1.8 24.9-3.7 79.3-2.4 68.4-12.3 82-30 89.9-1.1.5-2.2 1-3.4 1.4-2.1.8-4.3 1.7-6.6 2.5s-4.8 1.7-7.3 2.7c-20.2 7.9-38.1 12-51.8 12-8.8 0-15.9-1.7-20.7-5.1-16.8-11.9-10.9-33.4-4.1-58.4 1.8-6.6 3.7-13.5 5.2-20.4 7-32.1 14.2-100 14.2-100.7l2.9-21c-10.7-1.9-19.7-4.2-26-6.8v.2c-9 40.8-14.2 51.2-29.3 83.5-15.5 33-63.5 91.2-103 114.2-56.1 32.6-136.9 19.1-151.5 51.6 0 0-2.7 7.6.2 14.3 1.3-.2 2.7 0 3.9 1 13.7 11.6 61.4 35.9 143.7 44.7 58.7 6.3 90.6-5.8 124.4-18.6 20.9-7.9 42.5-16.1 70.7-19.7 10-1.1 19.6-2.1 28.8-3 28.8-2.9 54.2-5.5 68.4-10 11.5-4.5 15.6-10 17.1-13.8.2-.5.3-.9.5-1.4.1-.4.2-.8.2-1.2v-2.2s.1.8 0 2.2v.4c31.1-92.5-28.1-135-8.2-230.1z"/><path class="st1" d="M465.3 471.3c9.8-46.2 24-161.1 28.3-196.6-4.9-.4-9.6-.9-14.2-1.5-2.7 43.6-21.6 179.8-27.6 197 3.8 1 8.3 1.3 13.5 1.1zM556.9 367.3c1.9-54.4 3.1-70.7 3.7-79.4.3-4.2.5-6.6.5-10.6-2 0-3.9.1-6 .1h-5.2c-2.3 42.8-11.9 146.8-17 174.2 14.3-7.9 21.8-23.4 24-84.3zM512.5 459.8c2.6-1 5.1-1.9 7.4-2.8 2.8-1 5.3-1.9 7.8-3 3.9-16.1 15.1-128.5 17.6-176.7-3.9-.1-7.9-.2-11.9-.3-3.6 35.7-15.9 155.3-23 183.5.8-.2 1.4-.4 2.1-.7zM484.3 468.6c5.2-18.8 23.9-152.4 28.2-192.5-4.8-.3-9.5-.6-14.2-1C494 310.2 479.9 423.9 470 471c4.4-.4 9.2-1.3 14.3-2.4z"/><path d="M607.7 506.5c-.2.5-.3.9-.5 1.4-1.5 3.8-5.6 9.3-17.1 13.8-14.1 4.6-39.5 7.1-68.4 10-9.2.9-18.8 1.9-28.8 3-28.3 3.6-49.9 11.8-70.7 19.7-33.8 12.8-65.7 25-124.4 18.6-82.3-8.8-130-33.1-143.7-44.7-1.1-.9-2.5-1.2-3.9-1-1.1.2-2.3.6-3.1 1.6-1.7 2.1-1.5 5.3.6 7 14.5 12.3 64.3 37.9 148.9 47 11.2 1.2 21.5 1.7 31.1 1.7 42.5 0 70.5-10.6 97.8-21 17.2-6.5 35.1-13.1 56.6-17.1l-.5 24.8s107.2 3.1 125.3-17.3l1-48.4v-.4c0 .5-.1.9-.2 1.3z" style="fill:#d1d1d1"/><path class="st0" d="M447.8 468.9c1.2.5 2.6 1 4 1.3 6-17.2 24.9-153.4 27.6-197-1.5-.2-3-.4-4.4-.6-2.3 45.4-24.5 189.1-27.2 196.3-.1-.1 0 0 0 0zM470 471c9.9-47.2 23.9-160.9 28.2-195.9-1.5-.1-3-.3-4.6-.4-4.3 35.5-18.5 150.4-28.3 196.6 1.6 0 3.1-.1 4.7-.3zM489.3 467.4c6.1-25.8 23.7-151.7 27.8-191.1-1.5-.1-3.1-.2-4.6-.3-4.2 40.1-23 173.7-28.2 192.5 1.6-.3 3.3-.6 5-1.1zM505.4 462.4c1.7-.6 3.3-1.2 5-1.8 7.1-28.2 19.4-147.8 23-183.5-1.5 0-3.1-.1-4.6-.2-3.7 36.6-16.7 162.9-23.4 185.1 0 .1.1.2 0 .4zM532.9 451.6c5.1-27.3 14.7-131.4 17-174.2h-4.6c-2.6 48.2-13.7 160.6-17.6 176.7 1.9-.8 3.6-1.6 5.2-2.5z"/></svg>