<svg version="1.1" id="Calque_2" xmlns="http://www.w3.org/2000/svg" x="0" y="0" viewBox="0 0 800 800" style="enable-background:new 0 0 800 800" xml:space="preserve"><style>.st0{fill:#fff}.st1{fill:#c2c2c2}</style><path class="st0" d="M248.9 419.2c11-57.2 47.6-105.2 47.6-105.2s25.9-28.9 41.3-34.9c3.6-3.2 7.4-5.8 11.1-8-56.9 8.2-97.3 73.6-110.1 81.4-13.4 8.2-33 2-6.5-27.7s64.4-45.2 76.2-51.5c32.9-17.6 41.7-15.4 59.6-9.8 2.2-.5 4.4-1 6.7-1.3-1.9-4.4-3.5-8.7-3.8-12.5-.2-.1-.3-.2-.4-.2-.5-.3-1.1-.5-1.6-.7-3-1.4-6.3-2.6-9.6-3.5-.7-.2-1.3-.4-2-.6-3.7-.9-7.7-1.4-11.8-1.5-1.6 0-3.2 0-4.8.1-.9.1-1.8.1-2.7.2-2.8.4-5.8.9-8.7 1.8-48.1 14.4-80.5 23.4-144.6 48.3-52.8 20.5-60.3 28-46.8 50.1 7.5 12.2 30.2 72.9 49.7 92.3 19.5 19.5 41.7 35.2 65.2 49.1 2.9 1.7 5.6 3 8 3.8.8.3 1.4.2 2.2.4.5.1.9.2 1.4.2 8.9-57.4 18.9-101.1 29.9-133.8-22.6 27.7-45.8 84.7-45.5 63.5z"/><path class="st1" d="M308.6 273.3c-11.8 6.3-49.7 21.9-76.2 51.5-26.5 29.7-6.9 35.9 6.5 27.7 12.8-7.8 53.2-73.2 110.1-81.4 6.2-3.6 12.6-6.1 19.2-7.6-17.9-5.7-26.6-7.8-59.6 9.8zM451.1 299.9c-1.5-1.5-3-3.1-4.8-4.2-2.5 4.3-5.2 7-8.1 8.7.9 1.7 1.6 3.4 2.2 5.1 3.2 9.3 3.2 19.7 3.2 27.3v1c7-17.3 9-29.1 7.5-37.9zM456.8 446.5c3 31 18.8 50.7 20.1 11.7 0 0-5.5-29.3-4.5-62.4.2-6 .9-12.3 1.7-18.8-2.7-17.3-5.1-32.1-8.1-44.4-.1 28.7-14.2 61.4-9.2 113.9z"/><path class="st0" d="M628.2 320.5c-54.5-41.9-65-54.6-127.3-75.3-3.8-1.3-7.4-2.1-11-2.7-1.1-.2-2.2-.3-3.3-.4-2.5-.3-4.9-.5-7.2-.6-1.1 0-2.1-.1-3.2 0-2.9.1-5.8.3-8.5.7-.4.1-.8.1-1.2.1-3.1.5-6.1 1.2-8.9 2-.8.2-1.6.5-2.4.7-.9.3-1.8.6-2.6.9.1.4.4.7.5 1.1 1.3 4.2 1.7 9.2 1.8 14.4 52.8-8.7 135.2 50.1 157.7 98.5-42.5-36.9-82.3-71.7-122.3-83.8 22.5 11.4 47.3 37.3 53.9 43.9 8.7 8.7 45.8 79.9 19.9 71.9-23.8-7.4-20.4-21.7-39.8-60.6-28.2-56.3-55.6-55.6-71.4-53.2-.3 1.3-.5 2.6-.8 3.9 26.8 9 51.5 38.2 68.3 95.7 9.1 31.2 42.9 80.5 14.3 100-22.1 16.9-36-54.8-46.3-107.8-9.1-46.7-16.6-71.5-37.8-83.5-.7 1.8-1.4 3.6-2.2 5.3 26.5 16.4 24.8 69.7 42.2 152.3 4.6 21.6 21.4 50.9 42.5 50.9 3 0 6.1-.6 9.2-1.9 25.3-10.3 49.5-22.7 71.6-39.1 22.2-16.4 39.9-52.1 44.2-65.8 9.1-28.6 26-24.7-29.9-67.6z"/><path class="st1" d="M296.5 314s-36.6 48.1-47.6 105.2c-.3 21.2 22.9-35.8 45.5-63.7 13-38.7 27.5-62.6 43.5-76.5-15.5 6.1-41.4 35-41.4 35z"/><path class="st1" d="M348.5 285s-55.4 32.9-48.9 214.8c5.2-32.5 7.8-112.1 28.6-168.9 11.4-31.1 23.5-51.2 50.5-58.1-.1-.4 0-.7-.1-1.2-.4-1.4-1-2.7-1.5-4-9.9 2.6-20.3 7.5-28.6 17.4z"/><path class="st0" d="M544 497.1c-3.6 1.5-7.3 2.2-10.9 2.2-24.5 0-42.2-31.9-47-54.5-5.2-24.8-8.7-46.9-11.8-66.4-.1-.5-.2-.9-.2-1.4-.8 6.5-1.5 12.8-1.7 18.8-1 33.1 4.5 62.4 4.5 62.4-1.3 39-17.2 19.4-20.1-11.7-5-52.5 9.2-85.2 9.2-113.9-3.5-14.8-8-25.8-14.8-32.7 1.5 8.9-.5 20.6-7.4 37.9v-1c-1.4 4.6-3.5 9.7-5.9 16.7-1.5 4.4-3.1 9.6-4.6 15.8-.5 2.1-1 4.3-1.5 6.6-1 4.6-1.9 9.8-2.8 15.6-.9 5.8-1.7 12.1-2.3 19.2-.3 3.1-.6 6.3-.8 9.7-.3 3.5-.5 7.2-.7 11.1-.5 10.8-.8 22.9-.8 36.5v.3c0 14 .5 29.5 1.3 46.9-.1 1.3-.2 3.3-.4 6.1-1.3 19.9-4.7 73.3-4.9 93.6 0 1.3 1 2.3 2.3 2.3 1.3 0 2.3-1 2.3-2.3.2-19.2 3.3-68.4 4.7-90.2.1-1.9.2-3.6.3-5.1 1.1.8 2.3 1.5 3.6 2.2-.1.2-.2.3-.3.5 0 .1-.1 1.6-.3 4.1-1 15.4-4.7 71.2-4.9 92.8 0 1.3 1 2.3 2.3 2.3 1.3 0 2.3-1 2.3-2.3.2-20.9 3.7-73.9 4.8-91.1.1-2.1.3-3.8.3-4.7 1.1.4 2.2.7 3.4 1 0 .1-.1.1-.1.1 0 .1-.1 1.7-.3 4.3-1.1 15.8-4.7 71.1-4.9 92.6 0 1.3 1 2.3 2.3 2.3 1.3 0 2.3-1 2.3-2.3.2-21 3.7-74.7 4.8-91.4.2-2.3.3-3.9.3-4.6.2 0 .5.1.7.2 1.3.3 2.7.5 4.1.7 0 .2-.1 1.9-.3 4.6-1.1 16.1-4.7 70.9-4.9 92.3 0 1.3 1 2.3 2.3 2.3 1.3 0 2.3-1 2.3-2.3.2-21.1 3.7-75 4.8-91.6.2-2.4.3-4 .3-4.6 1.6.2 3.1.5 4.7.8 0 .1-.1.1-.1.2s-.1 1.8-.3 4.4c-1.1 15.8-4.7 71-4.9 92.5 0 1.3 1 2.3 2.3 2.3 1.3 0 2.3-1 2.3-2.3.2-21.1 3.8-75.3 4.9-91.7.2-2.5.3-4.2.3-4.6 1.3.3 2.6.5 3.9.7 0 .2-.1 1.9-.3 4.6-1.1 16.1-4.7 70.9-4.9 92.3 0 1.3 1 2.3 2.3 2.3 1.3 0 2.3-1 2.3-2.3.2-21 3.7-74.8 4.8-91.5.2-2.4.3-4 .3-4.6 1.6.3 3.2.3 4.8.5 0 .3-.1 2-.3 4.6-1.1 16.3-4.7 70.8-4.9 92.1 0 1.3 1 2.3 2.3 2.3 1.3 0 2.3-1 2.3-2.3.2-21.2 3.8-75.9 4.9-92 .2-2.7.3-4.4.3-4.6.7 0 1.5-.1 2.2-.2.8-.1 1.5-.1 2.3-.3h.2c-.1.9-.2 2.6-.3 4.7-1.2 17.3-4.6 70.3-4.8 91.3 0 1.3 1 2.3 2.3 2.3 1.3 0 2.3-1 2.3-2.3.2-21.4 3.9-76.9 4.9-92.4.2-2.5.3-4.1.3-4.2 0-.2-.1-.3-.2-.5.3-.1.7-.2 1-.4 1.1-.4 2.4-1 3.6-1.6-.1 1.1-.2 2.9-.4 5.2-1.2 18.2-4.6 69.8-4.8 90.4 0 1.3 1 2.3 2.3 2.3 1.3 0 2.3-1 2.3-2.3.2-21.5 3.9-77.3 4.9-92.6.2-2.4.3-3.9.3-4 0-.5-.2-.9-.4-1.2 1.6-.9 3.2-1.9 5-3.1-.1 1.4-.2 3.3-.4 5.7-1.3 19.6-4.4 68.6-4.6 88.6 0 1.3 1 2.3 2.3 2.3 1.3 0 2.3-1 2.3-2.3.2-21.1 3.8-75.3 4.9-91.7.2-2.9.3-4.8.3-4.9 0-.3-.2-.4-.2-.7.9-.6 1.8-1.2 2.6-1.7.7-.4 1.2-.7 1.9-1 .4-.2.9-.5 1.3-.7-.1 1.3-.2 3.1-.4 5.4-1.3 19.1-4.5 69.2-4.7 89.4 0 1.3 1 2.3 2.3 2.3 1.3 0 2.3-1 2.3-2.3.2-21.2 3.8-75.5 4.9-91.8.2-2.9.3-4.7.3-4.8 0-.1-.1-.1-.1-.2.7-.2 1.4-.4 2.1-.5.5-.1 1.1-.2 1.6-.2.3 0 .7-.1 1-.1h.3c0 .1-.1 1.8-.3 4.5-1.1 16-4.7 71-4.9 92.4 0 1.3 1 2.3 2.3 2.3 1.3 0 2.3-1 2.3-2.3.2-21 3.7-74.8 4.8-91.5.2-2.5.3-4.1.3-4.7.1 0 .1 0 .2.1 1 .3 2.1.7 3.2 1 .3.1.7.2 1 .3 0 .1-.1.1-.1.1 0 .1-.1 1.8-.3 4.5-1.1 16-4.7 71-4.9 92.4 0 1.3 1 2.3 2.3 2.3 1.3 0 2.3-1 2.3-2.3.2-20.8 3.7-73.9 4.8-91.1.1-2 .2-3.7.3-4.6.1 0 .3.1.4.1.7.2 1.6.3 2.4.5-.1.2-.3.3-.3.6 0 .1-.1 1.6-.3 4-1 15.3-4.7 71.3-4.9 92.9 0 1.3 1 2.3 2.3 2.3 1.3 0 2.3-1 2.3-2.3.2-21.2 3.8-75.9 4.9-92 .2-2.7.3-4.4.3-4.6.9-7.6 1.2-14.8 1.7-22-1.2.8-2.1 1.2-3 1.6zM379.1 280.3c.3-2.4.2-4.9-.4-7.6-27 7-39.1 27.1-50.5 58.1-20.8 56.8-23.4 136.4-28.6 168.9-6.5-181.8 48.9-214.7 48.9-214.7 8.3-9.9 18.7-14.8 28.5-17.5l-.3-.9c-15.7 2-30.3 8.6-43.8 23.9-10.4 11.8-20.1 28.7-29.2 52.4-.5 1.3-1 2.9-1.5 4.2-6.3 17-12.2 37.2-17.9 61.6-2 8.8-4 18.1-6 27.9-3.2 16-6.2 33.9-9.2 53v.1c-.2 1.6-.5 3-.7 4.6-.4 2.7-.8 5.1-1.2 7.9v.1c0 .4-.2 2.1-.4 4.7-1.4 16.5-5.9 71.1-4.8 92.4.1 1.2 1.1 2.2 2.3 2.2h.1c1.3-.1 2.2-1.1 2.2-2.4-1.1-21.2 3.6-78.4 4.9-93 .2-2.1.3-3.3.3-3.4 0-.5-.2-.9-.4-1.2 1.2-.3 2.5-.5 3.7-.8.7-.2 1.3-.4 1.9-.5-.1.8-.2 2.4-.3 4.9-1.2 17.1-4.8 70.4-4.8 91.4 0 1.3 1 2.3 2.3 2.3 1.3 0 2.3-1 2.3-2.3 0-21.6 3.9-77.8 4.9-92.8.2-2.3.3-3.7.3-3.8 0-.4-.2-.6-.3-1 .6-.2 1.3-.4 1.9-.6 1-.3 1.7-.5 2.6-.8-.1 1.1-.2 2.8-.4 4.9-1.5 18-5.7 70.2-4.7 90.9.1 1.2 1.1 2.2 2.3 2.2h.1c1.3-.1 2.2-1.1 2.2-2.4-1.1-20.8 3.4-76.1 4.8-92 .2-2.6.4-4.3.4-4.4 0-.1-.1-.2-.1-.3 1-.2 1.9-.4 2.8-.4.1 0 .3-.1.5-.1-.1.7-.2 2.3-.4 4.7-1.5 16.9-5.9 70.9-4.8 92 .1 1.2 1.1 2.2 2.3 2.2h.1c.4 0 .6-.3.9-.4-.3 8.3-.3 15.6-.1 20.8.1 1.2 1.1 2.2 2.3 2.2h.1c1.3-.1 2.2-1.1 2.2-2.4-1-19.2 2.8-69.7 4.5-90.1.1-1.8.3-3.4.4-4.7 1.1.4 2.6.8 4.3 1.2 0 .1-.1.2-.1.3 0 .4-.2 1.9-.4 4.3-1.4 16-6 71.4-4.8 92.8.1 1.2 1.1 2.2 2.3 2.2h.1c1.3-.1 2.2-1.1 2.2-2.4-1.1-20.7 3.4-75.7 4.8-91.8.2-2.7.4-4.4.4-4.6 1.1.1 2 .3 3.2.4.5.1 1.2.1 1.8.2v.1c0 .1-.1 1.8-.3 4.5-1.1 16-4.7 71-4.9 92.4 0 1.3 1 2.3 2.3 2.3 1.3 0 2.3-1 2.3-2.3.2-21.2 3.8-75.9 4.9-92 .2-2.7.3-4.4.3-4.6.6.1 1.2.1 1.8.2.9.1 1.8.1 2.7.2 0 .2-.1 1.9-.3 4.6-1.1 16.1-4.7 70.9-4.9 92.3 0 1.3 1 2.3 2.3 2.3 1.3 0 2.3-1 2.3-2.3.2-21.3 3.8-76.1 4.9-92.1.2-2.7.3-4.5.3-4.6.7 0 1.3.1 2 .1.9 0 1.8 0 2.7.1 0 .6-.1 2.2-.3 4.6-.9 16.4-3.8 70-4.9 91.8-.1 1.3.9 2.3 2.2 2.4h.1c1.2 0 2.2-.9 2.3-2.2 1.1-21.9 4-75.6 4.9-91.9.1-2.6.2-4.2.2-4.6h2.6c.7 0 1.4-.1 2.2-.1 0 .6-.1 2.2-.3 4.6-1 16.6-4.3 70.4-4.9 91.8 0 1.3 1 2.3 2.2 2.3h.1c1.2 0 2.3-1 2.3-2.2.6-21.4 3.9-75.8 4.9-92 .2-2.7.3-4.4.3-4.6 1.2-.1 2.3-.1 3.4-.2.2 0 .4-.1.6-.1-.1.8-.2 2.5-.3 4.6-1.1 16.9-4.6 69.9-4.8 91.5 0 1.3 1 2.3 2.3 2.3 1.3 0 2.3-1 2.3-2.3.2-21.7 3.8-75.8 4.9-91.9.2-2.8.3-4.6.3-4.7v-.1c1.2-.2 2.5-.2 3.6-.4 0 .8-.1 2.4-.3 4.7-1 16.9-4.1 70.3-4.9 91.5 0 1.3.9 2.3 2.2 2.4h.1c1.2 0 2.2-1 2.3-2.2.8-21.7 4-77.2 4.9-92.6.1-2.5.2-4 .2-4.1 0-.3-.2-.5-.3-.8.1 0 .3-.1.4-.1.6-.2 1.4-.3 1.9-.5-.1 1.5-.1 3.2-.2 5-.9 23.4-2.9 72.3-4 91.1-.1 1.3.9 2.3 2.2 2.4h.1c1.2 0 2.2-.9 2.3-2.1 1.2-19.5 3.2-71.2 4.1-93.4.1-2.4.2-4.6.2-6.2.4-2.7.8-5.8 1-9.4.2-3.6.3-7.6.4-12 0-4.4 0-9.2-.1-14.2-.4-20.2-1.7-45.2-2.6-70.4-.4-12.6-.8-25.3-.8-37.5 0-6.1 0-12.1.2-17.9.1-6.3.4-12.3.8-18 1-15.5 3-28.8 6.6-38 .6-1.6 1.4-2.7 2.1-4.1-.6-2.3-.7-4.6-.4-6.9-14.4 3.3-18.3 15-22.2 56.3-4.5 47.4-9.1 81.8-11.7 101.3.6-55.2-6.8-136.9 16.9-157.2 7.5-7.3 13.3-9.1 18-9.5zm-82.3 235.6c-.1.9-.3 3.2-.6 6.7-.1-.1-.2-.1-.3-.2.9-12.1 1.7-21.6 2-25.1.3.4.5 1 .7 1.7.1.3.2.6.3 1 .2 1.2.2 2.7-.1 4.6-.4 2.5-1 4.6-1.5 6.4-.4 1.7-.6 3-.5 4.3v.6z"/><path class="st1" d="M490.3 276.1c40 12.1 79.8 46.8 122.3 83.8-22.6-48.4-104.9-107.2-157.7-98.5 0 3.5-.1 7-.7 10.6l-.3 1.2c-.3 1.7-.7 3.3-1.1 4.9 15.8-2.4 43.2-3.1 71.4 53.2 19.5 39 16 53.3 39.8 60.6 25.9 8-11.3-63.2-19.9-71.9-6.5-6.6-31.2-32.5-53.8-43.9zM344 446.3c2.6-19.5 7.1-53.9 11.7-101.3 4-41.3 7.8-53.1 22.2-56.3.2-1.3.4-2.5.6-3.7.3-1.5.4-3 .6-4.5-4.7.3-10.5 2.1-18.2 8.7-23.7 20.2-16.3 101.9-16.9 157.1z"/><path class="st0" d="M448.8 248.3c-1.3-4.3-3.4-7.2-5.9-8.4-10.7-5.3-27.3 3.7-27.5 3.8l-1 .6-3.8-1.9c-9.4-4.8-12.6-6.4-33.1 2-3.5 3-1.7 7.8 1.7 16 1.3 3.1 2.7 6.4 3.7 9.8 1.8 6 .9 11 .1 15.4-.2 1-.3 1.9-.5 2.8.8-3.2 2.4-6.4 4.1-10 2.2-4.8 4.8-10.8 6.9-19.5 4.8 12.6-2 26.6-1.7 31.2.4 6 2.9 11.6 6.9 13.5 10 .4 17-6.3 17.4-6.7l1.1-1.1 1.2.5c-.8-.7-1.3-1.2-1.3-1.2 7.1-17.5 6.7-27.5-1.1-50 15.6 15.6 19.6 54 14.5 56.7 1.2.2 2.4.3 3.5 0 3.1-.9 6.1-4.1 9.1-9.4 7-12.7 9.5-32.1 5.7-44.1z"/><path class="st1" d="M416.1 245.1c7.8 22.5 8.2 32.5 1.1 50 0 0 .5.5 1.3 1.2 2.3 2.2 7.4 6.4 11.7 5.9.2 0 .2-.4.4-.4 5.1-2.7 1-41.1-14.5-56.7zM391.8 290.2c-.3-4.6 6.5-18.6 1.7-31.2-2.2 8.7-4.8 14.7-6.9 19.5-1.7 3.7-3.3 6.8-4.1 10-1.1 4-.9 8 2.6 13 7 1.8 14.5 2.7 14.5 2.7-.3-.1-.6-.4-.9-.6-4-1.8-6.5-7.4-6.9-13.4z"/></svg>