<svg version="1.1" id="Calque_15" xmlns="http://www.w3.org/2000/svg" x="0" y="0" viewBox="0 0 800 800" style="enable-background:new 0 0 800 800" xml:space="preserve"><style>.st0{fill:#fff}</style><path class="st0" d="M551.3 315.9c-2.3-.3-4.5-.8-6.9-.8-30 0-57 21.6-65.9 52.5-1 3.7-4.8 5.8-8.5 4.7-3.7-1-5.8-4.8-4.7-8.5 10.5-36.8 43-62.4 79.1-62.4 2.1 0 4 .5 6 .6-6.2-53.9-51.9-95.7-107.5-95.7-45.1 0-83.8 27.6-100 66.9-9.3-9.8-22.3-16-36.9-16-28.1 0-50.9 22.8-50.9 50.9 0 4.5.8 8.7 1.8 12.9-36.3.7-65.5 30.3-65.5 66.7 0 36.9 29.9 66.9 66.9 66.9h280.2c38.7 0 70-31.4 70-70 0-34.3-24.6-62.7-57.2-68.7zM308.7 475c-3.3-1.9-7.5-.7-9.4 2.6l-27.1 47.8c-1.9 3.3-.7 7.5 2.6 9.4 1.1.6 2.2.9 3.4.9 2.4 0 4.7-1.3 6-3.5l27.1-47.8c1.8-3.4.7-7.6-2.6-9.4zM429.7 475c-3.3-1.9-7.5-.7-9.4 2.6l-27.1 47.8c-1.9 3.3-.7 7.5 2.6 9.4 1.1.6 2.2.9 3.4.9 2.4 0 4.7-1.3 6-3.5l27.1-47.8c1.8-3.4.7-7.6-2.6-9.4zM550.6 475c-3.3-1.9-7.5-.7-9.4 2.6l-27.1 47.8c-1.9 3.3-.7 7.5 2.6 9.4 1.1.6 2.2.9 3.4.9 2.4 0 4.7-1.3 6-3.5l27.1-47.8c1.9-3.4.7-7.6-2.6-9.4zM348.5 537c-3.3-1.9-7.5-.7-9.4 2.6L312 587.4c-1.9 3.3-.7 7.5 2.6 9.4 1.1.6 2.2.9 3.4.9 2.4 0 4.7-1.3 6-3.5l27.1-47.8c1.8-3.3.7-7.5-2.6-9.4zM469.5 537c-3.3-1.9-7.5-.7-9.4 2.6L433 587.4c-1.9 3.3-.7 7.5 2.6 9.4 1.1.6 2.2.9 3.4.9 2.4 0 4.7-1.3 6-3.5l27.1-47.8c1.8-3.3.7-7.5-2.6-9.4z"/></svg>