<svg version="1.1" id="Calque_9" xmlns="http://www.w3.org/2000/svg" x="0" y="0" viewBox="0 0 800 800" style="enable-background:new 0 0 800 800" xml:space="preserve"><style>.st0{fill:#c2c2c2}</style><path class="st0" d="m278.8 555.5.6-7.2h3.9l-.6-7.1H280l.7-9h1.1l-3.3-37.1-2.2 27.3h-10.2l-.8 9.8h15.4l-.7 9h-24.3l2.2-27.7H268l.8-9.9h-31.2l-.8 9.9H247l-2.2 27.7h-23.9l-.6 7.1h59l-.5 7.2h-59l-2.1 25.5c-.6 7.3-2.6 32.4-2.6 32.4l4.6.4s2.1-26 2.7-32.8h5.5c-.6 7.3-2.6 32.4-2.6 32.4l4.6.4s2.1-26 2.7-32.8h5.5c-.6 7.3-2.6 32.4-2.6 32.4l4.6.4s2.1-26.1 2.7-32.8h5.5c-.6 7.3-2.6 32.4-2.6 32.4l4.6.4s2.1-26.1 2.7-32.8h5.5c-.6 7.3-2.6 32.4-2.6 32.4l4.6.4s2.1-26.1 2.7-32.8h5.5c-.6 7.3-2.6 32.4-2.6 32.4l4.6.4s2.1-26 2.7-32.8h5.5c-.6 7.3-2.6 32.4-2.6 32.4l4.6.4s2.1-26 2.7-32.8h3l-2.3-25.5h-5.5z"/><path class="st0" d="M237.4 522.4h-10.3l2.3-27.8h49.1l-.7-7.3h-52.5l-3.6 44.9h14.9zM250.3 178.3l-24.4 301.9h51.3z"/><path d="M581.8 592.6c0-.1-.1-.1-.1-.2l-2.2-24.6-33.3-374.7-.3-3.1-3-34.1-102.6 7.2-28.3 95.4-54.3-89.6-101.9 7.1-1.1.1 29.9 336.6 57.2-4 .7 7.3-57.2 4 4.1 45.9 14.4-1-.9-10-9.9.7-2.5-28.4 47.7-3.3 2.5 28.4-9.9.7.9 10 14.8-1 .8 9.2-23.5 1.6-2.5-28.4 9.9-.7-.9-10.1-30.3 2.1.9 10.1 9.9-.7 2.5 28.4-23.1 1.6.7 7.3 57.2-4 .7 7.3-57.2 4 5.2 58.3 4.3-.4s-2.3-25.7-3-33.2l5.2-.4c.6 7.3 3 33.3 3 33.3l4.6-.4s-2.3-25.9-3-33.3l5.2-.4c.6 7.3 3 33.4 3 33.4l4.6-.4s-2.3-25.9-3-33.3l5.2-.4c.6 7.3 3 33.4 3 33.4l4.6-.4s-2.3-25.9-3-33.3l5.2-.4c.6 7.3 3 33.3 3 33.3l4.6-.4s-2.3-25.9-3-33.3l5.2-.4c.6 7.2 3 33.4 3 33.4l4.6-.4s-2.3-25.9-3-33.3l5.2-.4c.6 7.3 3 33.4 3 33.4l4.6-.4s-2.3-25.9-3-33.3l5.2-.4c.6 7.3 3 33.3 3 33.3l4.6-.4s-2.3-25.9-3-33.3l5.2-.4c.6 7.2 3 33.4 3 33.4l4.6-.4s-2.3-25.9-3-33.3l5.2-.4c.7 7.3 3 33.4 3 33.4l4.6-.4s-2.3-25.9-3-33.3l5.2-.4c.6 7.3 3 33.4 3 33.4l4.6-.4s-2.3-25.9-3-33.3l5.2-.4c.6 7.3 3 33.3 3 33.3l4.6-.4s-2.3-25.9-3-33.3l5.2-.4c.6 7.2 3 33.4 3 33.4l4.6-.4s-2.3-25.9-3-33.3l5.2-.4c.6 7.3 3 33.4 3 33.4l4.6-.4s-2.3-25.9-3-33.3l5.2-.4c.6 7.2 3 33.3 3 33.3l4.6-.4s-2.3-25.9-3-33.3l5.2-.4c.6 7.3 3 33.4 3 33.4l4.6-.4s-2.3-25.9-3-33.3l5.2-.4c.6 7.3 3 33.4 3 33.4l4.6-.4s-2.3-25.9-3-33.3l5.2-.4c.6 7.3 3 33.3 3 33.3l4.6-.4s-2.3-25.9-3-33.3l5.2-.4c.6 7.2 3 33.4 3 33.4l4.6-.4s-2.3-25.9-3-33.3l5.2-.4c.6 7.3 3 33.4 3 33.4l4.6-.4s-2.3-25.9-3-33.3l5.2-.4c.6 7.3 3 33.3 3 33.3l4.6-.4s-2.3-25.9-3-33.3l5.2-.4c.6 7.2 3 33.4 3 33.4l4.6-.4s-2.3-25.9-3-33.3l5.2-.4c.7 7.3 3 33.4 3 33.4l4.6-.4s-2.3-25.9-3-33.3l5.2-.4c.6 7.3 3 33.3 3 33.3l4.6-.4s-2.3-25.9-3-33.3l5.2-.4c.6 7.3 3 33.4 3 33.4l4.6-.4s-2.3-25.9-3-33.3l5.2-.4c.6 7.3 3 33.4 3 33.4l4.6-.4s-2.3-25.9-3-33.3l5.2-.4c.6 7.3 3 33.3 3 33.3l4.6-.4s-2.3-25.9-3-33.3l5.2-.4c.6 7.2 3 33.4 3 33.4l4.6-.4s-2.3-25.9-3-33.3l5.2-.4c.6 7.3 3 33.4 3 33.4l4.6-.4s-2.3-25.9-3-33.3l5.2-.4c.7 7.4 3 33.3 3 33.3l4.6-.4c-.4 1.4-3.4-32.7-3.5-33.8zm-3.7-37.6-23.5 1.6-2.5-28.4 9.9-.7-.9-10.1-30.3 2.1.9 10.1 9.9-.7 2.5 28.4-23.6 1.7-.8-9.2 14.9-1-.9-10-9.9.7-2.5-28.4 47.7-3.3 2.5 28.4-9.9.7.9 10 14.8-1 .8 9.1zm-74.7-33.5-30.3 2.1.9 10.1 9.9-.7 2.5 28.4-23.6 1.7-.8-9.2 14.9-1-.9-10-9.9.7-2.5-28.4 47.7-3.3 2.5 28.4-9.9.7.9 10 14.8-1 .8 9.2-23.5 1.7-2.5-28.4 9.9-.7-.9-10.3zm-57.7 4-30.3 2.1.9 10.1 9.9-.7 2.5 28.4-23.6 1.7-.8-9.2 14.9-1-.9-10-9.9.7-2.5-28.4 47.7-3.3 2.5 28.4-9.9.7.9 10 14.8-1 .8 9.2-23.5 1.7-2.5-28.4 9.9-.7-.9-10.3zm126.8-33 .7 7.3-57.7 4-.7-7.3 57.7-4zm-57.7 4.1.7 7.3-57.7 4-.7-7.3 57.7-4zm-57 11.4-57.7 4-.7-7.3 57.7-4 .7 7.3zm-115.3 8.1-.7-7.3 57.7-4 .7 7.3-57.7 4zm4.9 55.1-.8-9.2 14.9-1-.9-10-9.9.7-2.5-28.4 47.7-3.3 2.5 28.4-9.9.7.9 10 14.8-1 .8 9.2-23.5 1.6-2.5-28.4 9.9-.7-.9-10.1-30.3 2.1.9 10.1 9.9-.7 2.5 28.4-23.6 1.6zm1.3 14.6-.7-7.3 57.7-4 .7 7.3-57.7 4zm57.7-4-.7-7.3 57.7-4 .7 7.3-57.7 4zm57.6-4.1-.7-7.3 57.7-4 .7 7.3-57.7 4zm57.7-4-.7-7.3 57.7-4 .7 7.3-57.7 4z" style="fill:#fff"/><path class="st0" d="m455.4 162.1-4.7.3-36.5 118.8L349 169.5l-5 .4 70.9 122.3zM348.1 578.5l-57.2 4 .6 7.3 57.2-4z"/><path class="st0" d="m348.1 578.5.6 7.3 57.7-4-.7-7.4z"/><path class="st0" d="m405.7 574.4.7 7.4 57.6-4.1-.6-7.3z"/><path class="st0" d="m463.4 570.4.6 7.3 57.7-4-.6-7.4zM331.8 563l-.9-10 9.9-.7-2.5-28.5-47.8 3.4 2.6 28.4 9.8-.7.9 10.1-14.4 1 .8 9.2 23.2-1.7-2.6-28.3-9.8.6-.9-10 30.3-2.2.9 10.1-10 .7 2.6 28.4 23.5-1.6-.8-9.2z"/><path class="st0" d="m389.4 559-.9-10.1 10-.7-2.6-28.4-47.7 3.3 2.5 28.5 9.9-.7.9 10-14.9 1.1.8 9.2 23.6-1.7-2.5-28.4-9.9.7-.9-10.1 30.3-2.1.9 10.1-9.9.7 2.5 28.4 23.6-1.7-.8-9.2z"/><path class="st0" d="m447.1 554.9-.9-10 9.9-.7-2.5-28.4-47.7 3.3 2.5 28.5 9.9-.7.9 10-14.9 1 .8 9.2 23.6-1.6-2.5-28.4-9.9.7-.9-10.1 30.3-2.2.9 10.1-9.9.7 2.5 28.4 23.5-1.6-.8-9.2z"/><path class="st0" d="m504.7 550.9-.8-10 9.9-.7-2.5-28.5-47.8 3.4 2.6 28.4 9.8-.7.9 10.1-14.9 1 .8 9.2 23.6-1.7-2.5-28.4-9.8.7-.9-10.1 30.3-2.1.9 10.1-10 .7 2.6 28.4 23.5-1.7-.8-9.1z"/><path class="st0" d="m577.3 545.8-14.9 1.1-.9-10.1 10-.7-2.6-28.4-47.7 3.3 2.5 28.5 9.9-.7.9 10-14.9 1.1.8 9.1 23.6-1.6-2.5-28.4-9.9.7-.9-10.1 30.3-2.1.9 10.1-9.9.7 2.5 28.3 23.6-1.6zM521.1 566.3l.6 7.4 57.7-4.1-.7-7.3zM284.7 512.7l.6 7.4 57.2-4-.6-7.4zM341.9 508.7l.6 7.4 57.7-4.1-.7-7.3z"/><path class="st0" d="m399.5 504.7.7 7.3 57.6-4-.6-7.4z"/><path class="st0" d="m457.2 500.6.6 7.4 57.7-4.1-.7-7.3z"/><path class="st0" d="m572.5 492.5-57.7 4.1.7 7.3 57.7-4z"/></svg>