<svg version="1.1" id="Calque_13" xmlns="http://www.w3.org/2000/svg" x="0" y="0" viewBox="0 0 800 800" style="enable-background:new 0 0 800 800" xml:space="preserve"><style>.st0{fill:#fff}.st1{fill:#c2c2c2}</style><path class="st0" d="m419.8 167.6-2.9-79.2h-11.7l-4.4 79.1c2.9-.9 6-1.6 9.2-1.6 3.5-.1 6.7.6 9.8 1.7zM402 274.3l1.2 31.2h11.7l1.8-31.8c-2.1-.8-4.3-1.3-6.6-1.3-3 0-5.6.8-8.1 1.9zM439.6 187.7c.9 2.9 1.6 6 1.6 9.2 0 3.3-.8 6.5-2.1 9.8l79.6-2.9v-11.7l-79.1-4.4zM378.9 197c0-3.4.7-6.7 1.7-9.8l-79.2 2.9v11.7l79.4 4.4c-1.1-3.1-1.9-6.1-1.9-9.2zM437.7 183.1l54-58.1-8.3-8.3-59 52.8c5.7 3 10.4 7.8 13.3 13.6zM328.4 268.9l8.3 8.3 38.3-34.3c-.8-3-1.3-6-1.3-9.1 0-7.7 2.5-14.9 6.9-21l-52.2 56.1zM446.4 233.7c0 3.5-.7 6.9-1.7 10.2l37.3 34.6 8.3-8.3-48.5-54.2c2.9 5.5 4.6 11.5 4.6 17.7zM396.2 169.2l-58.1-54-8.3 8.3 52.8 59c3-5.7 7.7-10.3 13.6-13.3z"/><circle class="st1" cx="410" cy="197" r="13.2"/><path class="st0" d="m392.9 643.9 82.1-52.6v-20l-82.1 52.6zM392.9 592v17.2l82.1-52.6v-20.1L388.5 592zM410 715.7h-.1c0-.1.1 0 .1 0 25 0 46.6-14.4 57.4-35.3l-54.5 35c-1 0-1.9.3-2.9.3zM364.8 696.7 475 626.1v-20l-120.6 77.3c2.9 4.9 6.4 9.3 10.4 13.3zM393.5 713l80.3-51.5c.6-3.5 1.1-7.1 1.1-10.8v-9.9L375 704.9c5.7 3.6 11.9 6.4 18.5 8.1zM370.2 650.5v-4.8H359l-13.5 8.7c.4 6.2 1.8 12 3.7 17.6l33.6-21.5h-12.6zM345.1 535.6 475 452.3v-20l-129.9 83.3zM345.1 596.8h13l116.9-75v-20l-129.9 83.3zM345.1 500.9 475 417.5v-20l-129.9 83.3zM472.2 364.5 345.1 446v20L475 382.8v-.6c0-10.6-2.8-20.5-7.4-29.4 1.9 3.7 3.4 7.6 4.6 11.7zM345.1 570.4 475 487.1V467l-129.9 83.3zM458 338.9l-112.9 72.4v20l122.5-78.6c-2.6-5-5.8-9.6-9.6-13.8zM444.8 327.6c2.5-2.4 4.8-5.1 6.8-8 5.4-8 8.6-17.6 8.6-28 0-13-5.1-24.6-13.4-33.4-2.7-2.9-5.8-5.5-9.2-7.8h-.6c1.5-2.4 2.7-5.1 3.5-7.8.8-2.8 1.3-5.7 1.3-8.8 0-2.2-.2-4.4-.7-6.5-.4-2.1-1.1-4.1-2-6.1-1.7-3.9-4.1-7.3-7.1-10.2 2.6-4.1 4.5-8.7 4.5-13.9 0-3.4-.7-6.5-1.8-9.5-.1-.3-.1-.6-.3-.8-.7-1.6-1.5-3.1-2.4-4.5-4.8-7.1-12.8-11.7-22-11.7s-17.2 4.6-22 11.7c-1 1.4-1.8 2.9-2.4 4.5 0 .1-.1.2-.1.4-1.3 3.1-2 6.4-2 10 0 3.5 1 6.6 2.3 9.5.1.1.1.2.2.4.6 1.4 1.2 2.8 2 4-6 5.8-9.8 13.9-9.8 22.9 0 3.1.5 6 1.3 8.8s2 5.4 3.5 7.8h-.6c-3.4 2.2-6.4 4.9-9.2 7.8-8.2 8.8-13.4 20.4-13.4 33.4 0 14.2 5.9 26.9 15.4 36-1.3.8-2.6 1.8-3.8 2.7-9.6 7.2-16.9 17.1-21.4 28.4l63.9-41c6.1.4 11.9 1.6 17.4 3.5l-85.6 54.9c-.2 2.1-.7 4-.7 6.1v14.4l103.5-66.4c-1.2-1.1-2.4-2-3.7-2.8zM410 183.7c7.3 0 13.2 5.9 13.2 13.2 0 7.3-5.9 13.2-13.2 13.2-7.3 0-13.2-5.9-13.2-13.2 0-7.3 5.9-13.2 13.2-13.2zm9.3 129.8c-2.8 1.2-6 1.9-9.2 1.9-5.5 0-10.3-2.2-14.3-5.3-.8-.6-1.8-1-2.5-1.7-4.3-4.3-7-10.2-7-16.8 0-8.8 5-16.1 12-20.2 1.2-.7 2.2-1.4 3.5-1.9 2.6-1 5.3-1.7 8.2-1.7 2.4 0 4.7.7 6.9 1.4 9.7 3 16.9 11.7 16.9 22.3 0 9.9-6 18.4-14.5 22z"/><path class="st1" d="m414 317.7-63.9 41-.5.3c-.6 1.5-.9 3-1.4 4.5-.9 2.9-1.5 5.9-2 8.9-.2 1.3-.5 2.5-.6 3.8l.1-.1 85.6-54.9c-5.4-2-11.2-3.2-17.3-3.5zM458 338.9c-2.9-3.2-6-6.1-9.5-8.6L345 396.7v14.7l113-72.5zM467.6 352.8l-122.5 78.6v14.7l127.1-81.5c-1.2-4.2-2.7-8.1-4.6-11.8zM345.1 480.8 475 397.5v-14.7l-129.9 83.3zM345.1 515.6 475 432.3v-14.8l-129.9 83.4zM345.1 550.3 475 467v-14.7l-129.9 83.3zM345.1 585.1 475 501.8v-14.7l-129.9 83.3zM370.2 596.8V592h18.3l86.5-55.5v-14.7l-116.9 75zM392.9 623.9l82.1-52.6v-14.7l-82.1 52.6zM345.1 645.7v5c0 1.3.3 2.4.4 3.7l13.5-8.7h-13.9zM392.9 650.5h-10.2L349.2 672l-.2.1c.2.6.5 1.1.8 1.6 1 2.5 2.1 4.9 3.4 7.2.4.8.7 1.7 1.2 2.5l.1-.1L475 606v-14.7l-82 52.6v6.6zM364.5 696.9c1.2 1.2 2.6 2 3.9 3.1 1.1.9 2.2 1.8 3.3 2.6 1 .8 1.9 1.7 3 2.4l.3-.2 99.9-64.1V626l-110.1 70.6-.3.3zM393.3 713.2c2.2.6 4.4 1 6.7 1.5 3.2.6 6.5 1 9.9 1h.1c1 0 1.9-.2 2.8-.3l54.5-35c1.4-2.8 2.7-5.6 3.7-8.6.2-.6.3-1.1.5-1.7.9-2.8 1.7-5.6 2.2-8.6L393.5 713l-.2.2zM376.6 601.4h-44.5c2.9 6 4.7 12.7 4.7 19.9 0 7.1-1.8 13.8-4.7 19.9h44.5v-39.8z"/><path class="st0" d="M325.1 598.1c-.3-.5-.7-.8-1.1-1.3-7.5-10.2-19.6-17-33.3-17-14.3 0-26.9 7.2-34.3 18.3-4.5 6.6-7.1 14.6-7.1 23.2a41 41 0 0 0 3.3 16.1c2.1 5 5.1 9.4 8.9 13.2 7.5 7.5 17.8 12.1 29.3 12.1s21.8-4.6 29.3-12.1c3.7-3.7 6.8-8.2 8.9-13.2 2.1-5 3.3-10.4 3.3-16.1-.1-8.7-2.7-16.6-7.2-23.2z"/></svg>