<svg version="1.1" id="Calque_12" xmlns="http://www.w3.org/2000/svg" x="0" y="0" viewBox="0 0 800 800" style="enable-background:new 0 0 800 800" xml:space="preserve"><style>.st0{fill:#fff}.st1{fill:#c2c2c2}</style><path class="st0" d="M645 452.9H155s-62 0-72.3-3.8c14.8 45.9 62 56.2 91.5 56.2H625.9c29.5 0 76.8-10.2 91.5-56.2-10.4 3.8-72.4 3.8-72.4 3.8zM502.8 418l-43.1-158c-7.1-18.9-25.3-26.7-50.1-28.7v-.6c-2.4 0-4.7.1-7 .2-2.3-.1-4.6-.2-7-.2v.6c-24.9 2-43 9.8-50.1 28.7l-43.1 158h200.4zm-87.4-88.4c-.7 1.1-2.1 1.4-3.1.8-1.1-.7-1.4-2.1-.8-3.2 1-1.7 1.5-3.6 1.5-5.7 0-5.2-3.3-9.4-7.5-9.4-4.1 0-7.4 4.2-7.4 9.4 0 2.1.5 4.1 1.5 5.7.7 1.1.3 2.5-.8 3.2-.4.2-.8.3-1.2.3-.8 0-1.5-.4-2-1.1-1.5-2.4-2.2-5.2-2.2-8.1 0-7.7 5.4-14 12-14s12 6.3 12 14c.2 3-.5 5.7-2 8.1zm16.5-86c12.7 0 23 10.3 23 23s-10.3 23-23 23-23-10.3-23-23c0-12.8 10.3-23 23-23zm-77.8 22.9c0-12.7 10.3-23 23-23s23 10.3 23 23-10.3 23-23 23-23-10.3-23-23zM507.4 434.9l-1-3.9H298.9l-1.1 3.9zM505.1 426.4l-1-3.8H301.2l-1.1 3.8zM296.6 439.5l-1.3 4.4h214.6l-1.2-4.4z"/><path class="st1" d="M431.9 289.5c12.7 0 23-10.3 23-23s-10.3-23-23-23-23 10.3-23 23 10.3 23 23 23zM400 266.5c0-12.7-10.3-23-23-23s-23 10.3-23 23 10.3 23 23 23 23-10.3 23-23zM291.9 439.5h219.5c1.3 0 2.3-1 2.3-2.3s-1-2.3-2.3-2.3H291.9c-1.3 0-2.3 1-2.3 2.3s1.1 2.3 2.3 2.3zM506.4 431h3.2c1.3 0 2.3-1 2.3-2.3s-1-2.3-2.3-2.3H294.9c-1.3 0-2.3 1-2.3 2.3s1 2.3 2.3 2.3h211.5zM504.1 422.6h1.9c1.3 0 2.3-1 2.3-2.3s-1-2.3-2.3-2.3H297.7c-1.3 0-2.3 1-2.3 2.3s1 2.3 2.3 2.3h206.4zM405.6 307.6c-6.6 0-12 6.3-12 14 0 2.9.8 5.7 2.2 8.1.4.7 1.2 1.1 2 1.1.4 0 .8-.1 1.2-.3 1.1-.7 1.4-2.1.8-3.2-1-1.6-1.5-3.6-1.5-5.7 0-5.2 3.3-9.4 7.4-9.4 4.1 0 7.5 4.2 7.5 9.4 0 2.1-.5 4-1.5 5.7-.7 1.1-.3 2.5.8 3.2 1.1.6 2.5.3 3.1-.8 1.4-2.4 2.2-5.2 2.2-8-.2-7.8-5.6-14.1-12.2-14.1z"/></svg>