<svg version="1.1" id="Calque_14" xmlns="http://www.w3.org/2000/svg" x="0" y="0" viewBox="0 0 800 800" style="enable-background:new 0 0 800 800" xml:space="preserve"><style>.st0{fill:#fff}.st1{fill:#a6a6a6}.st2{fill:#c2c2c2}</style><path class="st0" d="M674.1 623.4S593 300 544.5 218.4l-3.1-1.1 2.8 1.1s-20.2 81.7-20 145c-7.6-49.8 16.1-146.1 16.1-146.5l-76.1-27.8 4.9 1.8c8.9 15 12.5 34.9 10 54.7-7 41.2-30.2 64.4-48.8 83.1-13.3 13.4-22.8 23.6-23.8 36.7v.8c0 19.1 3.7 90.2 6.2 104.5 9.5 55.6 13.3 109.5 87.5 95.2l27.2-7.2s-1.7-192.8-3-196c16.6 52 89.1 278.9 89.1 278.9s34.4-2.3 60.6-18.2zm-7.5-12.2c0 3.3-2.6 5.9-5.8 5.9-3.2 0-5.8-2.6-5.8-5.9s2.6-5.9 5.8-5.9c3.2 0 5.8 2.6 5.8 5.9zm-4.5-15.3c0 3.3-2.6 5.9-5.8 5.9-3.2 0-5.8-2.6-5.8-5.9s2.6-5.9 5.8-5.9c3.2 0 5.8 2.6 5.8 5.9zm-9.7-22.5c3.2 0 5.8 2.6 5.8 5.9 0 3.3-2.6 5.9-5.8 5.9-3.2 0-5.8-2.6-5.8-5.9 0-3.2 2.6-5.9 5.8-5.9zm-229.3-193c-6.9 0-12.6-5.7-12.6-12.8 0-7.1 5.6-12.8 12.6-12.8s12.6 5.7 12.6 12.8c0 7.1-5.6 12.8-12.6 12.8zm30.2-33.8 52-9.1.8 4.5-52 9.1-.8-4.5zm1.7 141.8-.8-4.5 64.1-11.7.8 4.5-64.1 11.7z"/><ellipse class="st1" cx="660.8" cy="611.2" rx="5.8" ry="5.9"/><ellipse class="st1" cx="656.3" cy="595.9" rx="5.8" ry="5.9"/><path class="st1" d="M652.4 585.2c3.2 0 5.8-2.6 5.8-5.9 0-3.3-2.6-5.9-5.8-5.9-3.2 0-5.8 2.6-5.8 5.9 0 3.3 2.6 5.9 5.8 5.9z"/><ellipse class="st2" cx="423.1" cy="367.6" rx="12.6" ry="12.8"/><path class="st0" d="M125.9 623.4c26.2 15.9 60.6 18.2 60.6 18.2s72.3-226.3 89-278.7c0-63.2-20-144.5-20-144.5-48.5 81.6-129.6 405-129.6 405zm13.3-6.3c-3.2 0-5.8-2.6-5.8-5.9s2.6-5.9 5.8-5.9c3.2 0 5.8 2.6 5.8 5.9s-2.6 5.9-5.8 5.9zm4.5-15.3c-3.2 0-5.8-2.6-5.8-5.9s2.6-5.9 5.8-5.9c3.2 0 5.8 2.6 5.8 5.9s-2.6 5.9-5.8 5.9zm3.9-16.6c-3.2 0-5.8-2.6-5.8-5.9 0-3.3 2.6-5.9 5.8-5.9 3.2 0 5.8 2.6 5.8 5.9 0 3.3-2.6 5.9-5.8 5.9zM357.2 243.2c-9.1-46.3-3.2-76.3 4.7-80.8-8.3-.7-16.2 12.3-25 26.3-.7 1.3-1.7 3-1.8 3.1-8.3 15.2-12.3 33.6-9.8 53.2 6.7 39.7 29.4 62.3 47.5 80.5 13.7 13.8 19.9 25.5 20.7 40.7 0-1.6 0-4.1-.5-7.5-2.6-30.6-26.3-67-35.8-115.5z"/><path class="st0" d="M320.7 245.6c-2.5-19.9 1.1-39.7 9.9-54.7l-71.3 26c.3 1.3 23.7 96.8 16.1 146.4v-.2c-1.3 8.9-2.9 195.6-2.9 195.6l27.2 7.2c74.2 14.3 78.1-39.6 87.5-95.2 2.4-14.3 6.2-85.4 6.2-104.5-.7-13.5-10.4-23.8-24-37.5-18.5-18.6-41.7-41.9-48.7-83.1zm26.6 242.8-64.1-11.7.8-4.5 64.1 11.7-.8 4.5zm42.1-120.8c0 7.1-5.6 12.8-12.6 12.8-6.9 0-12.6-5.7-12.6-12.8 0-7.1 5.6-12.8 12.6-12.8 7 .1 12.6 5.8 12.6 12.8z"/><path class="st2" d="M325.2 245c-2.5-19.6 1.5-38 9.8-53.2.1-.1 1-1.8 1.8-3.1v-.1l-6.2 2.3c-8.9 15-12.5 34.8-9.9 54.7 7 41.2 30.2 64.4 48.8 83.1 13.6 13.6 23.3 24 24 37.5-.8-15.2-7-26.9-20.7-40.7-18.2-18.2-40.8-40.9-47.6-80.5z"/><path class="st0" d="M474.6 245c2.5-19.6-1.5-38-9.8-53.2-.1-.1-1.1-1.8-1.8-3.2-8.8-13.9-16.7-26.9-25-26.2 7.8 4.5 13.8 34.5 4.7 80.8-10.4 52.5-37.6 90.8-36.3 123 .8-15.2 7-26.9 20.7-40.7 18.1-18.2 40.8-40.9 47.5-80.5z"/><path class="st2" d="M479.1 245.6c2.5-19.9-1.1-39.7-10-54.7l-4.9-1.8-1.3-.5c.7 1.3 1.8 3 1.8 3.2 8.3 15.2 12.3 33.6 9.8 53.2-6.7 39.7-29.4 62.3-47.5 80.5-13.7 13.8-19.9 25.5-20.7 40.7 0-.3.2-.5.2-.8 1-13.1 10.5-23.3 23.8-36.7 18.6-18.6 41.8-41.9 48.8-83.1z"/><ellipse class="st1" cx="139.2" cy="611.2" rx="5.8" ry="5.9"/><ellipse class="st1" cx="143.7" cy="595.9" rx="5.8" ry="5.9"/><path class="st1" d="M147.6 573.4c-3.2 0-5.8 2.6-5.8 5.9 0 3.3 2.6 5.9 5.8 5.9 3.2 0 5.8-2.6 5.8-5.9 0-3.2-2.6-5.9-5.8-5.9z"/><ellipse class="st2" cx="376.9" cy="367.6" rx="12.6" ry="12.8"/><path class="st2" d="M259.4 217v-.1l-3.9 1.6s20.1 81.3 20 144.5v.4c7.5-49.6-15.8-145.1-16.1-146.4zM524.2 363.4c-.1-63.2 20-145 20-145l-2.8-1.1-1.1-.4c0 .3-23.6 96.6-16.1 146.5z"/><path transform="rotate(-9.928 479.593 344.257)" class="st2" d="M453.3 342h52.8v4.6h-52.8z"/><path transform="rotate(-10.347 486.522 480.215)" class="st2" d="M454 478h65.1v4.6H454z"/><path transform="rotate(-79.665 315.632 480.265)" class="st2" d="M313.4 447.7h4.6v65.1h-4.6z"/></svg>