<svg width="36" height="36" viewBox="0 0 36 36" fill="none" xmlns="http://www.w3.org/2000/svg">
<circle cx="18" cy="18" r="18" fill="#202020"/>
<path fill-rule="evenodd" clip-rule="evenodd" d="M24.6408 22.1728C24.7405 22.0015 24.9637 21.9418 25.1396 22.039C25.3154 22.1361 25.3767 22.3535 25.2769 22.5248L23.8883 24.9069C23.7886 25.0782 23.5654 25.1378 23.3895 25.0407C23.2137 24.9435 23.1524 24.7262 23.2522 24.5549L24.6408 22.1728ZM12.5099 22.1404C12.6096 21.9691 12.8327 21.9094 13.0086 22.0066C13.1845 22.1038 13.2457 22.3211 13.146 22.4924L11.7574 24.8745C11.6576 25.0458 11.4345 25.1054 11.2586 25.0083C11.0827 24.9111 11.0215 24.6938 11.1212 24.5225L12.5099 22.1404ZM18.5753 22.108C18.6751 21.9367 18.8982 21.8771 19.0741 21.9742C19.25 22.0714 19.3112 22.2887 19.2115 22.46L17.8237 24.8421C17.724 25.0134 17.5008 25.0731 17.325 24.9759C17.1491 24.8787 17.0878 24.6614 17.1876 24.4901L18.5753 22.108ZM14.4295 25.0857L13.0409 27.4678C12.9412 27.6391 13.0033 27.8564 13.1783 27.9536C13.3542 28.0508 13.5773 27.9902 13.6771 27.8198L15.0657 25.4377C15.1654 25.2664 15.1033 25.0491 14.9283 24.9519C14.7524 24.8548 14.5293 24.9144 14.4295 25.0857ZM20.5685 25.0857L19.1799 27.4678C19.0801 27.6391 19.1422 27.8564 19.3172 27.9536C19.4931 28.0508 19.7162 27.9902 19.816 27.8198L21.2046 25.4377C21.3044 25.2664 21.2422 25.0491 21.0672 24.9519C20.8914 24.8548 20.6682 24.9144 20.5685 25.0857ZM25.8105 13.8C25.6836 12.5182 25.0886 11.3684 24.1935 10.5153C23.21 9.57782 21.8635 9 20.3777 9C19.2314 9 18.1683 9.34346 17.2907 9.93066C16.4236 10.5102 15.7376 11.3267 15.3316 12.2837C15.3377 12.3809 15.3027 12.4806 15.2275 12.5556C15.0857 12.6962 14.8539 12.6979 14.7104 12.5599C14.5126 12.3698 14.2772 12.2164 14.0165 12.1124C13.768 12.0127 13.4932 11.9582 13.2027 11.9582C12.6095 11.9582 12.0722 12.1925 11.6837 12.5709C11.2952 12.9493 11.0546 13.4726 11.0546 14.0504C11.0546 14.111 11.0572 14.1689 11.0616 14.2243C11.0669 14.2865 11.0739 14.3436 11.0826 14.3956C11.115 14.5899 10.9794 14.7732 10.7799 14.8047C10.7702 14.8064 10.7615 14.8073 10.7519 14.8081C9.97662 14.9095 9.28623 15.2879 8.79011 15.8376C8.29924 16.3831 8 17.0964 8 17.8754C8 18.7259 8.35788 19.4989 8.93276 20.0598C9.5085 20.6206 10.3021 20.9683 11.1754 20.9683H25.6864C26.6016 20.9683 27.4303 20.607 28.0296 20.0232C28.629 19.4385 29 18.6314 29 17.7408C29 16.8493 28.629 16.0422 28.0296 15.4584C27.4303 14.8746 26.6016 14.5133 25.6864 14.5133C24.968 14.5133 24.3047 14.7349 23.7631 15.1107C23.2066 15.4976 22.7779 16.0482 22.5512 16.6908C22.4856 16.8775 22.2774 16.9763 22.0858 16.9132C21.8941 16.8493 21.7926 16.6465 21.8574 16.4598C22.1339 15.6766 22.658 15.0033 23.3388 14.5312C24.002 14.0701 24.8114 13.7999 25.6856 13.7999C25.7285 13.7982 25.7694 13.7991 25.8105 13.8Z" fill="white"/>
</svg>
