<svg width="89" height="49" viewBox="0 0 89 49" fill="none" xmlns="http://www.w3.org/2000/svg">
<path d="M25.847 0.00871944C25.403 0.0485361 24.9851 0.235513 24.6595 0.539969L0.659517 22.54C0.451883 22.7275 0.285903 22.9565 0.1723 23.2122C0.0586977 23.4679 0 23.7446 0 24.0243C0 24.3041 0.0586977 24.5808 0.1723 24.8365C0.285903 25.0922 0.451883 25.3212 0.659517 25.5087L24.6595 47.5087C24.8542 47.6865 25.0821 47.8241 25.3301 47.9136C25.5782 48.0031 25.8414 48.0427 26.1048 48.0302C26.3682 48.0176 26.6265 47.9532 26.8649 47.8406C27.1033 47.728 27.3171 47.5694 27.4941 47.3739C27.671 47.1784 27.8076 46.9499 27.896 46.7015C27.9844 46.4531 28.0229 46.1897 28.0092 45.9264C27.9956 45.6631 27.9301 45.405 27.8164 45.1671C27.7028 44.9292 27.5432 44.7161 27.347 44.54L7.15952 26.04H86.0033C87.0599 26.055 88.0345 25.0967 88.0345 24.04C88.0345 22.9833 87.0599 22.0251 86.0033 22.04H7.15952L27.347 3.50872C27.6663 3.23075 27.8891 2.85865 27.9834 2.44599C28.0778 2.03332 28.0388 1.60137 27.872 1.21229C27.7053 0.823201 27.4194 0.49705 27.0555 0.280772C26.6916 0.0644943 26.2685 -0.030759 25.847 0.00871944Z" fill="black"/>
</svg>
