<svg width="62" height="36" viewBox="0 0 62 36" fill="none" xmlns="http://www.w3.org/2000/svg">
<path d="M60.188 16.75H1.25C0.55859 16.75 0 17.3086 0 18C0 18.6914 0.55859 19.25 1.25 19.25H60.184C60.8754 19.25 61.434 18.6914 61.434 18C61.4379 17.3086 60.8755 16.75 60.188 16.75Z" fill="black"/>
<path d="M60.188 32.75H1.25C0.55859 32.75 0 33.3086 0 34C0 34.6914 0.55859 35.25 1.25 35.25H60.184C60.8754 35.25 61.434 34.6914 61.434 34C61.4379 33.3086 60.8755 32.75 60.188 32.75Z" fill="black"/>
<path d="M1.25 3.25H60.184C60.8754 3.25 61.434 2.69141 61.434 2C61.434 1.30859 60.8754 0.75 60.184 0.75H1.25C0.55859 0.75 0 1.30859 0 2C0 2.69141 0.5625 3.25 1.25 3.25Z" fill="black"/>
</svg>
