<svg width="79" height="63" viewBox="0 0 79 63" fill="none" xmlns="http://www.w3.org/2000/svg">
<path d="M39.2842 27.9995C34.1553 27.9995 29.9834 32.1714 29.9834 37.3003C29.9834 42.4292 34.1553 46.5972 39.2842 46.5972C44.4131 46.5972 48.5811 42.4253 48.5811 37.3003C48.5811 32.1714 44.4092 27.9995 39.2842 27.9995Z" fill="#202020"/>
<path d="M71.433 8.9297H55.613C54.113 8.9297 52.7185 8.10939 51.9685 6.7852L50.2185 3.6797C48.9333 1.3945 46.574 0 43.9685 0H34.613C32.0075 0 29.6482 1.3945 28.363 3.6797L26.613 6.7852C25.863 8.1055 24.4685 8.9297 22.9685 8.9297H7.1445C3.1797 8.9297 0 12.1445 0 16.0742V54.9692C0 58.934 3.1797 62.1137 7.1445 62.1137H71.4295C75.3592 62.1137 78.574 58.934 78.574 54.9692V16.0742C78.574 12.1445 75.3588 8.9297 71.433 8.9297ZM39.288 53.7497C30.2177 53.7497 22.823 46.3552 22.823 37.2847C22.823 28.2495 30.2175 20.8547 39.288 20.8547C48.3585 20.8547 55.718 28.2492 55.718 37.2847C55.718 46.3589 48.3586 53.7497 39.288 53.7497ZM66.108 24.9997H66.0728C64.108 24.9645 62.5376 23.3942 62.5376 21.4294C62.5376 19.4646 64.1431 17.8591 66.1079 17.8591C68.0727 17.8943 69.6431 19.4646 69.6431 21.4294C69.6431 23.3942 68.0729 24.9646 66.108 24.9997Z" fill="#202020"/>
</svg>
