<svg width="24" height="24" viewBox="0 0 24 24" fill="none" xmlns="http://www.w3.org/2000/svg">
<path d="M1.00375 0.000434803C0.804813 0.000485519 0.610414 0.0598635 0.445403 0.170977C0.280392 0.282091 0.152267 0.439891 0.0774095 0.624204C0.0025518 0.808516 -0.0156377 1.01097 0.0251668 1.20567C0.0659713 1.40038 0.163916 1.57849 0.306478 1.71723L10.0995 11.5102L0.306478 21.3032C0.210712 21.3954 0.134287 21.5058 0.081672 21.6279C0.0290568 21.7499 0.00130718 21.8813 4.50802e-05 22.0142C-0.00121702 22.1471 0.0240338 22.279 0.0743215 22.402C0.124609 22.5251 0.198924 22.6369 0.292922 22.7309C0.38692 22.8249 0.498714 22.8992 0.621769 22.9495C0.744823 22.9998 0.876668 23.025 1.0096 23.0238C1.14252 23.0225 1.27386 22.9948 1.39594 22.9421C1.51802 22.8895 1.62838 22.8131 1.72058 22.7173L11.5136 12.9243L21.3066 22.7173C21.3988 22.8131 21.5091 22.8895 21.6312 22.9421C21.7533 22.9948 21.8846 23.0225 22.0176 23.0238C22.1505 23.025 22.2823 22.9998 22.4054 22.9495C22.5284 22.8992 22.6402 22.8249 22.7342 22.7309C22.8282 22.6369 22.9025 22.5251 22.9528 22.402C23.0031 22.279 23.0284 22.1471 23.0271 22.0142C23.0258 21.8813 22.9981 21.7499 22.9455 21.6279C22.8929 21.5058 22.8164 21.3954 22.7207 21.3032L12.9277 11.5102L22.7207 1.71723C22.8652 1.57677 22.9639 1.39593 23.0038 1.19841C23.0438 1.00089 23.0232 0.795907 22.9446 0.610321C22.8661 0.424734 22.7333 0.267204 22.5637 0.158375C22.3941 0.0495454 22.1956 -0.00550584 21.9941 0.000434803C21.7343 0.00817477 21.4877 0.116752 21.3066 0.303165L11.5136 10.0962L1.72062 0.303165C1.62743 0.207371 1.51598 0.131226 1.39287 0.0792302C1.26975 0.0272342 1.13739 0.000441594 1.00375 0.000434803Z" fill="#e9e3de"/>
</svg>
