<svg width="22" height="22" viewBox="0 0 22 22" fill="none" xmlns="http://www.w3.org/2000/svg">
<path d="M11.0024 5.35947C7.881 5.35947 5.36319 7.87782 5.36319 11C5.36319 14.1221 7.881 16.6405 11.0024 16.6405C14.1239 16.6405 16.6417 14.1221 16.6417 11C16.6417 7.87782 14.1239 5.35947 11.0024 5.35947ZM11.0024 14.667C8.98529 14.667 7.3362 13.0225 7.3362 11C7.3362 8.97745 8.98038 7.33291 11.0024 7.33291C13.0246 7.33291 14.6687 8.97745 14.6687 11C14.6687 13.0225 13.0197 14.667 11.0024 14.667ZM18.1878 5.12875C18.1878 5.8602 17.5988 6.44437 16.8724 6.44437C16.1412 6.44437 15.5571 5.85528 15.5571 5.12875C15.5571 4.4022 16.146 3.81311 16.8724 3.81311C17.5988 3.81311 18.1878 4.4022 18.1878 5.12875ZM21.9227 6.46401C21.8393 4.70165 21.4368 3.14057 20.146 1.8544C18.8601 0.568224 17.2994 0.165681 15.5375 0.0773178C13.7215 -0.0257726 8.27853 -0.0257726 6.46258 0.0773178C4.70553 0.160772 3.14479 0.563315 1.85399 1.84949C0.563191 3.13567 0.165644 4.69675 0.0773007 6.4591C-0.0257669 8.27545 -0.0257669 13.7196 0.0773007 15.536C0.160736 17.2983 0.563191 18.8594 1.85399 20.1455C3.14479 21.4317 4.70062 21.8343 6.46258 21.9226C8.27853 22.0258 13.7215 22.0258 15.5375 21.9226C17.2994 21.8392 18.8601 21.4366 20.146 20.1455C21.4319 18.8594 21.8344 17.2983 21.9227 15.536C22.0258 13.7196 22.0258 8.28036 21.9227 6.46401ZM19.5767 17.4849C19.1939 18.447 18.4528 19.1883 17.4859 19.5761C16.038 20.1505 12.6024 20.018 11.0024 20.018C9.40247 20.018 5.96197 20.1455 4.51902 19.5761C3.55706 19.1932 2.81595 18.452 2.42822 17.4849C1.85399 16.0367 1.98651 12.6004 1.98651 11C1.98651 9.39964 1.8589 5.95837 2.42822 4.51512C2.81105 3.55294 3.55216 2.81167 4.51902 2.42385C5.96688 1.84949 9.40247 1.98204 11.0024 1.98204C12.6024 1.98204 16.043 1.8544 17.4859 2.42385C18.4479 2.80676 19.189 3.54802 19.5767 4.51512C20.1509 5.96329 20.0185 9.39964 20.0185 11C20.0185 12.6004 20.1509 16.0416 19.5767 17.4849Z" fill="#212121"/>
</svg>
