<svg width="41" height="97" viewBox="0 0 41 97" fill="none" xmlns="http://www.w3.org/2000/svg">
<path d="M40.469 0H0V92.176H1.7344V96.7502H4.8438L8.1446 92.176H32.3286L35.6294 96.7502H38.7388V92.176H40.4732L40.469 0ZM3.469 3.4688H37.004V88.7068H3.469V3.4688Z" fill="#202020"/>
<path d="M4.67383 87.477H35.7988V4.75H4.67383V87.477ZM12.2949 8.219H19.1426L8.14263 20.797V12.965L12.2949 8.219ZM32.3299 12.5901V28.2501L8.14193 55.9181V40.2581L32.3299 12.5901ZM32.3299 33.8241V41.6561L8.14193 69.3201V61.492L32.3299 33.8241ZM25.5291 84.0081H18.6853L32.3333 68.3991V76.2272L25.5291 84.0081Z" fill="#202020"/>
</svg>
