<svg width="17" height="20" viewBox="0 0 17 20" fill="none" xmlns="http://www.w3.org/2000/svg">
<path fill-rule="evenodd" clip-rule="evenodd" d="M9.2113 0.297089C9.5995 0.689919 9.5957 1.32307 9.2029 1.71128L7.7203 3.1765H8.5C13.1832 3.1765 17 6.9314 17 11.5882C17 16.245 13.1832 20 8.5 20C3.8168 20 0 16.245 0 11.5882C0 11.036 0.44772 10.5882 1 10.5882C1.5523 10.5882 2 11.036 2 11.5882C2 15.1182 4.899 18 8.5 18C12.101 18 15 15.1182 15 11.5882C15 8.0582 12.101 5.1765 8.5 5.1765H7.7203L9.2029 6.6417C9.5957 7.0299 9.5995 7.663 9.2113 8.0559C8.8231 8.4487 8.1899 8.4524 7.7971 8.0642L4.5828 4.8877C4.3927 4.6999 4.2857 4.4437 4.2857 4.1765C4.2857 3.9092 4.3927 3.6531 4.5828 3.4652L7.7971 0.288719C8.1899 -0.0994811 8.8231 -0.0957412 9.2113 0.297089Z" fill="#202020"/>
</svg>
