<svg width="22" height="22" viewBox="0 0 22 22" fill="none" xmlns="http://www.w3.org/2000/svg">
<path fill-rule="evenodd" clip-rule="evenodd" d="M16.7265 1.94118H16.7317H5.26827C3.22635 1.94118 1.57105 3.98645 1.57105 6.50941V15.4971C1.57105 18.02 3.22635 20.0653 5.26827 20.0653H16.7265C18.7684 20.0653 20.4237 18.02 20.4237 15.4971V6.50941C20.4237 3.98645 18.7684 1.94118 16.7265 1.94118ZM16.7317 0H16.7265C19.6349 -7.08218e-06 21.9942 2.90937 22 6.50294V15.4906C21.9971 19.0842 19.6401 21.9964 16.7317 22H5.26827C2.36192 21.9964 0.00577086 19.0881 0 15.4971V6.50941C0.00288674 2.91584 2.35988 0.00356683 5.26827 0H16.7317ZM9.39347 7.95431V14.356L13.5835 11.1552L9.39347 7.95431ZM9.39347 6.0338V6.0274C9.68816 6.02816 9.97673 6.13021 10.2262 6.32188L14.4162 9.52273C14.8761 9.87355 15.1556 10.4894 15.1556 11.152C15.1556 11.8146 14.8761 12.4304 14.4162 12.7812L10.2262 15.982C9.74218 16.3518 9.13214 16.3717 8.63269 16.0338C8.13325 15.696 7.82298 15.0537 7.82222 14.356V7.95431C7.82222 6.89364 8.52569 6.0338 9.39347 6.0338Z" fill="#212121"/>
</svg>
